%TF.GenerationSoftware,KiCad,Pcbnew,(6.0.9)*%
%TF.CreationDate,2023-01-10T14:41:47+08:00*%
%TF.ProjectId,keyboard-nano,6b657962-6f61-4726-942d-6e616e6f2e6b,rev?*%
%TF.SameCoordinates,Original*%
%TF.FileFunction,Drillmap*%
%TF.FilePolarity,Positive*%
%FSLAX45Y45*%
G04 Gerber Fmt 4.5, Leading zero omitted, Abs format (unit mm)*
G04 Created by KiCad (PCBNEW (6.0.9)) date 2023-01-10 14:41:47*
%MOMM*%
%LPD*%
G01*
G04 APERTURE LIST*
%ADD10C,0.100000*%
%ADD11C,0.200000*%
%ADD12C,0.040000*%
%ADD13C,0.076200*%
%ADD14C,0.102000*%
%ADD15C,0.150000*%
G04 APERTURE END LIST*
D10*
X10829000Y-15215000D02*
G75*
G03*
X11129000Y-15515000I300000J0D01*
G01*
D11*
X17329000Y-15515000D02*
X11129000Y-15515000D01*
X17629000Y-4215000D02*
X17629000Y-15215000D01*
D10*
X11129000Y-3915000D02*
G75*
G03*
X10829000Y-4215000I0J-300000D01*
G01*
D11*
X10829000Y-15215000D02*
X10829000Y-4215000D01*
D10*
X17329000Y-15515000D02*
G75*
G03*
X17629000Y-15215000I0J300000D01*
G01*
D11*
X11129000Y-3915000D02*
X17329000Y-3915000D01*
D10*
X17629000Y-4215000D02*
G75*
G03*
X17329000Y-3915000I-300000J0D01*
G01*
D11*
D12*
X11280000Y-10780000D02*
X11320000Y-10820000D01*
X11320000Y-10780000D02*
X11280000Y-10820000D01*
X11480000Y-9780000D02*
X11520000Y-9820000D01*
X11520000Y-9780000D02*
X11480000Y-9820000D01*
X11780000Y-10980000D02*
X11820000Y-11020000D01*
X11820000Y-10980000D02*
X11780000Y-11020000D01*
X12130000Y-10630000D02*
X12170000Y-10670000D01*
X12170000Y-10630000D02*
X12130000Y-10670000D01*
X12380000Y-5930000D02*
X12420000Y-5970000D01*
X12420000Y-5930000D02*
X12380000Y-5970000D01*
X12380000Y-8680000D02*
X12420000Y-8720000D01*
X12420000Y-8680000D02*
X12380000Y-8720000D01*
X12490069Y-6969931D02*
X12530069Y-7009931D01*
X12530069Y-6969931D02*
X12490069Y-7009931D01*
X13130000Y-5680000D02*
X13170000Y-5720000D01*
X13170000Y-5680000D02*
X13130000Y-5720000D01*
X13530000Y-4980000D02*
X13570000Y-5020000D01*
X13570000Y-4980000D02*
X13530000Y-5020000D01*
X14180000Y-5380000D02*
X14220000Y-5420000D01*
X14220000Y-5380000D02*
X14180000Y-5420000D01*
X14980000Y-6130000D02*
X15020000Y-6170000D01*
X15020000Y-6130000D02*
X14980000Y-6170000D01*
X15430000Y-6880000D02*
X15470000Y-6920000D01*
X15470000Y-6880000D02*
X15430000Y-6920000D01*
X15930000Y-5980000D02*
X15970000Y-6020000D01*
X15970000Y-5980000D02*
X15930000Y-6020000D01*
X16130000Y-6580000D02*
X16170000Y-6620000D01*
X16170000Y-6580000D02*
X16130000Y-6620000D01*
X16280000Y-4480000D02*
X16320000Y-4520000D01*
X16320000Y-4480000D02*
X16280000Y-4520000D01*
X16880000Y-7970000D02*
X16920000Y-8010000D01*
X16920000Y-7970000D02*
X16880000Y-8010000D01*
X17330000Y-9980000D02*
X17370000Y-10020000D01*
X17370000Y-9980000D02*
X17330000Y-10020000D01*
X17330000Y-11980000D02*
X17370000Y-12020000D01*
X17370000Y-11980000D02*
X17330000Y-12020000D01*
D13*
X14338100Y-4250000D02*
G75*
G03*
X14338100Y-4250000I-38100J0D01*
G01*
X14588100Y-4250000D02*
G75*
G03*
X14588100Y-4250000I-38100J0D01*
G01*
X15084100Y-4250000D02*
G75*
G03*
X15084100Y-4250000I-38100J0D01*
G01*
X15338100Y-4250000D02*
G75*
G03*
X15338100Y-4250000I-38100J0D01*
G01*
X15592100Y-4250000D02*
G75*
G03*
X15592100Y-4250000I-38100J0D01*
G01*
D10*
X11340500Y-4925000D02*
X11340500Y-5025000D01*
X11290500Y-4975000D02*
X11390500Y-4975000D01*
X11340500Y-5179000D02*
X11340500Y-5279000D01*
X11290500Y-5229000D02*
X11390500Y-5229000D01*
X11340500Y-5433000D02*
X11340500Y-5533000D01*
X11290500Y-5483000D02*
X11390500Y-5483000D01*
X11340500Y-5687000D02*
X11340500Y-5787000D01*
X11290500Y-5737000D02*
X11390500Y-5737000D01*
X11340500Y-5941000D02*
X11340500Y-6041000D01*
X11290500Y-5991000D02*
X11390500Y-5991000D01*
X11340500Y-6195000D02*
X11340500Y-6295000D01*
X11290500Y-6245000D02*
X11390500Y-6245000D01*
X11340500Y-6449000D02*
X11340500Y-6549000D01*
X11290500Y-6499000D02*
X11390500Y-6499000D01*
X11340500Y-6703000D02*
X11340500Y-6803000D01*
X11290500Y-6753000D02*
X11390500Y-6753000D01*
X11340500Y-6957000D02*
X11340500Y-7057000D01*
X11290500Y-7007000D02*
X11390500Y-7007000D01*
X11340500Y-7211000D02*
X11340500Y-7311000D01*
X11290500Y-7261000D02*
X11390500Y-7261000D01*
X11340500Y-7465000D02*
X11340500Y-7565000D01*
X11290500Y-7515000D02*
X11390500Y-7515000D01*
X11340500Y-7719000D02*
X11340500Y-7819000D01*
X11290500Y-7769000D02*
X11390500Y-7769000D01*
X11340500Y-7973000D02*
X11340500Y-8073000D01*
X11290500Y-8023000D02*
X11390500Y-8023000D01*
X11340500Y-8227000D02*
X11340500Y-8327000D01*
X11290500Y-8277000D02*
X11390500Y-8277000D01*
X11340500Y-8481000D02*
X11340500Y-8581000D01*
X11290500Y-8531000D02*
X11390500Y-8531000D01*
X12864500Y-4925000D02*
X12864500Y-5025000D01*
X12814500Y-4975000D02*
X12914500Y-4975000D01*
X12864500Y-5179000D02*
X12864500Y-5279000D01*
X12814500Y-5229000D02*
X12914500Y-5229000D01*
X12864500Y-5433000D02*
X12864500Y-5533000D01*
X12814500Y-5483000D02*
X12914500Y-5483000D01*
X12864500Y-5687000D02*
X12864500Y-5787000D01*
X12814500Y-5737000D02*
X12914500Y-5737000D01*
X12864500Y-5941000D02*
X12864500Y-6041000D01*
X12814500Y-5991000D02*
X12914500Y-5991000D01*
X12864500Y-6195000D02*
X12864500Y-6295000D01*
X12814500Y-6245000D02*
X12914500Y-6245000D01*
X12864500Y-6449000D02*
X12864500Y-6549000D01*
X12814500Y-6499000D02*
X12914500Y-6499000D01*
X12864500Y-6703000D02*
X12864500Y-6803000D01*
X12814500Y-6753000D02*
X12914500Y-6753000D01*
X12864500Y-6957000D02*
X12864500Y-7057000D01*
X12814500Y-7007000D02*
X12914500Y-7007000D01*
X12864500Y-7211000D02*
X12864500Y-7311000D01*
X12814500Y-7261000D02*
X12914500Y-7261000D01*
X12864500Y-7465000D02*
X12864500Y-7565000D01*
X12814500Y-7515000D02*
X12914500Y-7515000D01*
X12864500Y-7719000D02*
X12864500Y-7819000D01*
X12814500Y-7769000D02*
X12914500Y-7769000D01*
X12864500Y-7973000D02*
X12864500Y-8073000D01*
X12814500Y-8023000D02*
X12914500Y-8023000D01*
X12864500Y-8227000D02*
X12864500Y-8327000D01*
X12814500Y-8277000D02*
X12914500Y-8277000D01*
X12864500Y-8481000D02*
X12864500Y-8581000D01*
X12814500Y-8531000D02*
X12914500Y-8531000D01*
D14*
X11996063Y-13451063D02*
X11996063Y-13378937D01*
X11923937Y-13378937D01*
X11923937Y-13451063D01*
X11996063Y-13451063D01*
X11996063Y-14721063D02*
X11996063Y-14648937D01*
X11923937Y-14648937D01*
X11923937Y-14721063D01*
X11996063Y-14721063D01*
D15*
X11769000Y-11471000D02*
X11844000Y-11396000D01*
X11769000Y-11321000D01*
X11694000Y-11396000D01*
X11769000Y-11471000D01*
X12404000Y-11217000D02*
X12479000Y-11142000D01*
X12404000Y-11067000D01*
X12329000Y-11142000D01*
X12404000Y-11217000D01*
X13769000Y-5621000D02*
X13844000Y-5546000D01*
X13769000Y-5471000D01*
X13694000Y-5546000D01*
X13769000Y-5621000D01*
X13769000Y-9518000D02*
X13844000Y-9443000D01*
X13769000Y-9368000D01*
X13694000Y-9443000D01*
X13769000Y-9518000D01*
X13769000Y-11471000D02*
X13844000Y-11396000D01*
X13769000Y-11321000D01*
X13694000Y-11396000D01*
X13769000Y-11471000D01*
X14404000Y-5367000D02*
X14479000Y-5292000D01*
X14404000Y-5217000D01*
X14329000Y-5292000D01*
X14404000Y-5367000D01*
X14404000Y-9264000D02*
X14479000Y-9189000D01*
X14404000Y-9114000D01*
X14329000Y-9189000D01*
X14404000Y-9264000D01*
X14404000Y-11217000D02*
X14479000Y-11142000D01*
X14404000Y-11067000D01*
X14329000Y-11142000D01*
X14404000Y-11217000D01*
X14919000Y-7571000D02*
X14994000Y-7496000D01*
X14919000Y-7421000D01*
X14844000Y-7496000D01*
X14919000Y-7571000D01*
X15554000Y-7317000D02*
X15629000Y-7242000D01*
X15554000Y-7167000D01*
X15479000Y-7242000D01*
X15554000Y-7317000D01*
X16069000Y-5621000D02*
X16144000Y-5546000D01*
X16069000Y-5471000D01*
X15994000Y-5546000D01*
X16069000Y-5621000D01*
X16069000Y-9521000D02*
X16144000Y-9446000D01*
X16069000Y-9371000D01*
X15994000Y-9446000D01*
X16069000Y-9521000D01*
X16069000Y-11471000D02*
X16144000Y-11396000D01*
X16069000Y-11321000D01*
X15994000Y-11396000D01*
X16069000Y-11471000D01*
X16704000Y-5367000D02*
X16779000Y-5292000D01*
X16704000Y-5217000D01*
X16629000Y-5292000D01*
X16704000Y-5367000D01*
X16704000Y-9267000D02*
X16779000Y-9192000D01*
X16704000Y-9117000D01*
X16629000Y-9192000D01*
X16704000Y-9267000D01*
X16704000Y-11217000D02*
X16779000Y-11142000D01*
X16704000Y-11067000D01*
X16629000Y-11142000D01*
X16704000Y-11217000D01*
D11*
X11076619Y-15835476D02*
X11076619Y-15635476D01*
X11124238Y-15635476D01*
X11152810Y-15645000D01*
X11171857Y-15664048D01*
X11181381Y-15683095D01*
X11190905Y-15721190D01*
X11190905Y-15749762D01*
X11181381Y-15787857D01*
X11171857Y-15806905D01*
X11152810Y-15825952D01*
X11124238Y-15835476D01*
X11076619Y-15835476D01*
X11276619Y-15835476D02*
X11276619Y-15702143D01*
X11276619Y-15740238D02*
X11286143Y-15721190D01*
X11295667Y-15711667D01*
X11314714Y-15702143D01*
X11333762Y-15702143D01*
X11400428Y-15835476D02*
X11400428Y-15702143D01*
X11400428Y-15635476D02*
X11390905Y-15645000D01*
X11400428Y-15654524D01*
X11409952Y-15645000D01*
X11400428Y-15635476D01*
X11400428Y-15654524D01*
X11524238Y-15835476D02*
X11505190Y-15825952D01*
X11495667Y-15806905D01*
X11495667Y-15635476D01*
X11629000Y-15835476D02*
X11609952Y-15825952D01*
X11600428Y-15806905D01*
X11600428Y-15635476D01*
X11857571Y-15835476D02*
X11857571Y-15635476D01*
X11924238Y-15778333D01*
X11990905Y-15635476D01*
X11990905Y-15835476D01*
X12171857Y-15835476D02*
X12171857Y-15730714D01*
X12162333Y-15711667D01*
X12143286Y-15702143D01*
X12105190Y-15702143D01*
X12086143Y-15711667D01*
X12171857Y-15825952D02*
X12152809Y-15835476D01*
X12105190Y-15835476D01*
X12086143Y-15825952D01*
X12076619Y-15806905D01*
X12076619Y-15787857D01*
X12086143Y-15768809D01*
X12105190Y-15759286D01*
X12152809Y-15759286D01*
X12171857Y-15749762D01*
X12267095Y-15702143D02*
X12267095Y-15902143D01*
X12267095Y-15711667D02*
X12286143Y-15702143D01*
X12324238Y-15702143D01*
X12343286Y-15711667D01*
X12352809Y-15721190D01*
X12362333Y-15740238D01*
X12362333Y-15797381D01*
X12352809Y-15816428D01*
X12343286Y-15825952D01*
X12324238Y-15835476D01*
X12286143Y-15835476D01*
X12267095Y-15825952D01*
X12448048Y-15816428D02*
X12457571Y-15825952D01*
X12448048Y-15835476D01*
X12438524Y-15825952D01*
X12448048Y-15816428D01*
X12448048Y-15835476D01*
X12448048Y-15711667D02*
X12457571Y-15721190D01*
X12448048Y-15730714D01*
X12438524Y-15721190D01*
X12448048Y-15711667D01*
X12448048Y-15730714D01*
D12*
X10779000Y-16145000D02*
X10819000Y-16185000D01*
X10819000Y-16145000D02*
X10779000Y-16185000D01*
D11*
X11114714Y-16055476D02*
X11133762Y-16055476D01*
X11152810Y-16065000D01*
X11162333Y-16074524D01*
X11171857Y-16093571D01*
X11181381Y-16131667D01*
X11181381Y-16179286D01*
X11171857Y-16217381D01*
X11162333Y-16236428D01*
X11152810Y-16245952D01*
X11133762Y-16255476D01*
X11114714Y-16255476D01*
X11095667Y-16245952D01*
X11086143Y-16236428D01*
X11076619Y-16217381D01*
X11067095Y-16179286D01*
X11067095Y-16131667D01*
X11076619Y-16093571D01*
X11086143Y-16074524D01*
X11095667Y-16065000D01*
X11114714Y-16055476D01*
X11267095Y-16236428D02*
X11276619Y-16245952D01*
X11267095Y-16255476D01*
X11257571Y-16245952D01*
X11267095Y-16236428D01*
X11267095Y-16255476D01*
X11448048Y-16122143D02*
X11448048Y-16255476D01*
X11400428Y-16045952D02*
X11352809Y-16188809D01*
X11476619Y-16188809D01*
X11590905Y-16055476D02*
X11609952Y-16055476D01*
X11629000Y-16065000D01*
X11638524Y-16074524D01*
X11648048Y-16093571D01*
X11657571Y-16131667D01*
X11657571Y-16179286D01*
X11648048Y-16217381D01*
X11638524Y-16236428D01*
X11629000Y-16245952D01*
X11609952Y-16255476D01*
X11590905Y-16255476D01*
X11571857Y-16245952D01*
X11562333Y-16236428D01*
X11552809Y-16217381D01*
X11543286Y-16179286D01*
X11543286Y-16131667D01*
X11552809Y-16093571D01*
X11562333Y-16074524D01*
X11571857Y-16065000D01*
X11590905Y-16055476D01*
X11781381Y-16055476D02*
X11800428Y-16055476D01*
X11819476Y-16065000D01*
X11829000Y-16074524D01*
X11838524Y-16093571D01*
X11848048Y-16131667D01*
X11848048Y-16179286D01*
X11838524Y-16217381D01*
X11829000Y-16236428D01*
X11819476Y-16245952D01*
X11800428Y-16255476D01*
X11781381Y-16255476D01*
X11762333Y-16245952D01*
X11752809Y-16236428D01*
X11743286Y-16217381D01*
X11733762Y-16179286D01*
X11733762Y-16131667D01*
X11743286Y-16093571D01*
X11752809Y-16074524D01*
X11762333Y-16065000D01*
X11781381Y-16055476D01*
X11933762Y-16255476D02*
X11933762Y-16122143D01*
X11933762Y-16141190D02*
X11943286Y-16131667D01*
X11962333Y-16122143D01*
X11990905Y-16122143D01*
X12009952Y-16131667D01*
X12019476Y-16150714D01*
X12019476Y-16255476D01*
X12019476Y-16150714D02*
X12029000Y-16131667D01*
X12048048Y-16122143D01*
X12076619Y-16122143D01*
X12095667Y-16131667D01*
X12105190Y-16150714D01*
X12105190Y-16255476D01*
X12200428Y-16255476D02*
X12200428Y-16122143D01*
X12200428Y-16141190D02*
X12209952Y-16131667D01*
X12229000Y-16122143D01*
X12257571Y-16122143D01*
X12276619Y-16131667D01*
X12286143Y-16150714D01*
X12286143Y-16255476D01*
X12286143Y-16150714D02*
X12295667Y-16131667D01*
X12314714Y-16122143D01*
X12343286Y-16122143D01*
X12362333Y-16131667D01*
X12371857Y-16150714D01*
X12371857Y-16255476D01*
X12762333Y-16045952D02*
X12590905Y-16303095D01*
X13019476Y-16055476D02*
X13038524Y-16055476D01*
X13057571Y-16065000D01*
X13067095Y-16074524D01*
X13076619Y-16093571D01*
X13086143Y-16131667D01*
X13086143Y-16179286D01*
X13076619Y-16217381D01*
X13067095Y-16236428D01*
X13057571Y-16245952D01*
X13038524Y-16255476D01*
X13019476Y-16255476D01*
X13000428Y-16245952D01*
X12990905Y-16236428D01*
X12981381Y-16217381D01*
X12971857Y-16179286D01*
X12971857Y-16131667D01*
X12981381Y-16093571D01*
X12990905Y-16074524D01*
X13000428Y-16065000D01*
X13019476Y-16055476D01*
X13171857Y-16236428D02*
X13181381Y-16245952D01*
X13171857Y-16255476D01*
X13162333Y-16245952D01*
X13171857Y-16236428D01*
X13171857Y-16255476D01*
X13305190Y-16055476D02*
X13324238Y-16055476D01*
X13343286Y-16065000D01*
X13352809Y-16074524D01*
X13362333Y-16093571D01*
X13371857Y-16131667D01*
X13371857Y-16179286D01*
X13362333Y-16217381D01*
X13352809Y-16236428D01*
X13343286Y-16245952D01*
X13324238Y-16255476D01*
X13305190Y-16255476D01*
X13286143Y-16245952D01*
X13276619Y-16236428D01*
X13267095Y-16217381D01*
X13257571Y-16179286D01*
X13257571Y-16131667D01*
X13267095Y-16093571D01*
X13276619Y-16074524D01*
X13286143Y-16065000D01*
X13305190Y-16055476D01*
X13562333Y-16255476D02*
X13448048Y-16255476D01*
X13505190Y-16255476D02*
X13505190Y-16055476D01*
X13486143Y-16084048D01*
X13467095Y-16103095D01*
X13448048Y-16112619D01*
X13743286Y-16055476D02*
X13648048Y-16055476D01*
X13638524Y-16150714D01*
X13648048Y-16141190D01*
X13667095Y-16131667D01*
X13714714Y-16131667D01*
X13733762Y-16141190D01*
X13743286Y-16150714D01*
X13752809Y-16169762D01*
X13752809Y-16217381D01*
X13743286Y-16236428D01*
X13733762Y-16245952D01*
X13714714Y-16255476D01*
X13667095Y-16255476D01*
X13648048Y-16245952D01*
X13638524Y-16236428D01*
X13819476Y-16055476D02*
X13952809Y-16055476D01*
X13867095Y-16255476D01*
X14019476Y-16055476D02*
X14019476Y-16093571D01*
X14095667Y-16055476D02*
X14095667Y-16093571D01*
X14390905Y-16331667D02*
X14381381Y-16322143D01*
X14362333Y-16293571D01*
X14352809Y-16274524D01*
X14343286Y-16245952D01*
X14333762Y-16198333D01*
X14333762Y-16160238D01*
X14343286Y-16112619D01*
X14352809Y-16084048D01*
X14362333Y-16065000D01*
X14381381Y-16036428D01*
X14390905Y-16026905D01*
X14571857Y-16255476D02*
X14457571Y-16255476D01*
X14514714Y-16255476D02*
X14514714Y-16055476D01*
X14495667Y-16084048D01*
X14476619Y-16103095D01*
X14457571Y-16112619D01*
X14686143Y-16141190D02*
X14667095Y-16131667D01*
X14657571Y-16122143D01*
X14648048Y-16103095D01*
X14648048Y-16093571D01*
X14657571Y-16074524D01*
X14667095Y-16065000D01*
X14686143Y-16055476D01*
X14724238Y-16055476D01*
X14743286Y-16065000D01*
X14752809Y-16074524D01*
X14762333Y-16093571D01*
X14762333Y-16103095D01*
X14752809Y-16122143D01*
X14743286Y-16131667D01*
X14724238Y-16141190D01*
X14686143Y-16141190D01*
X14667095Y-16150714D01*
X14657571Y-16160238D01*
X14648048Y-16179286D01*
X14648048Y-16217381D01*
X14657571Y-16236428D01*
X14667095Y-16245952D01*
X14686143Y-16255476D01*
X14724238Y-16255476D01*
X14743286Y-16245952D01*
X14752809Y-16236428D01*
X14762333Y-16217381D01*
X14762333Y-16179286D01*
X14752809Y-16160238D01*
X14743286Y-16150714D01*
X14724238Y-16141190D01*
X15000428Y-16255476D02*
X15000428Y-16055476D01*
X15086143Y-16255476D02*
X15086143Y-16150714D01*
X15076619Y-16131667D01*
X15057571Y-16122143D01*
X15029000Y-16122143D01*
X15009952Y-16131667D01*
X15000428Y-16141190D01*
X15209952Y-16255476D02*
X15190905Y-16245952D01*
X15181381Y-16236428D01*
X15171857Y-16217381D01*
X15171857Y-16160238D01*
X15181381Y-16141190D01*
X15190905Y-16131667D01*
X15209952Y-16122143D01*
X15238524Y-16122143D01*
X15257571Y-16131667D01*
X15267095Y-16141190D01*
X15276619Y-16160238D01*
X15276619Y-16217381D01*
X15267095Y-16236428D01*
X15257571Y-16245952D01*
X15238524Y-16255476D01*
X15209952Y-16255476D01*
X15390905Y-16255476D02*
X15371857Y-16245952D01*
X15362333Y-16226905D01*
X15362333Y-16055476D01*
X15543286Y-16245952D02*
X15524238Y-16255476D01*
X15486143Y-16255476D01*
X15467095Y-16245952D01*
X15457571Y-16226905D01*
X15457571Y-16150714D01*
X15467095Y-16131667D01*
X15486143Y-16122143D01*
X15524238Y-16122143D01*
X15543286Y-16131667D01*
X15552809Y-16150714D01*
X15552809Y-16169762D01*
X15457571Y-16188809D01*
X15629000Y-16245952D02*
X15648048Y-16255476D01*
X15686143Y-16255476D01*
X15705190Y-16245952D01*
X15714714Y-16226905D01*
X15714714Y-16217381D01*
X15705190Y-16198333D01*
X15686143Y-16188809D01*
X15657571Y-16188809D01*
X15638524Y-16179286D01*
X15629000Y-16160238D01*
X15629000Y-16150714D01*
X15638524Y-16131667D01*
X15657571Y-16122143D01*
X15686143Y-16122143D01*
X15705190Y-16131667D01*
X15781381Y-16331667D02*
X15790905Y-16322143D01*
X15809952Y-16293571D01*
X15819476Y-16274524D01*
X15829000Y-16245952D01*
X15838524Y-16198333D01*
X15838524Y-16160238D01*
X15829000Y-16112619D01*
X15819476Y-16084048D01*
X15809952Y-16065000D01*
X15790905Y-16036428D01*
X15781381Y-16026905D01*
D13*
X10819000Y-16429000D02*
G75*
G03*
X10819000Y-16429000I-38100J0D01*
G01*
D11*
X11114714Y-16319476D02*
X11133762Y-16319476D01*
X11152810Y-16329000D01*
X11162333Y-16338524D01*
X11171857Y-16357571D01*
X11181381Y-16395667D01*
X11181381Y-16443286D01*
X11171857Y-16481381D01*
X11162333Y-16500428D01*
X11152810Y-16509952D01*
X11133762Y-16519476D01*
X11114714Y-16519476D01*
X11095667Y-16509952D01*
X11086143Y-16500428D01*
X11076619Y-16481381D01*
X11067095Y-16443286D01*
X11067095Y-16395667D01*
X11076619Y-16357571D01*
X11086143Y-16338524D01*
X11095667Y-16329000D01*
X11114714Y-16319476D01*
X11267095Y-16500428D02*
X11276619Y-16509952D01*
X11267095Y-16519476D01*
X11257571Y-16509952D01*
X11267095Y-16500428D01*
X11267095Y-16519476D01*
X11343286Y-16319476D02*
X11476619Y-16319476D01*
X11390905Y-16519476D01*
X11638524Y-16319476D02*
X11600428Y-16319476D01*
X11581381Y-16329000D01*
X11571857Y-16338524D01*
X11552809Y-16367095D01*
X11543286Y-16405190D01*
X11543286Y-16481381D01*
X11552809Y-16500428D01*
X11562333Y-16509952D01*
X11581381Y-16519476D01*
X11619476Y-16519476D01*
X11638524Y-16509952D01*
X11648048Y-16500428D01*
X11657571Y-16481381D01*
X11657571Y-16433762D01*
X11648048Y-16414714D01*
X11638524Y-16405190D01*
X11619476Y-16395667D01*
X11581381Y-16395667D01*
X11562333Y-16405190D01*
X11552809Y-16414714D01*
X11543286Y-16433762D01*
X11733762Y-16338524D02*
X11743286Y-16329000D01*
X11762333Y-16319476D01*
X11809952Y-16319476D01*
X11829000Y-16329000D01*
X11838524Y-16338524D01*
X11848048Y-16357571D01*
X11848048Y-16376619D01*
X11838524Y-16405190D01*
X11724238Y-16519476D01*
X11848048Y-16519476D01*
X11933762Y-16519476D02*
X11933762Y-16386143D01*
X11933762Y-16405190D02*
X11943286Y-16395667D01*
X11962333Y-16386143D01*
X11990905Y-16386143D01*
X12009952Y-16395667D01*
X12019476Y-16414714D01*
X12019476Y-16519476D01*
X12019476Y-16414714D02*
X12029000Y-16395667D01*
X12048048Y-16386143D01*
X12076619Y-16386143D01*
X12095667Y-16395667D01*
X12105190Y-16414714D01*
X12105190Y-16519476D01*
X12200428Y-16519476D02*
X12200428Y-16386143D01*
X12200428Y-16405190D02*
X12209952Y-16395667D01*
X12229000Y-16386143D01*
X12257571Y-16386143D01*
X12276619Y-16395667D01*
X12286143Y-16414714D01*
X12286143Y-16519476D01*
X12286143Y-16414714D02*
X12295667Y-16395667D01*
X12314714Y-16386143D01*
X12343286Y-16386143D01*
X12362333Y-16395667D01*
X12371857Y-16414714D01*
X12371857Y-16519476D01*
X12762333Y-16309952D02*
X12590905Y-16567095D01*
X13019476Y-16319476D02*
X13038524Y-16319476D01*
X13057571Y-16329000D01*
X13067095Y-16338524D01*
X13076619Y-16357571D01*
X13086143Y-16395667D01*
X13086143Y-16443286D01*
X13076619Y-16481381D01*
X13067095Y-16500428D01*
X13057571Y-16509952D01*
X13038524Y-16519476D01*
X13019476Y-16519476D01*
X13000428Y-16509952D01*
X12990905Y-16500428D01*
X12981381Y-16481381D01*
X12971857Y-16443286D01*
X12971857Y-16395667D01*
X12981381Y-16357571D01*
X12990905Y-16338524D01*
X13000428Y-16329000D01*
X13019476Y-16319476D01*
X13171857Y-16500428D02*
X13181381Y-16509952D01*
X13171857Y-16519476D01*
X13162333Y-16509952D01*
X13171857Y-16500428D01*
X13171857Y-16519476D01*
X13305190Y-16319476D02*
X13324238Y-16319476D01*
X13343286Y-16329000D01*
X13352809Y-16338524D01*
X13362333Y-16357571D01*
X13371857Y-16395667D01*
X13371857Y-16443286D01*
X13362333Y-16481381D01*
X13352809Y-16500428D01*
X13343286Y-16509952D01*
X13324238Y-16519476D01*
X13305190Y-16519476D01*
X13286143Y-16509952D01*
X13276619Y-16500428D01*
X13267095Y-16481381D01*
X13257571Y-16443286D01*
X13257571Y-16395667D01*
X13267095Y-16357571D01*
X13276619Y-16338524D01*
X13286143Y-16329000D01*
X13305190Y-16319476D01*
X13438524Y-16319476D02*
X13562333Y-16319476D01*
X13495667Y-16395667D01*
X13524238Y-16395667D01*
X13543286Y-16405190D01*
X13552809Y-16414714D01*
X13562333Y-16433762D01*
X13562333Y-16481381D01*
X13552809Y-16500428D01*
X13543286Y-16509952D01*
X13524238Y-16519476D01*
X13467095Y-16519476D01*
X13448048Y-16509952D01*
X13438524Y-16500428D01*
X13686143Y-16319476D02*
X13705190Y-16319476D01*
X13724238Y-16329000D01*
X13733762Y-16338524D01*
X13743286Y-16357571D01*
X13752809Y-16395667D01*
X13752809Y-16443286D01*
X13743286Y-16481381D01*
X13733762Y-16500428D01*
X13724238Y-16509952D01*
X13705190Y-16519476D01*
X13686143Y-16519476D01*
X13667095Y-16509952D01*
X13657571Y-16500428D01*
X13648048Y-16481381D01*
X13638524Y-16443286D01*
X13638524Y-16395667D01*
X13648048Y-16357571D01*
X13657571Y-16338524D01*
X13667095Y-16329000D01*
X13686143Y-16319476D01*
X13876619Y-16319476D02*
X13895667Y-16319476D01*
X13914714Y-16329000D01*
X13924238Y-16338524D01*
X13933762Y-16357571D01*
X13943286Y-16395667D01*
X13943286Y-16443286D01*
X13933762Y-16481381D01*
X13924238Y-16500428D01*
X13914714Y-16509952D01*
X13895667Y-16519476D01*
X13876619Y-16519476D01*
X13857571Y-16509952D01*
X13848048Y-16500428D01*
X13838524Y-16481381D01*
X13829000Y-16443286D01*
X13829000Y-16395667D01*
X13838524Y-16357571D01*
X13848048Y-16338524D01*
X13857571Y-16329000D01*
X13876619Y-16319476D01*
X14019476Y-16319476D02*
X14019476Y-16357571D01*
X14095667Y-16319476D02*
X14095667Y-16357571D01*
X14390905Y-16595667D02*
X14381381Y-16586143D01*
X14362333Y-16557571D01*
X14352809Y-16538524D01*
X14343286Y-16509952D01*
X14333762Y-16462333D01*
X14333762Y-16424238D01*
X14343286Y-16376619D01*
X14352809Y-16348048D01*
X14362333Y-16329000D01*
X14381381Y-16300428D01*
X14390905Y-16290905D01*
X14562333Y-16319476D02*
X14467095Y-16319476D01*
X14457571Y-16414714D01*
X14467095Y-16405190D01*
X14486143Y-16395667D01*
X14533762Y-16395667D01*
X14552809Y-16405190D01*
X14562333Y-16414714D01*
X14571857Y-16433762D01*
X14571857Y-16481381D01*
X14562333Y-16500428D01*
X14552809Y-16509952D01*
X14533762Y-16519476D01*
X14486143Y-16519476D01*
X14467095Y-16509952D01*
X14457571Y-16500428D01*
X14809952Y-16519476D02*
X14809952Y-16319476D01*
X14895667Y-16519476D02*
X14895667Y-16414714D01*
X14886143Y-16395667D01*
X14867095Y-16386143D01*
X14838524Y-16386143D01*
X14819476Y-16395667D01*
X14809952Y-16405190D01*
X15019476Y-16519476D02*
X15000428Y-16509952D01*
X14990905Y-16500428D01*
X14981381Y-16481381D01*
X14981381Y-16424238D01*
X14990905Y-16405190D01*
X15000428Y-16395667D01*
X15019476Y-16386143D01*
X15048048Y-16386143D01*
X15067095Y-16395667D01*
X15076619Y-16405190D01*
X15086143Y-16424238D01*
X15086143Y-16481381D01*
X15076619Y-16500428D01*
X15067095Y-16509952D01*
X15048048Y-16519476D01*
X15019476Y-16519476D01*
X15200428Y-16519476D02*
X15181381Y-16509952D01*
X15171857Y-16490905D01*
X15171857Y-16319476D01*
X15352809Y-16509952D02*
X15333762Y-16519476D01*
X15295667Y-16519476D01*
X15276619Y-16509952D01*
X15267095Y-16490905D01*
X15267095Y-16414714D01*
X15276619Y-16395667D01*
X15295667Y-16386143D01*
X15333762Y-16386143D01*
X15352809Y-16395667D01*
X15362333Y-16414714D01*
X15362333Y-16433762D01*
X15267095Y-16452809D01*
X15438524Y-16509952D02*
X15457571Y-16519476D01*
X15495667Y-16519476D01*
X15514714Y-16509952D01*
X15524238Y-16490905D01*
X15524238Y-16481381D01*
X15514714Y-16462333D01*
X15495667Y-16452809D01*
X15467095Y-16452809D01*
X15448048Y-16443286D01*
X15438524Y-16424238D01*
X15438524Y-16414714D01*
X15448048Y-16395667D01*
X15467095Y-16386143D01*
X15495667Y-16386143D01*
X15514714Y-16395667D01*
X15590905Y-16595667D02*
X15600428Y-16586143D01*
X15619476Y-16557571D01*
X15629000Y-16538524D01*
X15638524Y-16509952D01*
X15648048Y-16462333D01*
X15648048Y-16424238D01*
X15638524Y-16376619D01*
X15629000Y-16348048D01*
X15619476Y-16329000D01*
X15600428Y-16300428D01*
X15590905Y-16290905D01*
D10*
X10769000Y-16643000D02*
X10769000Y-16743000D01*
X10719000Y-16693000D02*
X10819000Y-16693000D01*
D11*
X11181381Y-16783476D02*
X11067095Y-16783476D01*
X11124238Y-16783476D02*
X11124238Y-16583476D01*
X11105190Y-16612048D01*
X11086143Y-16631095D01*
X11067095Y-16640619D01*
X11267095Y-16764428D02*
X11276619Y-16773952D01*
X11267095Y-16783476D01*
X11257571Y-16773952D01*
X11267095Y-16764428D01*
X11267095Y-16783476D01*
X11400428Y-16583476D02*
X11419476Y-16583476D01*
X11438524Y-16593000D01*
X11448048Y-16602524D01*
X11457571Y-16621571D01*
X11467095Y-16659667D01*
X11467095Y-16707286D01*
X11457571Y-16745381D01*
X11448048Y-16764428D01*
X11438524Y-16773952D01*
X11419476Y-16783476D01*
X11400428Y-16783476D01*
X11381381Y-16773952D01*
X11371857Y-16764428D01*
X11362333Y-16745381D01*
X11352809Y-16707286D01*
X11352809Y-16659667D01*
X11362333Y-16621571D01*
X11371857Y-16602524D01*
X11381381Y-16593000D01*
X11400428Y-16583476D01*
X11590905Y-16583476D02*
X11609952Y-16583476D01*
X11629000Y-16593000D01*
X11638524Y-16602524D01*
X11648048Y-16621571D01*
X11657571Y-16659667D01*
X11657571Y-16707286D01*
X11648048Y-16745381D01*
X11638524Y-16764428D01*
X11629000Y-16773952D01*
X11609952Y-16783476D01*
X11590905Y-16783476D01*
X11571857Y-16773952D01*
X11562333Y-16764428D01*
X11552809Y-16745381D01*
X11543286Y-16707286D01*
X11543286Y-16659667D01*
X11552809Y-16621571D01*
X11562333Y-16602524D01*
X11571857Y-16593000D01*
X11590905Y-16583476D01*
X11781381Y-16583476D02*
X11800428Y-16583476D01*
X11819476Y-16593000D01*
X11829000Y-16602524D01*
X11838524Y-16621571D01*
X11848048Y-16659667D01*
X11848048Y-16707286D01*
X11838524Y-16745381D01*
X11829000Y-16764428D01*
X11819476Y-16773952D01*
X11800428Y-16783476D01*
X11781381Y-16783476D01*
X11762333Y-16773952D01*
X11752809Y-16764428D01*
X11743286Y-16745381D01*
X11733762Y-16707286D01*
X11733762Y-16659667D01*
X11743286Y-16621571D01*
X11752809Y-16602524D01*
X11762333Y-16593000D01*
X11781381Y-16583476D01*
X11933762Y-16783476D02*
X11933762Y-16650143D01*
X11933762Y-16669190D02*
X11943286Y-16659667D01*
X11962333Y-16650143D01*
X11990905Y-16650143D01*
X12009952Y-16659667D01*
X12019476Y-16678714D01*
X12019476Y-16783476D01*
X12019476Y-16678714D02*
X12029000Y-16659667D01*
X12048048Y-16650143D01*
X12076619Y-16650143D01*
X12095667Y-16659667D01*
X12105190Y-16678714D01*
X12105190Y-16783476D01*
X12200428Y-16783476D02*
X12200428Y-16650143D01*
X12200428Y-16669190D02*
X12209952Y-16659667D01*
X12229000Y-16650143D01*
X12257571Y-16650143D01*
X12276619Y-16659667D01*
X12286143Y-16678714D01*
X12286143Y-16783476D01*
X12286143Y-16678714D02*
X12295667Y-16659667D01*
X12314714Y-16650143D01*
X12343286Y-16650143D01*
X12362333Y-16659667D01*
X12371857Y-16678714D01*
X12371857Y-16783476D01*
X12762333Y-16573952D02*
X12590905Y-16831095D01*
X13019476Y-16583476D02*
X13038524Y-16583476D01*
X13057571Y-16593000D01*
X13067095Y-16602524D01*
X13076619Y-16621571D01*
X13086143Y-16659667D01*
X13086143Y-16707286D01*
X13076619Y-16745381D01*
X13067095Y-16764428D01*
X13057571Y-16773952D01*
X13038524Y-16783476D01*
X13019476Y-16783476D01*
X13000428Y-16773952D01*
X12990905Y-16764428D01*
X12981381Y-16745381D01*
X12971857Y-16707286D01*
X12971857Y-16659667D01*
X12981381Y-16621571D01*
X12990905Y-16602524D01*
X13000428Y-16593000D01*
X13019476Y-16583476D01*
X13171857Y-16764428D02*
X13181381Y-16773952D01*
X13171857Y-16783476D01*
X13162333Y-16773952D01*
X13171857Y-16764428D01*
X13171857Y-16783476D01*
X13305190Y-16583476D02*
X13324238Y-16583476D01*
X13343286Y-16593000D01*
X13352809Y-16602524D01*
X13362333Y-16621571D01*
X13371857Y-16659667D01*
X13371857Y-16707286D01*
X13362333Y-16745381D01*
X13352809Y-16764428D01*
X13343286Y-16773952D01*
X13324238Y-16783476D01*
X13305190Y-16783476D01*
X13286143Y-16773952D01*
X13276619Y-16764428D01*
X13267095Y-16745381D01*
X13257571Y-16707286D01*
X13257571Y-16659667D01*
X13267095Y-16621571D01*
X13276619Y-16602524D01*
X13286143Y-16593000D01*
X13305190Y-16583476D01*
X13438524Y-16583476D02*
X13562333Y-16583476D01*
X13495667Y-16659667D01*
X13524238Y-16659667D01*
X13543286Y-16669190D01*
X13552809Y-16678714D01*
X13562333Y-16697762D01*
X13562333Y-16745381D01*
X13552809Y-16764428D01*
X13543286Y-16773952D01*
X13524238Y-16783476D01*
X13467095Y-16783476D01*
X13448048Y-16773952D01*
X13438524Y-16764428D01*
X13657571Y-16783476D02*
X13695667Y-16783476D01*
X13714714Y-16773952D01*
X13724238Y-16764428D01*
X13743286Y-16735857D01*
X13752809Y-16697762D01*
X13752809Y-16621571D01*
X13743286Y-16602524D01*
X13733762Y-16593000D01*
X13714714Y-16583476D01*
X13676619Y-16583476D01*
X13657571Y-16593000D01*
X13648048Y-16602524D01*
X13638524Y-16621571D01*
X13638524Y-16669190D01*
X13648048Y-16688238D01*
X13657571Y-16697762D01*
X13676619Y-16707286D01*
X13714714Y-16707286D01*
X13733762Y-16697762D01*
X13743286Y-16688238D01*
X13752809Y-16669190D01*
X13924238Y-16650143D02*
X13924238Y-16783476D01*
X13876619Y-16573952D02*
X13829000Y-16716809D01*
X13952809Y-16716809D01*
X14019476Y-16583476D02*
X14019476Y-16621571D01*
X14095667Y-16583476D02*
X14095667Y-16621571D01*
X14390905Y-16859667D02*
X14381381Y-16850143D01*
X14362333Y-16821571D01*
X14352809Y-16802524D01*
X14343286Y-16773952D01*
X14333762Y-16726333D01*
X14333762Y-16688238D01*
X14343286Y-16640619D01*
X14352809Y-16612048D01*
X14362333Y-16593000D01*
X14381381Y-16564428D01*
X14390905Y-16554905D01*
X14448048Y-16583476D02*
X14571857Y-16583476D01*
X14505190Y-16659667D01*
X14533762Y-16659667D01*
X14552809Y-16669190D01*
X14562333Y-16678714D01*
X14571857Y-16697762D01*
X14571857Y-16745381D01*
X14562333Y-16764428D01*
X14552809Y-16773952D01*
X14533762Y-16783476D01*
X14476619Y-16783476D01*
X14457571Y-16773952D01*
X14448048Y-16764428D01*
X14695667Y-16583476D02*
X14714714Y-16583476D01*
X14733762Y-16593000D01*
X14743286Y-16602524D01*
X14752809Y-16621571D01*
X14762333Y-16659667D01*
X14762333Y-16707286D01*
X14752809Y-16745381D01*
X14743286Y-16764428D01*
X14733762Y-16773952D01*
X14714714Y-16783476D01*
X14695667Y-16783476D01*
X14676619Y-16773952D01*
X14667095Y-16764428D01*
X14657571Y-16745381D01*
X14648048Y-16707286D01*
X14648048Y-16659667D01*
X14657571Y-16621571D01*
X14667095Y-16602524D01*
X14676619Y-16593000D01*
X14695667Y-16583476D01*
X15000428Y-16783476D02*
X15000428Y-16583476D01*
X15086143Y-16783476D02*
X15086143Y-16678714D01*
X15076619Y-16659667D01*
X15057571Y-16650143D01*
X15029000Y-16650143D01*
X15009952Y-16659667D01*
X15000428Y-16669190D01*
X15209952Y-16783476D02*
X15190905Y-16773952D01*
X15181381Y-16764428D01*
X15171857Y-16745381D01*
X15171857Y-16688238D01*
X15181381Y-16669190D01*
X15190905Y-16659667D01*
X15209952Y-16650143D01*
X15238524Y-16650143D01*
X15257571Y-16659667D01*
X15267095Y-16669190D01*
X15276619Y-16688238D01*
X15276619Y-16745381D01*
X15267095Y-16764428D01*
X15257571Y-16773952D01*
X15238524Y-16783476D01*
X15209952Y-16783476D01*
X15390905Y-16783476D02*
X15371857Y-16773952D01*
X15362333Y-16754905D01*
X15362333Y-16583476D01*
X15543286Y-16773952D02*
X15524238Y-16783476D01*
X15486143Y-16783476D01*
X15467095Y-16773952D01*
X15457571Y-16754905D01*
X15457571Y-16678714D01*
X15467095Y-16659667D01*
X15486143Y-16650143D01*
X15524238Y-16650143D01*
X15543286Y-16659667D01*
X15552809Y-16678714D01*
X15552809Y-16697762D01*
X15457571Y-16716809D01*
X15629000Y-16773952D02*
X15648048Y-16783476D01*
X15686143Y-16783476D01*
X15705190Y-16773952D01*
X15714714Y-16754905D01*
X15714714Y-16745381D01*
X15705190Y-16726333D01*
X15686143Y-16716809D01*
X15657571Y-16716809D01*
X15638524Y-16707286D01*
X15629000Y-16688238D01*
X15629000Y-16678714D01*
X15638524Y-16659667D01*
X15657571Y-16650143D01*
X15686143Y-16650143D01*
X15705190Y-16659667D01*
X15781381Y-16859667D02*
X15790905Y-16850143D01*
X15809952Y-16821571D01*
X15819476Y-16802524D01*
X15829000Y-16773952D01*
X15838524Y-16726333D01*
X15838524Y-16688238D01*
X15829000Y-16640619D01*
X15819476Y-16612048D01*
X15809952Y-16593000D01*
X15790905Y-16564428D01*
X15781381Y-16554905D01*
D14*
X10804063Y-16993063D02*
X10804063Y-16920937D01*
X10731937Y-16920937D01*
X10731937Y-16993063D01*
X10804063Y-16993063D01*
D11*
X11181381Y-17047476D02*
X11067095Y-17047476D01*
X11124238Y-17047476D02*
X11124238Y-16847476D01*
X11105190Y-16876048D01*
X11086143Y-16895095D01*
X11067095Y-16904619D01*
X11267095Y-17028429D02*
X11276619Y-17037952D01*
X11267095Y-17047476D01*
X11257571Y-17037952D01*
X11267095Y-17028429D01*
X11267095Y-17047476D01*
X11400428Y-16847476D02*
X11419476Y-16847476D01*
X11438524Y-16857000D01*
X11448048Y-16866524D01*
X11457571Y-16885571D01*
X11467095Y-16923667D01*
X11467095Y-16971286D01*
X11457571Y-17009381D01*
X11448048Y-17028429D01*
X11438524Y-17037952D01*
X11419476Y-17047476D01*
X11400428Y-17047476D01*
X11381381Y-17037952D01*
X11371857Y-17028429D01*
X11362333Y-17009381D01*
X11352809Y-16971286D01*
X11352809Y-16923667D01*
X11362333Y-16885571D01*
X11371857Y-16866524D01*
X11381381Y-16857000D01*
X11400428Y-16847476D01*
X11543286Y-16866524D02*
X11552809Y-16857000D01*
X11571857Y-16847476D01*
X11619476Y-16847476D01*
X11638524Y-16857000D01*
X11648048Y-16866524D01*
X11657571Y-16885571D01*
X11657571Y-16904619D01*
X11648048Y-16933190D01*
X11533762Y-17047476D01*
X11657571Y-17047476D01*
X11781381Y-16847476D02*
X11800428Y-16847476D01*
X11819476Y-16857000D01*
X11829000Y-16866524D01*
X11838524Y-16885571D01*
X11848048Y-16923667D01*
X11848048Y-16971286D01*
X11838524Y-17009381D01*
X11829000Y-17028429D01*
X11819476Y-17037952D01*
X11800428Y-17047476D01*
X11781381Y-17047476D01*
X11762333Y-17037952D01*
X11752809Y-17028429D01*
X11743286Y-17009381D01*
X11733762Y-16971286D01*
X11733762Y-16923667D01*
X11743286Y-16885571D01*
X11752809Y-16866524D01*
X11762333Y-16857000D01*
X11781381Y-16847476D01*
X11933762Y-17047476D02*
X11933762Y-16914143D01*
X11933762Y-16933190D02*
X11943286Y-16923667D01*
X11962333Y-16914143D01*
X11990905Y-16914143D01*
X12009952Y-16923667D01*
X12019476Y-16942714D01*
X12019476Y-17047476D01*
X12019476Y-16942714D02*
X12029000Y-16923667D01*
X12048048Y-16914143D01*
X12076619Y-16914143D01*
X12095667Y-16923667D01*
X12105190Y-16942714D01*
X12105190Y-17047476D01*
X12200428Y-17047476D02*
X12200428Y-16914143D01*
X12200428Y-16933190D02*
X12209952Y-16923667D01*
X12229000Y-16914143D01*
X12257571Y-16914143D01*
X12276619Y-16923667D01*
X12286143Y-16942714D01*
X12286143Y-17047476D01*
X12286143Y-16942714D02*
X12295667Y-16923667D01*
X12314714Y-16914143D01*
X12343286Y-16914143D01*
X12362333Y-16923667D01*
X12371857Y-16942714D01*
X12371857Y-17047476D01*
X12762333Y-16837952D02*
X12590905Y-17095095D01*
X13019476Y-16847476D02*
X13038524Y-16847476D01*
X13057571Y-16857000D01*
X13067095Y-16866524D01*
X13076619Y-16885571D01*
X13086143Y-16923667D01*
X13086143Y-16971286D01*
X13076619Y-17009381D01*
X13067095Y-17028429D01*
X13057571Y-17037952D01*
X13038524Y-17047476D01*
X13019476Y-17047476D01*
X13000428Y-17037952D01*
X12990905Y-17028429D01*
X12981381Y-17009381D01*
X12971857Y-16971286D01*
X12971857Y-16923667D01*
X12981381Y-16885571D01*
X12990905Y-16866524D01*
X13000428Y-16857000D01*
X13019476Y-16847476D01*
X13171857Y-17028429D02*
X13181381Y-17037952D01*
X13171857Y-17047476D01*
X13162333Y-17037952D01*
X13171857Y-17028429D01*
X13171857Y-17047476D01*
X13305190Y-16847476D02*
X13324238Y-16847476D01*
X13343286Y-16857000D01*
X13352809Y-16866524D01*
X13362333Y-16885571D01*
X13371857Y-16923667D01*
X13371857Y-16971286D01*
X13362333Y-17009381D01*
X13352809Y-17028429D01*
X13343286Y-17037952D01*
X13324238Y-17047476D01*
X13305190Y-17047476D01*
X13286143Y-17037952D01*
X13276619Y-17028429D01*
X13267095Y-17009381D01*
X13257571Y-16971286D01*
X13257571Y-16923667D01*
X13267095Y-16885571D01*
X13276619Y-16866524D01*
X13286143Y-16857000D01*
X13305190Y-16847476D01*
X13543286Y-16914143D02*
X13543286Y-17047476D01*
X13495667Y-16837952D02*
X13448048Y-16980810D01*
X13571857Y-16980810D01*
X13686143Y-16847476D02*
X13705190Y-16847476D01*
X13724238Y-16857000D01*
X13733762Y-16866524D01*
X13743286Y-16885571D01*
X13752809Y-16923667D01*
X13752809Y-16971286D01*
X13743286Y-17009381D01*
X13733762Y-17028429D01*
X13724238Y-17037952D01*
X13705190Y-17047476D01*
X13686143Y-17047476D01*
X13667095Y-17037952D01*
X13657571Y-17028429D01*
X13648048Y-17009381D01*
X13638524Y-16971286D01*
X13638524Y-16923667D01*
X13648048Y-16885571D01*
X13657571Y-16866524D01*
X13667095Y-16857000D01*
X13686143Y-16847476D01*
X13829000Y-16866524D02*
X13838524Y-16857000D01*
X13857571Y-16847476D01*
X13905190Y-16847476D01*
X13924238Y-16857000D01*
X13933762Y-16866524D01*
X13943286Y-16885571D01*
X13943286Y-16904619D01*
X13933762Y-16933190D01*
X13819476Y-17047476D01*
X13943286Y-17047476D01*
X14019476Y-16847476D02*
X14019476Y-16885571D01*
X14095667Y-16847476D02*
X14095667Y-16885571D01*
X14390905Y-17123667D02*
X14381381Y-17114143D01*
X14362333Y-17085571D01*
X14352809Y-17066524D01*
X14343286Y-17037952D01*
X14333762Y-16990333D01*
X14333762Y-16952238D01*
X14343286Y-16904619D01*
X14352809Y-16876048D01*
X14362333Y-16857000D01*
X14381381Y-16828429D01*
X14390905Y-16818905D01*
X14457571Y-16866524D02*
X14467095Y-16857000D01*
X14486143Y-16847476D01*
X14533762Y-16847476D01*
X14552809Y-16857000D01*
X14562333Y-16866524D01*
X14571857Y-16885571D01*
X14571857Y-16904619D01*
X14562333Y-16933190D01*
X14448048Y-17047476D01*
X14571857Y-17047476D01*
X14809952Y-17047476D02*
X14809952Y-16847476D01*
X14895667Y-17047476D02*
X14895667Y-16942714D01*
X14886143Y-16923667D01*
X14867095Y-16914143D01*
X14838524Y-16914143D01*
X14819476Y-16923667D01*
X14809952Y-16933190D01*
X15019476Y-17047476D02*
X15000428Y-17037952D01*
X14990905Y-17028429D01*
X14981381Y-17009381D01*
X14981381Y-16952238D01*
X14990905Y-16933190D01*
X15000428Y-16923667D01*
X15019476Y-16914143D01*
X15048048Y-16914143D01*
X15067095Y-16923667D01*
X15076619Y-16933190D01*
X15086143Y-16952238D01*
X15086143Y-17009381D01*
X15076619Y-17028429D01*
X15067095Y-17037952D01*
X15048048Y-17047476D01*
X15019476Y-17047476D01*
X15200428Y-17047476D02*
X15181381Y-17037952D01*
X15171857Y-17018905D01*
X15171857Y-16847476D01*
X15352809Y-17037952D02*
X15333762Y-17047476D01*
X15295667Y-17047476D01*
X15276619Y-17037952D01*
X15267095Y-17018905D01*
X15267095Y-16942714D01*
X15276619Y-16923667D01*
X15295667Y-16914143D01*
X15333762Y-16914143D01*
X15352809Y-16923667D01*
X15362333Y-16942714D01*
X15362333Y-16961762D01*
X15267095Y-16980810D01*
X15438524Y-17037952D02*
X15457571Y-17047476D01*
X15495667Y-17047476D01*
X15514714Y-17037952D01*
X15524238Y-17018905D01*
X15524238Y-17009381D01*
X15514714Y-16990333D01*
X15495667Y-16980810D01*
X15467095Y-16980810D01*
X15448048Y-16971286D01*
X15438524Y-16952238D01*
X15438524Y-16942714D01*
X15448048Y-16923667D01*
X15467095Y-16914143D01*
X15495667Y-16914143D01*
X15514714Y-16923667D01*
X15590905Y-17123667D02*
X15600428Y-17114143D01*
X15619476Y-17085571D01*
X15629000Y-17066524D01*
X15638524Y-17037952D01*
X15648048Y-16990333D01*
X15648048Y-16952238D01*
X15638524Y-16904619D01*
X15629000Y-16876048D01*
X15619476Y-16857000D01*
X15600428Y-16828429D01*
X15590905Y-16818905D01*
D15*
X10744000Y-17296000D02*
X10819000Y-17221000D01*
X10744000Y-17146000D01*
X10669000Y-17221000D01*
X10744000Y-17296000D01*
D11*
X11181381Y-17311476D02*
X11067095Y-17311476D01*
X11124238Y-17311476D02*
X11124238Y-17111476D01*
X11105190Y-17140048D01*
X11086143Y-17159095D01*
X11067095Y-17168619D01*
X11267095Y-17292429D02*
X11276619Y-17301952D01*
X11267095Y-17311476D01*
X11257571Y-17301952D01*
X11267095Y-17292429D01*
X11267095Y-17311476D01*
X11457571Y-17111476D02*
X11362333Y-17111476D01*
X11352809Y-17206714D01*
X11362333Y-17197190D01*
X11381381Y-17187667D01*
X11429000Y-17187667D01*
X11448048Y-17197190D01*
X11457571Y-17206714D01*
X11467095Y-17225762D01*
X11467095Y-17273381D01*
X11457571Y-17292429D01*
X11448048Y-17301952D01*
X11429000Y-17311476D01*
X11381381Y-17311476D01*
X11362333Y-17301952D01*
X11352809Y-17292429D01*
X11590905Y-17111476D02*
X11609952Y-17111476D01*
X11629000Y-17121000D01*
X11638524Y-17130524D01*
X11648048Y-17149571D01*
X11657571Y-17187667D01*
X11657571Y-17235286D01*
X11648048Y-17273381D01*
X11638524Y-17292429D01*
X11629000Y-17301952D01*
X11609952Y-17311476D01*
X11590905Y-17311476D01*
X11571857Y-17301952D01*
X11562333Y-17292429D01*
X11552809Y-17273381D01*
X11543286Y-17235286D01*
X11543286Y-17187667D01*
X11552809Y-17149571D01*
X11562333Y-17130524D01*
X11571857Y-17121000D01*
X11590905Y-17111476D01*
X11781381Y-17111476D02*
X11800428Y-17111476D01*
X11819476Y-17121000D01*
X11829000Y-17130524D01*
X11838524Y-17149571D01*
X11848048Y-17187667D01*
X11848048Y-17235286D01*
X11838524Y-17273381D01*
X11829000Y-17292429D01*
X11819476Y-17301952D01*
X11800428Y-17311476D01*
X11781381Y-17311476D01*
X11762333Y-17301952D01*
X11752809Y-17292429D01*
X11743286Y-17273381D01*
X11733762Y-17235286D01*
X11733762Y-17187667D01*
X11743286Y-17149571D01*
X11752809Y-17130524D01*
X11762333Y-17121000D01*
X11781381Y-17111476D01*
X11933762Y-17311476D02*
X11933762Y-17178143D01*
X11933762Y-17197190D02*
X11943286Y-17187667D01*
X11962333Y-17178143D01*
X11990905Y-17178143D01*
X12009952Y-17187667D01*
X12019476Y-17206714D01*
X12019476Y-17311476D01*
X12019476Y-17206714D02*
X12029000Y-17187667D01*
X12048048Y-17178143D01*
X12076619Y-17178143D01*
X12095667Y-17187667D01*
X12105190Y-17206714D01*
X12105190Y-17311476D01*
X12200428Y-17311476D02*
X12200428Y-17178143D01*
X12200428Y-17197190D02*
X12209952Y-17187667D01*
X12229000Y-17178143D01*
X12257571Y-17178143D01*
X12276619Y-17187667D01*
X12286143Y-17206714D01*
X12286143Y-17311476D01*
X12286143Y-17206714D02*
X12295667Y-17187667D01*
X12314714Y-17178143D01*
X12343286Y-17178143D01*
X12362333Y-17187667D01*
X12371857Y-17206714D01*
X12371857Y-17311476D01*
X12762333Y-17101952D02*
X12590905Y-17359095D01*
X13019476Y-17111476D02*
X13038524Y-17111476D01*
X13057571Y-17121000D01*
X13067095Y-17130524D01*
X13076619Y-17149571D01*
X13086143Y-17187667D01*
X13086143Y-17235286D01*
X13076619Y-17273381D01*
X13067095Y-17292429D01*
X13057571Y-17301952D01*
X13038524Y-17311476D01*
X13019476Y-17311476D01*
X13000428Y-17301952D01*
X12990905Y-17292429D01*
X12981381Y-17273381D01*
X12971857Y-17235286D01*
X12971857Y-17187667D01*
X12981381Y-17149571D01*
X12990905Y-17130524D01*
X13000428Y-17121000D01*
X13019476Y-17111476D01*
X13171857Y-17292429D02*
X13181381Y-17301952D01*
X13171857Y-17311476D01*
X13162333Y-17301952D01*
X13171857Y-17292429D01*
X13171857Y-17311476D01*
X13305190Y-17111476D02*
X13324238Y-17111476D01*
X13343286Y-17121000D01*
X13352809Y-17130524D01*
X13362333Y-17149571D01*
X13371857Y-17187667D01*
X13371857Y-17235286D01*
X13362333Y-17273381D01*
X13352809Y-17292429D01*
X13343286Y-17301952D01*
X13324238Y-17311476D01*
X13305190Y-17311476D01*
X13286143Y-17301952D01*
X13276619Y-17292429D01*
X13267095Y-17273381D01*
X13257571Y-17235286D01*
X13257571Y-17187667D01*
X13267095Y-17149571D01*
X13276619Y-17130524D01*
X13286143Y-17121000D01*
X13305190Y-17111476D01*
X13552809Y-17111476D02*
X13457571Y-17111476D01*
X13448048Y-17206714D01*
X13457571Y-17197190D01*
X13476619Y-17187667D01*
X13524238Y-17187667D01*
X13543286Y-17197190D01*
X13552809Y-17206714D01*
X13562333Y-17225762D01*
X13562333Y-17273381D01*
X13552809Y-17292429D01*
X13543286Y-17301952D01*
X13524238Y-17311476D01*
X13476619Y-17311476D01*
X13457571Y-17301952D01*
X13448048Y-17292429D01*
X13657571Y-17311476D02*
X13695667Y-17311476D01*
X13714714Y-17301952D01*
X13724238Y-17292429D01*
X13743286Y-17263857D01*
X13752809Y-17225762D01*
X13752809Y-17149571D01*
X13743286Y-17130524D01*
X13733762Y-17121000D01*
X13714714Y-17111476D01*
X13676619Y-17111476D01*
X13657571Y-17121000D01*
X13648048Y-17130524D01*
X13638524Y-17149571D01*
X13638524Y-17197190D01*
X13648048Y-17216238D01*
X13657571Y-17225762D01*
X13676619Y-17235286D01*
X13714714Y-17235286D01*
X13733762Y-17225762D01*
X13743286Y-17216238D01*
X13752809Y-17197190D01*
X13943286Y-17311476D02*
X13829000Y-17311476D01*
X13886143Y-17311476D02*
X13886143Y-17111476D01*
X13867095Y-17140048D01*
X13848048Y-17159095D01*
X13829000Y-17168619D01*
X14019476Y-17111476D02*
X14019476Y-17149571D01*
X14095667Y-17111476D02*
X14095667Y-17149571D01*
X14390905Y-17387667D02*
X14381381Y-17378143D01*
X14362333Y-17349571D01*
X14352809Y-17330524D01*
X14343286Y-17301952D01*
X14333762Y-17254333D01*
X14333762Y-17216238D01*
X14343286Y-17168619D01*
X14352809Y-17140048D01*
X14362333Y-17121000D01*
X14381381Y-17092429D01*
X14390905Y-17082905D01*
X14571857Y-17311476D02*
X14457571Y-17311476D01*
X14514714Y-17311476D02*
X14514714Y-17111476D01*
X14495667Y-17140048D01*
X14476619Y-17159095D01*
X14457571Y-17168619D01*
X14743286Y-17111476D02*
X14705190Y-17111476D01*
X14686143Y-17121000D01*
X14676619Y-17130524D01*
X14657571Y-17159095D01*
X14648048Y-17197190D01*
X14648048Y-17273381D01*
X14657571Y-17292429D01*
X14667095Y-17301952D01*
X14686143Y-17311476D01*
X14724238Y-17311476D01*
X14743286Y-17301952D01*
X14752809Y-17292429D01*
X14762333Y-17273381D01*
X14762333Y-17225762D01*
X14752809Y-17206714D01*
X14743286Y-17197190D01*
X14724238Y-17187667D01*
X14686143Y-17187667D01*
X14667095Y-17197190D01*
X14657571Y-17206714D01*
X14648048Y-17225762D01*
X15000428Y-17311476D02*
X15000428Y-17111476D01*
X15086143Y-17311476D02*
X15086143Y-17206714D01*
X15076619Y-17187667D01*
X15057571Y-17178143D01*
X15029000Y-17178143D01*
X15009952Y-17187667D01*
X15000428Y-17197190D01*
X15209952Y-17311476D02*
X15190905Y-17301952D01*
X15181381Y-17292429D01*
X15171857Y-17273381D01*
X15171857Y-17216238D01*
X15181381Y-17197190D01*
X15190905Y-17187667D01*
X15209952Y-17178143D01*
X15238524Y-17178143D01*
X15257571Y-17187667D01*
X15267095Y-17197190D01*
X15276619Y-17216238D01*
X15276619Y-17273381D01*
X15267095Y-17292429D01*
X15257571Y-17301952D01*
X15238524Y-17311476D01*
X15209952Y-17311476D01*
X15390905Y-17311476D02*
X15371857Y-17301952D01*
X15362333Y-17282905D01*
X15362333Y-17111476D01*
X15543286Y-17301952D02*
X15524238Y-17311476D01*
X15486143Y-17311476D01*
X15467095Y-17301952D01*
X15457571Y-17282905D01*
X15457571Y-17206714D01*
X15467095Y-17187667D01*
X15486143Y-17178143D01*
X15524238Y-17178143D01*
X15543286Y-17187667D01*
X15552809Y-17206714D01*
X15552809Y-17225762D01*
X15457571Y-17244810D01*
X15629000Y-17301952D02*
X15648048Y-17311476D01*
X15686143Y-17311476D01*
X15705190Y-17301952D01*
X15714714Y-17282905D01*
X15714714Y-17273381D01*
X15705190Y-17254333D01*
X15686143Y-17244810D01*
X15657571Y-17244810D01*
X15638524Y-17235286D01*
X15629000Y-17216238D01*
X15629000Y-17206714D01*
X15638524Y-17187667D01*
X15657571Y-17178143D01*
X15686143Y-17178143D01*
X15705190Y-17187667D01*
X15781381Y-17387667D02*
X15790905Y-17378143D01*
X15809952Y-17349571D01*
X15819476Y-17330524D01*
X15829000Y-17301952D01*
X15838524Y-17254333D01*
X15838524Y-17216238D01*
X15829000Y-17168619D01*
X15819476Y-17140048D01*
X15809952Y-17121000D01*
X15790905Y-17092429D01*
X15781381Y-17082905D01*
M02*
