%TF.GenerationSoftware,KiCad,Pcbnew,(6.0.9)*%
%TF.CreationDate,2023-01-10T14:41:21+08:00*%
%TF.ProjectId,keyboard-nano,6b657962-6f61-4726-942d-6e616e6f2e6b,rev?*%
%TF.SameCoordinates,Original*%
%TF.FileFunction,Legend,Bot*%
%TF.FilePolarity,Positive*%
%FSLAX46Y46*%
G04 Gerber Fmt 4.6, Leading zero omitted, Abs format (unit mm)*
G04 Created by KiCad (PCBNEW (6.0.9)) date 2023-01-10 14:41:21*
%MOMM*%
%LPD*%
G01*
G04 APERTURE LIST*
%ADD10C,0.150000*%
%ADD11C,2.286000*%
G04 APERTURE END LIST*
D10*
X165926309Y-128670000D02*
X165069166Y-128670000D01*
X165878690Y-129146190D02*
X165116785Y-129146190D01*
X166069166Y-128717619D02*
X166069166Y-129622380D01*
X165878690Y-128860476D02*
X165878690Y-129146190D01*
X165878690Y-128860476D02*
X165116785Y-128860476D01*
X165116785Y-129146190D01*
X165973928Y-128527142D02*
X166116785Y-128812857D01*
X166307261Y-129003333D01*
X165497738Y-128527142D02*
X165497738Y-129193809D01*
X165592976Y-129384285D01*
X165688214Y-129527142D01*
X165926309Y-129622380D01*
X165831071Y-129289047D02*
X165497738Y-129527142D01*
X165116785Y-129622380D01*
X164640595Y-128908095D02*
X163592976Y-128908095D01*
X164640595Y-129241428D02*
X163592976Y-129241428D01*
X163878690Y-129622380D02*
X163592976Y-129622380D01*
X164164404Y-128574761D02*
X164164404Y-129622380D01*
X164640595Y-128574761D02*
X163592976Y-128574761D01*
X163592976Y-129622380D01*
X164640595Y-128574761D02*
X164640595Y-129193809D01*
X164688214Y-129479523D01*
X162878690Y-129098571D02*
X162259642Y-129098571D01*
X162450119Y-129622380D02*
X162116785Y-129622380D01*
X163354880Y-128908095D02*
X163116785Y-128908095D01*
X163116785Y-129527142D01*
X162878690Y-128765238D02*
X162878690Y-129098571D01*
X162402500Y-129098571D02*
X162402500Y-129574761D01*
X162878690Y-128765238D02*
X162259642Y-128765238D01*
X162259642Y-129098571D01*
X162116785Y-129431904D02*
X162116785Y-129622380D01*
X163212023Y-128527142D02*
X163069166Y-128717619D01*
X162735833Y-129431904D02*
X162926309Y-129622380D01*
X162783452Y-128479523D02*
X162688214Y-128670000D01*
X162307261Y-128479523D02*
X162450119Y-128765238D01*
X162926309Y-129384285D02*
X163164404Y-129479523D01*
X162640595Y-129098571D02*
X162735833Y-129479523D01*
X161212023Y-128860476D02*
X160640595Y-128860476D01*
X161878690Y-128908095D02*
X161450119Y-128908095D01*
X161259642Y-129193809D02*
X160640595Y-129193809D01*
X161878690Y-129289047D02*
X161450119Y-129289047D01*
X160926309Y-129622380D02*
X160640595Y-129622380D01*
X161878690Y-128574761D02*
X161878690Y-129431904D01*
X161878690Y-128574761D02*
X161450119Y-128574761D01*
X161450119Y-129289047D01*
X161212023Y-128527142D02*
X160640595Y-128527142D01*
X160640595Y-129622380D01*
X161212023Y-128574761D02*
X161212023Y-129098571D01*
X161259642Y-129431904D01*
X161497738Y-129622380D01*
X159973928Y-129289047D02*
X159926309Y-129336666D01*
X159973928Y-129384285D01*
X160021547Y-129336666D01*
X159973928Y-129289047D01*
X159973928Y-129384285D01*
X159973928Y-128765238D02*
X159926309Y-128812857D01*
X159973928Y-128860476D01*
X160021547Y-128812857D01*
X159973928Y-128765238D01*
X159973928Y-128860476D01*
X165640595Y-131232380D02*
X166212023Y-131232380D01*
X165926309Y-131232380D02*
X165926309Y-130232380D01*
X166021547Y-130375238D01*
X166116785Y-130470476D01*
X166212023Y-130518095D01*
X165212023Y-131137142D02*
X165164404Y-131184761D01*
X165212023Y-131232380D01*
X165259642Y-131184761D01*
X165212023Y-131137142D01*
X165212023Y-131232380D01*
X164831071Y-130422857D02*
X163688214Y-130422857D01*
X164545357Y-130994285D02*
X163973928Y-130994285D01*
X164259642Y-130089523D02*
X164259642Y-131232380D01*
X164259642Y-130422857D02*
X164354880Y-130565714D01*
X164735833Y-130946666D01*
X164878690Y-130994285D01*
X164259642Y-130422857D02*
X164164404Y-130613333D01*
X163831071Y-130899047D01*
X163640595Y-130994285D01*
X162926309Y-130184761D02*
X162164404Y-130184761D01*
X163402500Y-130280000D02*
X162973928Y-130280000D01*
X163164404Y-130280000D02*
X163164404Y-130899047D01*
X162878690Y-130375238D02*
X162878690Y-130946666D01*
X162545357Y-130518095D02*
X162545357Y-130946666D01*
X162878690Y-130375238D02*
X162259642Y-130375238D01*
X162259642Y-130946666D01*
X162307261Y-131089523D02*
X162164404Y-131232380D01*
X162450119Y-131041904D02*
X162259642Y-131137142D01*
X162545357Y-130184761D02*
X162640595Y-130375238D01*
X162592976Y-130946666D02*
X162735833Y-131137142D01*
X162973928Y-131232380D01*
X162973928Y-130851428D02*
X163402500Y-130946666D01*
X161926309Y-130518095D02*
X160688214Y-130518095D01*
X161926309Y-130851428D02*
X160688214Y-130851428D01*
X161926309Y-131137142D02*
X160688214Y-131137142D01*
X161926309Y-130184761D02*
X161926309Y-131232380D01*
X161926309Y-130184761D02*
X160688214Y-130184761D01*
X160688214Y-131232380D01*
X159640595Y-131232380D02*
X159307261Y-131232380D01*
X159735833Y-130660952D02*
X159497738Y-130899047D01*
X160259642Y-130137142D02*
X160116785Y-130327619D01*
X160021547Y-130851428D02*
X160354880Y-131184761D01*
X159878690Y-130089523D02*
X159878690Y-130565714D01*
X160069166Y-130994285D01*
X160402500Y-130422857D02*
X159212023Y-130422857D01*
X159212023Y-130803809D01*
X159307261Y-131232380D01*
X159878690Y-130232380D02*
X159926309Y-130756190D01*
X158973928Y-130280000D02*
X157735833Y-130280000D01*
X158164404Y-131041904D02*
X157926309Y-131041904D01*
X158592976Y-130089523D02*
X158592976Y-130422857D01*
X158497738Y-130565714D02*
X158497738Y-131232380D01*
X158116785Y-130089523D02*
X158116785Y-130422857D01*
X158926309Y-130565714D02*
X157878690Y-130565714D01*
X157878690Y-131041904D01*
X157069166Y-130470476D02*
X156878690Y-130470476D01*
X157212023Y-130803809D02*
X156450119Y-130803809D01*
X157212023Y-130994285D02*
X156450119Y-130994285D01*
X157212023Y-131184761D02*
X156450119Y-131184761D01*
X157212023Y-130613333D02*
X157212023Y-131232380D01*
X156878690Y-130089523D02*
X156878690Y-130470476D01*
X157354880Y-130660952D02*
X156450119Y-130660952D01*
X156450119Y-131232380D01*
X157164404Y-130184761D02*
X157402500Y-130422857D01*
X156545357Y-130375238D02*
X156831071Y-130518095D01*
X157021547Y-130565714D01*
X157497738Y-130660952D01*
X156545357Y-130184761D02*
X156259642Y-130375238D01*
X155926309Y-130327619D02*
X155307261Y-130327619D01*
X156021547Y-130518095D02*
X155212023Y-130518095D01*
X155497738Y-131137142D02*
X155307261Y-131137142D01*
X155021547Y-131232380D02*
X154783452Y-131232380D01*
X155926309Y-130756190D02*
X155926309Y-131137142D01*
X155640595Y-130089523D02*
X155640595Y-131232380D01*
X155926309Y-130756190D02*
X155307261Y-130756190D01*
X155307261Y-131137142D01*
X155021547Y-130232380D02*
X155021547Y-130899047D01*
X154783452Y-130089523D02*
X154783452Y-131232380D01*
X155831071Y-130137142D02*
X155973928Y-130470476D01*
X154545357Y-131184761D02*
X153307261Y-131184761D01*
X154545357Y-130184761D02*
X154545357Y-131232380D01*
X154545357Y-130184761D02*
X153307261Y-130184761D01*
X153307261Y-131232380D01*
X154164404Y-130422857D02*
X154402500Y-130518095D01*
X154069166Y-130280000D02*
X154307261Y-130518095D01*
X154116785Y-130470476D02*
X153831071Y-130613333D01*
X153450119Y-130756190D01*
X154069166Y-130803809D02*
X153735833Y-130851428D01*
X154164404Y-130375238D02*
X153592976Y-130375238D01*
X153735833Y-130518095D01*
X154021547Y-130613333D01*
X154402500Y-130756190D01*
X154212023Y-130946666D02*
X153640595Y-131041904D01*
X152735833Y-130327619D02*
X151973928Y-130327619D01*
X153069166Y-130899047D02*
X151831071Y-130899047D01*
X152592976Y-131232380D02*
X152212023Y-131232380D01*
X152735833Y-130089523D02*
X152831071Y-130613333D01*
X152069166Y-130613333D01*
X152164404Y-131184761D01*
X151021547Y-130327619D02*
X150450119Y-130327619D01*
X151021547Y-130565714D02*
X150450119Y-130565714D01*
X151069166Y-130708571D02*
X150402499Y-130708571D01*
X151116785Y-130946666D02*
X150354880Y-130946666D01*
X151021547Y-130137142D02*
X151021547Y-130518095D01*
X150735833Y-130708571D02*
X150735833Y-131232380D01*
X151021547Y-130137142D02*
X150450119Y-130137142D01*
X150450119Y-130518095D01*
X151354880Y-130089523D02*
X151354880Y-130851428D01*
X151164404Y-131041904D01*
X151164404Y-130327619D02*
X151259642Y-130565714D01*
X151402499Y-130851428D02*
X151545357Y-131232380D01*
X151545357Y-130375238D02*
X151545357Y-130660952D01*
X151354880Y-130565714D02*
X151450119Y-131041904D01*
X149640595Y-130232380D02*
X148926309Y-130232380D01*
X150116785Y-130375238D02*
X149735833Y-130375238D01*
X149688214Y-130565714D02*
X148878690Y-130565714D01*
X149688214Y-130756190D02*
X148878690Y-130756190D01*
X150069166Y-131232380D02*
X149878690Y-131232380D01*
X149878690Y-130089523D02*
X149878690Y-131232380D01*
X149259642Y-130089523D02*
X149259642Y-130280000D01*
X149069166Y-130280000D02*
X149116785Y-130518095D01*
X149450119Y-130327619D02*
X149402499Y-130565714D01*
X149545357Y-130994285D01*
X148926309Y-131232380D01*
X149735833Y-130708571D02*
X150116785Y-130803809D01*
X149069166Y-130756190D02*
X149164404Y-130994285D01*
X149259642Y-131089523D01*
X149688214Y-131232380D01*
X148021547Y-130375238D02*
X147402499Y-130375238D01*
X148021547Y-130613333D02*
X147450119Y-130613333D01*
X148021547Y-130851428D02*
X147450119Y-130851428D01*
X148021547Y-131137142D02*
X147402499Y-131137142D01*
X147973928Y-130327619D02*
X147973928Y-131232380D01*
X147688214Y-130327619D02*
X147688214Y-131137142D01*
X148402499Y-130899047D02*
X148640595Y-131089523D01*
X148592976Y-130470476D02*
X148450119Y-130565714D01*
X148354880Y-130756190D01*
X148259642Y-130994285D01*
X147735833Y-130137142D02*
X147688214Y-130280000D01*
X148259642Y-130518095D02*
X148497738Y-131041904D01*
X147926309Y-130137142D02*
X148116785Y-130565714D01*
X148592976Y-130280000D02*
X148212023Y-130280000D01*
X148402499Y-130899047D01*
X147021547Y-130232380D02*
X145926309Y-130232380D01*
X146926309Y-130470476D02*
X145973928Y-130470476D01*
X146688214Y-130708571D02*
X146212023Y-130708571D01*
X146688214Y-130327619D02*
X146688214Y-130708571D01*
X146497738Y-130089523D02*
X146497738Y-130232380D01*
X146212023Y-130327619D02*
X146212023Y-130708571D01*
X147021547Y-130232380D02*
X147021547Y-130851428D01*
X147116785Y-131184761D01*
X146878690Y-130851428D02*
X146069166Y-130851428D01*
X146212023Y-131041904D01*
X146402499Y-131137142D01*
X146878690Y-131232380D01*
X146735833Y-130899047D02*
X146592976Y-131041904D01*
X146402499Y-131137142D01*
X145926309Y-131232380D01*
X145307261Y-130280000D02*
X144450119Y-130280000D01*
X145259642Y-130756190D02*
X144497738Y-130756190D01*
X145450119Y-130327619D02*
X145450119Y-131232380D01*
X145259642Y-130470476D02*
X145259642Y-130756190D01*
X145259642Y-130470476D02*
X144497738Y-130470476D01*
X144497738Y-130756190D01*
X145354880Y-130137142D02*
X145497738Y-130422857D01*
X145688214Y-130613333D01*
X144878690Y-130137142D02*
X144878690Y-130803809D01*
X144973928Y-130994285D01*
X145069166Y-131137142D01*
X145307261Y-131232380D01*
X145212023Y-130899047D02*
X144878690Y-131137142D01*
X144497738Y-131232380D01*
X144021547Y-130518095D02*
X142973928Y-130518095D01*
X144021547Y-130851428D02*
X142973928Y-130851428D01*
X143259642Y-131232380D02*
X142973928Y-131232380D01*
X143545357Y-130184761D02*
X143545357Y-131232380D01*
X144021547Y-130184761D02*
X142973928Y-130184761D01*
X142973928Y-131232380D01*
X144021547Y-130184761D02*
X144021547Y-130803809D01*
X144069166Y-131089523D01*
X142640595Y-130946666D02*
X142164404Y-130946666D01*
X142735833Y-131232380D02*
X142402499Y-130232380D01*
X142069166Y-131232380D01*
X141735833Y-131232380D02*
X141735833Y-130565714D01*
X141735833Y-130756190D02*
X141688214Y-130660952D01*
X141640595Y-130613333D01*
X141545357Y-130565714D01*
X141450119Y-130565714D01*
X140688214Y-131232380D02*
X140688214Y-130232380D01*
X140688214Y-131184761D02*
X140783452Y-131232380D01*
X140973928Y-131232380D01*
X141069166Y-131184761D01*
X141116785Y-131137142D01*
X141164404Y-131041904D01*
X141164404Y-130756190D01*
X141116785Y-130660952D01*
X141069166Y-130613333D01*
X140973928Y-130565714D01*
X140783452Y-130565714D01*
X140688214Y-130613333D01*
X139783452Y-130565714D02*
X139783452Y-131232380D01*
X140212023Y-130565714D02*
X140212023Y-131089523D01*
X140164404Y-131184761D01*
X140069166Y-131232380D01*
X139926309Y-131232380D01*
X139831071Y-131184761D01*
X139783452Y-131137142D01*
X139307261Y-131232380D02*
X139307261Y-130565714D01*
X139307261Y-130232380D02*
X139354880Y-130280000D01*
X139307261Y-130327619D01*
X139259642Y-130280000D01*
X139307261Y-130232380D01*
X139307261Y-130327619D01*
X138831071Y-130565714D02*
X138831071Y-131232380D01*
X138831071Y-130660952D02*
X138783452Y-130613333D01*
X138688214Y-130565714D01*
X138545357Y-130565714D01*
X138450119Y-130613333D01*
X138402499Y-130708571D01*
X138402499Y-131232380D01*
X137783452Y-131232380D02*
X137878690Y-131184761D01*
X137926309Y-131137142D01*
X137973928Y-131041904D01*
X137973928Y-130756190D01*
X137926309Y-130660952D01*
X137878690Y-130613333D01*
X137783452Y-130565714D01*
X137640595Y-130565714D01*
X137545357Y-130613333D01*
X137497738Y-130660952D01*
X137450119Y-130756190D01*
X137450119Y-131041904D01*
X137497738Y-131137142D01*
X137545357Y-131184761D01*
X137640595Y-131232380D01*
X137783452Y-131232380D01*
X136259642Y-130565714D02*
X136259642Y-131232380D01*
X136259642Y-130660952D02*
X136212023Y-130613333D01*
X136116785Y-130565714D01*
X135973928Y-130565714D01*
X135878690Y-130613333D01*
X135831071Y-130708571D01*
X135831071Y-131232380D01*
X134926309Y-131232380D02*
X134926309Y-130708571D01*
X134973928Y-130613333D01*
X135069166Y-130565714D01*
X135259642Y-130565714D01*
X135354880Y-130613333D01*
X134926309Y-131184761D02*
X135021547Y-131232380D01*
X135259642Y-131232380D01*
X135354880Y-131184761D01*
X135402499Y-131089523D01*
X135402499Y-130994285D01*
X135354880Y-130899047D01*
X135259642Y-130851428D01*
X135021547Y-130851428D01*
X134926309Y-130803809D01*
X134450119Y-130565714D02*
X134450119Y-131232380D01*
X134450119Y-130660952D02*
X134402499Y-130613333D01*
X134307261Y-130565714D01*
X134164404Y-130565714D01*
X134069166Y-130613333D01*
X134021547Y-130708571D01*
X134021547Y-131232380D01*
X133402499Y-131232380D02*
X133497738Y-131184761D01*
X133545357Y-131137142D01*
X133592976Y-131041904D01*
X133592976Y-130756190D01*
X133545357Y-130660952D01*
X133497738Y-130613333D01*
X133402499Y-130565714D01*
X133259642Y-130565714D01*
X133164404Y-130613333D01*
X133116785Y-130660952D01*
X133069166Y-130756190D01*
X133069166Y-131041904D01*
X133116785Y-131137142D01*
X133164404Y-131184761D01*
X133259642Y-131232380D01*
X133402499Y-131232380D01*
X132212023Y-130375238D02*
X131545357Y-130375238D01*
X132021547Y-130613333D02*
X131545357Y-130613333D01*
X132021547Y-130899047D02*
X131545357Y-130899047D01*
X132545357Y-130327619D02*
X132545357Y-131232380D01*
X132021547Y-130327619D02*
X132021547Y-131232380D01*
X132450119Y-130137142D02*
X132592976Y-130422857D01*
X132783452Y-130613333D01*
X132116785Y-130137142D02*
X132259642Y-130470476D01*
X132402499Y-130613333D01*
X130497738Y-131232380D02*
X130164404Y-131232380D01*
X130592976Y-130660952D02*
X130354880Y-130899047D01*
X131116785Y-130137142D02*
X130973928Y-130327619D01*
X130878690Y-130851428D02*
X131212023Y-131184761D01*
X130735833Y-130089523D02*
X130735833Y-130565714D01*
X130926309Y-130994285D01*
X131259642Y-130422857D02*
X130069166Y-130422857D01*
X130069166Y-130803809D01*
X130164404Y-131232380D01*
X130735833Y-130232380D02*
X130783452Y-130756190D01*
X129831071Y-130375238D02*
X129450119Y-130375238D01*
X129307261Y-130851428D02*
X128640595Y-130851428D01*
X129402499Y-131232380D02*
X128592976Y-131232380D01*
X129783452Y-131232380D02*
X129640595Y-131232380D01*
X129592976Y-130089523D02*
X129592976Y-131232380D01*
X129354880Y-130280000D02*
X129354880Y-130422857D01*
X129021547Y-130089523D02*
X129021547Y-130280000D01*
X129021547Y-130851428D02*
X129021547Y-131184761D01*
X129354880Y-130280000D02*
X128592976Y-130280000D01*
X128592976Y-130422857D01*
X129212023Y-130613333D02*
X129354880Y-130660952D01*
X128878690Y-130280000D02*
X128878690Y-130613333D01*
X128640595Y-130613333D01*
X128592976Y-130518095D01*
X129116785Y-130280000D02*
X129164404Y-130565714D01*
X129450119Y-130660952D02*
X129831071Y-130756190D01*
X128259642Y-130327619D02*
X127640595Y-130327619D01*
X128354880Y-130518095D02*
X127545357Y-130518095D01*
X127831071Y-131137142D02*
X127640595Y-131137142D01*
X127354880Y-131232380D02*
X127116785Y-131232380D01*
X128259642Y-130756190D02*
X128259642Y-131137142D01*
X127973928Y-130089523D02*
X127973928Y-131232380D01*
X128259642Y-130756190D02*
X127640595Y-130756190D01*
X127640595Y-131137142D01*
X127354880Y-130232380D02*
X127354880Y-130899047D01*
X127116785Y-130089523D02*
X127116785Y-131232380D01*
X128164404Y-130137142D02*
X128307261Y-130470476D01*
X126831071Y-130280000D02*
X125688214Y-130280000D01*
X126497738Y-131232380D02*
X125973928Y-131232380D01*
X126497738Y-130660952D02*
X126497738Y-131232380D01*
X126497738Y-130089523D02*
X126497738Y-130470476D01*
X126021547Y-130089523D02*
X126021547Y-130470476D01*
X125973928Y-131041904D02*
X125973928Y-131232380D01*
X125783452Y-130803809D02*
X125688214Y-131089523D01*
X126402499Y-130518095D02*
X126116785Y-130660952D01*
X126735833Y-130803809D02*
X126878690Y-131137142D01*
X125164404Y-130470476D02*
X124164404Y-130470476D01*
X124640595Y-130089523D02*
X124640595Y-130422857D01*
X125164404Y-130137142D02*
X125164404Y-130613333D01*
X125259642Y-130899047D01*
X125402499Y-131232380D01*
X125212023Y-130756190D02*
X124450119Y-130756190D01*
X124450119Y-131232380D01*
X123688214Y-130899047D02*
X123592976Y-130899047D01*
X123497738Y-130994285D01*
X123497738Y-131089523D01*
X123592976Y-131184761D01*
X123688214Y-131184761D01*
X123783452Y-131089523D01*
X123783452Y-130994285D01*
X123688214Y-130899047D01*
X166212023Y-131937619D02*
X166164404Y-131890000D01*
X166069166Y-131842380D01*
X165831071Y-131842380D01*
X165735833Y-131890000D01*
X165688214Y-131937619D01*
X165640595Y-132032857D01*
X165640595Y-132128095D01*
X165688214Y-132270952D01*
X166259642Y-132842380D01*
X165640595Y-132842380D01*
X165212023Y-132747142D02*
X165164404Y-132794761D01*
X165212023Y-132842380D01*
X165259642Y-132794761D01*
X165212023Y-132747142D01*
X165212023Y-132842380D01*
X164831071Y-132032857D02*
X163688214Y-132032857D01*
X164545357Y-132604285D02*
X163973928Y-132604285D01*
X164259642Y-131699523D02*
X164259642Y-132842380D01*
X164259642Y-132032857D02*
X164354880Y-132175714D01*
X164735833Y-132556666D01*
X164878690Y-132604285D01*
X164259642Y-132032857D02*
X164164404Y-132223333D01*
X163831071Y-132509047D01*
X163640595Y-132604285D01*
X162926309Y-131794761D02*
X162164404Y-131794761D01*
X163402500Y-131890000D02*
X162973928Y-131890000D01*
X163164404Y-131890000D02*
X163164404Y-132509047D01*
X162878690Y-131985238D02*
X162878690Y-132556666D01*
X162545357Y-132128095D02*
X162545357Y-132556666D01*
X162878690Y-131985238D02*
X162259642Y-131985238D01*
X162259642Y-132556666D01*
X162307261Y-132699523D02*
X162164404Y-132842380D01*
X162450119Y-132651904D02*
X162259642Y-132747142D01*
X162545357Y-131794761D02*
X162640595Y-131985238D01*
X162592976Y-132556666D02*
X162735833Y-132747142D01*
X162973928Y-132842380D01*
X162973928Y-132461428D02*
X163402500Y-132556666D01*
X161926309Y-132128095D02*
X160688214Y-132128095D01*
X161926309Y-132461428D02*
X160688214Y-132461428D01*
X161926309Y-132747142D02*
X160688214Y-132747142D01*
X161926309Y-131794761D02*
X161926309Y-132842380D01*
X161926309Y-131794761D02*
X160688214Y-131794761D01*
X160688214Y-132842380D01*
X160259642Y-132223333D02*
X159402500Y-132223333D01*
X160307261Y-132509047D02*
X159354880Y-132509047D01*
X160402500Y-132842380D02*
X159259642Y-132842380D01*
X159831071Y-132223333D02*
X159831071Y-132842380D01*
X160259642Y-132128095D02*
X160450119Y-132223333D01*
X159831071Y-131699523D02*
X160259642Y-132128095D01*
X159831071Y-131699523D02*
X159450119Y-132080476D01*
X159212023Y-132223333D01*
X158926309Y-131890000D02*
X158307261Y-131890000D01*
X158973928Y-132223333D02*
X158259642Y-132223333D01*
X158878690Y-132747142D02*
X158402500Y-132747142D01*
X158878690Y-132413809D02*
X158878690Y-132842380D01*
X158640595Y-131699523D02*
X158640595Y-131890000D01*
X158878690Y-132413809D02*
X158402500Y-132413809D01*
X158354880Y-132842380D01*
X158164404Y-131794761D02*
X158164404Y-132842380D01*
X158831071Y-131985238D02*
X158783452Y-132128095D01*
X158402500Y-131937619D02*
X158497738Y-132175714D01*
X158164404Y-131794761D02*
X157735833Y-131794761D01*
X157973928Y-132175714D01*
X157783452Y-132318571D01*
X157735833Y-132461428D01*
X157735833Y-132651904D01*
X157973928Y-132651904D01*
X156497738Y-132128095D02*
X156259642Y-132128095D01*
X157497738Y-132128095D02*
X157259642Y-132128095D01*
X157259642Y-132794761D01*
X156831071Y-131747142D02*
X156450119Y-131747142D01*
X156450119Y-132128095D01*
X157354880Y-131747142D02*
X157212023Y-131890000D01*
X156878690Y-132032857D02*
X157069166Y-132223333D01*
X156926309Y-132318571D02*
X156878690Y-132461428D01*
X156640595Y-132699523D01*
X156307261Y-132842380D01*
X157069166Y-132651904D02*
X157354880Y-132794761D01*
X157021547Y-132318571D02*
X156354880Y-132318571D01*
X156450119Y-132461428D01*
X156640595Y-132651904D01*
X157021547Y-132842380D01*
X156831071Y-131747142D02*
X156878690Y-132080476D01*
X155545357Y-132175714D02*
X154783452Y-132175714D01*
X156021547Y-132128095D02*
X155783452Y-132128095D01*
X155783452Y-132747142D01*
X155164404Y-131699523D02*
X155164404Y-132842380D01*
X155878690Y-131747142D02*
X155688214Y-131937619D01*
X155545357Y-132651904D02*
X155831071Y-132747142D01*
X154354880Y-132223333D02*
X153497738Y-132223333D01*
X154402500Y-132509047D02*
X153450119Y-132509047D01*
X154497738Y-132842380D02*
X153354880Y-132842380D01*
X153926309Y-132223333D02*
X153926309Y-132842380D01*
X154354880Y-132128095D02*
X154545357Y-132223333D01*
X153926309Y-131699523D02*
X154354880Y-132128095D01*
X153926309Y-131699523D02*
X153545357Y-132080476D01*
X153307261Y-132223333D01*
X153021547Y-131890000D02*
X152402500Y-131890000D01*
X153069166Y-132223333D02*
X152354880Y-132223333D01*
X152973928Y-132747142D02*
X152497738Y-132747142D01*
X152973928Y-132413809D02*
X152973928Y-132842380D01*
X152735833Y-131699523D02*
X152735833Y-131890000D01*
X152973928Y-132413809D02*
X152497738Y-132413809D01*
X152450119Y-132842380D01*
X152259642Y-131794761D02*
X152259642Y-132842380D01*
X152926309Y-131985238D02*
X152878690Y-132128095D01*
X152497738Y-131937619D02*
X152592976Y-132175714D01*
X152259642Y-131794761D02*
X151831071Y-131794761D01*
X152069166Y-132175714D01*
X151878690Y-132318571D01*
X151831071Y-132461428D01*
X151831071Y-132651904D01*
X152069166Y-132651904D01*
X151545357Y-131794761D02*
X150402500Y-131794761D01*
X151592976Y-132270952D02*
X150354880Y-132270952D01*
X150688214Y-131794761D02*
X150688214Y-132842380D01*
X151307261Y-132604285D02*
X151545357Y-132842380D01*
X151212023Y-131794761D02*
X151212023Y-132318571D01*
X151307261Y-132651904D01*
X149688214Y-131747142D02*
X148878690Y-131747142D01*
X149545357Y-132175714D02*
X148973928Y-132175714D01*
X149545357Y-132366190D02*
X148973928Y-132366190D01*
X149450119Y-132842380D02*
X149259642Y-132842380D01*
X149545357Y-131985238D02*
X149545357Y-132366190D01*
X149259642Y-131794761D02*
X149307261Y-131985238D01*
X149259642Y-132366190D02*
X149259642Y-132842380D01*
X149545357Y-131985238D02*
X148973928Y-131985238D01*
X148973928Y-132366190D01*
X149069166Y-132509047D02*
X148926309Y-132651904D01*
X149497738Y-132509047D02*
X149592976Y-132699523D01*
X150021547Y-131747142D02*
X149831071Y-131842380D01*
X150116785Y-132080476D02*
X149878690Y-132175714D01*
X149878690Y-132413809D02*
X150069166Y-132842380D01*
X149688214Y-131747142D02*
X149688214Y-132318571D01*
X149783452Y-132699523D01*
X148402500Y-132509047D02*
X148307261Y-132509047D01*
X148212023Y-132604285D01*
X148212023Y-132699523D01*
X148307261Y-132794761D01*
X148402500Y-132794761D01*
X148497738Y-132699523D01*
X148497738Y-132604285D01*
X148402500Y-132509047D01*
X166116785Y-133785714D02*
X165116785Y-133785714D01*
X165450119Y-134452380D02*
X165164404Y-134452380D01*
X166116785Y-133404761D02*
X166116785Y-133785714D01*
X166116785Y-133404761D02*
X165116785Y-133404761D01*
X165116785Y-133785714D01*
X165735833Y-134119047D02*
X165926309Y-134309523D01*
X166212023Y-134452380D01*
X165640595Y-133785714D02*
X165783452Y-134214285D01*
X166307261Y-133976190D02*
X165069166Y-133976190D01*
X165164404Y-134452380D01*
X164402500Y-134119047D02*
X164354880Y-134166666D01*
X164402500Y-134214285D01*
X164450119Y-134166666D01*
X164402500Y-134119047D01*
X164402500Y-134214285D01*
X164402500Y-133595238D02*
X164354880Y-133642857D01*
X164402500Y-133690476D01*
X164450119Y-133642857D01*
X164402500Y-133595238D01*
X164402500Y-133690476D01*
X165735833Y-135205238D02*
X165116785Y-135205238D01*
X166212023Y-135252857D02*
X165878690Y-135252857D01*
X166212023Y-135538571D02*
X165878690Y-135538571D01*
X165783452Y-135538571D02*
X165069166Y-135538571D01*
X166212023Y-134967142D02*
X166212023Y-135824285D01*
X166307261Y-134967142D02*
X165878690Y-134967142D01*
X165878690Y-136062380D01*
X165354880Y-135776666D02*
X165116785Y-136062380D01*
X165688214Y-134967142D02*
X165545357Y-135110000D01*
X165545357Y-135776666D02*
X165783452Y-136062380D01*
X165212023Y-135014761D02*
X165450119Y-135205238D01*
X165450119Y-135586190D01*
X165307261Y-135919523D01*
X165450119Y-135538571D02*
X165640595Y-135919523D01*
X165450119Y-135395714D02*
X165545357Y-135824285D01*
X165783452Y-135776666D02*
X166307261Y-135871904D01*
X164831071Y-135633809D02*
X163688214Y-135633809D01*
X164212023Y-135633809D02*
X164212023Y-136062380D01*
X163926309Y-135776666D02*
X163831071Y-135824285D01*
X163592976Y-136014761D01*
X163878690Y-135443333D02*
X163640595Y-135729047D01*
X164545357Y-135776666D02*
X164783452Y-136014761D01*
X163688214Y-134967142D02*
X164307261Y-135062380D01*
X164735833Y-135062380D01*
X164354880Y-135062380D02*
X164592976Y-135348095D01*
X164307261Y-135443333D01*
X163973928Y-135157619D02*
X164450119Y-135633809D01*
X163354880Y-135157619D02*
X162116785Y-135157619D01*
X162926309Y-135490952D02*
X162307261Y-135490952D01*
X162688214Y-136062380D02*
X162402500Y-136062380D01*
X162735833Y-134919523D02*
X162735833Y-135157619D01*
X162307261Y-135490952D02*
X162402500Y-136062380D01*
X162878690Y-135157619D02*
X162926309Y-135538571D01*
X163021547Y-135824285D01*
X163259642Y-136014761D01*
X161878690Y-135205238D02*
X160640595Y-135205238D01*
X161831071Y-135490952D02*
X161212023Y-135490952D01*
X161545357Y-135490952D02*
X161545357Y-135967142D01*
X160926309Y-134967142D02*
X160783452Y-135110000D01*
X161212023Y-135871904D02*
X161878690Y-136014761D01*
X161069166Y-134967142D02*
X161069166Y-135300476D01*
X160973928Y-135967142D01*
X160688214Y-136062380D01*
X160640595Y-135871904D01*
X159973928Y-135729047D02*
X159926309Y-135776666D01*
X159973928Y-135824285D01*
X160021547Y-135776666D01*
X159973928Y-135729047D01*
X159973928Y-135824285D01*
X159973928Y-135205238D02*
X159926309Y-135252857D01*
X159973928Y-135300476D01*
X160021547Y-135252857D01*
X159973928Y-135205238D01*
X159973928Y-135300476D01*
X159259642Y-136014761D02*
X159164404Y-136062380D01*
X158973928Y-136062380D01*
X158878690Y-136014761D01*
X158831071Y-135919523D01*
X158831071Y-135871904D01*
X158878690Y-135776666D01*
X158973928Y-135729047D01*
X159116785Y-135729047D01*
X159212023Y-135681428D01*
X159259642Y-135586190D01*
X159259642Y-135538571D01*
X159212023Y-135443333D01*
X159116785Y-135395714D01*
X158973928Y-135395714D01*
X158878690Y-135443333D01*
X158402500Y-136062380D02*
X158402500Y-135062380D01*
X158307261Y-135681428D02*
X158021547Y-136062380D01*
X158021547Y-135395714D02*
X158402500Y-135776666D01*
X157688214Y-135395714D02*
X157450119Y-136062380D01*
X157212023Y-135395714D02*
X157450119Y-136062380D01*
X157545357Y-136300476D01*
X157592976Y-136348095D01*
X157688214Y-136395714D01*
X156926309Y-136062380D02*
X156402500Y-135395714D01*
X156926309Y-135395714D02*
X156402500Y-136062380D01*
X156021547Y-136062380D02*
X156021547Y-135395714D01*
X156021547Y-135062380D02*
X156069166Y-135110000D01*
X156021547Y-135157619D01*
X155973928Y-135110000D01*
X156021547Y-135062380D01*
X156021547Y-135157619D01*
X155116785Y-136062380D02*
X155116785Y-135538571D01*
X155164404Y-135443333D01*
X155259642Y-135395714D01*
X155450119Y-135395714D01*
X155545357Y-135443333D01*
X155116785Y-136014761D02*
X155212023Y-136062380D01*
X155450119Y-136062380D01*
X155545357Y-136014761D01*
X155592976Y-135919523D01*
X155592976Y-135824285D01*
X155545357Y-135729047D01*
X155450119Y-135681428D01*
X155212023Y-135681428D01*
X155116785Y-135633809D01*
X154497738Y-136062380D02*
X154592976Y-136014761D01*
X154640595Y-135967142D01*
X154688214Y-135871904D01*
X154688214Y-135586190D01*
X154640595Y-135490952D01*
X154592976Y-135443333D01*
X154497738Y-135395714D01*
X154354880Y-135395714D01*
X154259642Y-135443333D01*
X154212023Y-135490952D01*
X154164404Y-135586190D01*
X154164404Y-135871904D01*
X154212023Y-135967142D01*
X154259642Y-136014761D01*
X154354880Y-136062380D01*
X154497738Y-136062380D01*
X153831071Y-136062380D02*
X153307261Y-135395714D01*
X153831071Y-135395714D02*
X153307261Y-136062380D01*
X152926309Y-136062380D02*
X152926309Y-135395714D01*
X152926309Y-135062380D02*
X152973928Y-135110000D01*
X152926309Y-135157619D01*
X152878690Y-135110000D01*
X152926309Y-135062380D01*
X152926309Y-135157619D01*
X152021547Y-136062380D02*
X152021547Y-135538571D01*
X152069166Y-135443333D01*
X152164404Y-135395714D01*
X152354880Y-135395714D01*
X152450119Y-135443333D01*
X152021547Y-136014761D02*
X152116785Y-136062380D01*
X152354880Y-136062380D01*
X152450119Y-136014761D01*
X152497738Y-135919523D01*
X152497738Y-135824285D01*
X152450119Y-135729047D01*
X152354880Y-135681428D01*
X152116785Y-135681428D01*
X152021547Y-135633809D01*
X151402500Y-136062380D02*
X151497738Y-136014761D01*
X151545357Y-135967142D01*
X151592976Y-135871904D01*
X151592976Y-135586190D01*
X151545357Y-135490952D01*
X151497738Y-135443333D01*
X151402500Y-135395714D01*
X151259642Y-135395714D01*
X151164404Y-135443333D01*
X151116785Y-135490952D01*
X151069166Y-135586190D01*
X151069166Y-135871904D01*
X151116785Y-135967142D01*
X151164404Y-136014761D01*
X151259642Y-136062380D01*
X151402500Y-136062380D01*
X150021547Y-135586190D02*
X150069166Y-135538571D01*
X150164404Y-135490952D01*
X150259642Y-135490952D01*
X150354880Y-135538571D01*
X150402500Y-135586190D01*
X150450119Y-135681428D01*
X150450119Y-135776666D01*
X150402500Y-135871904D01*
X150354880Y-135919523D01*
X150259642Y-135967142D01*
X150164404Y-135967142D01*
X150069166Y-135919523D01*
X150021547Y-135871904D01*
X150021547Y-135490952D02*
X150021547Y-135871904D01*
X149973928Y-135919523D01*
X149926309Y-135919523D01*
X149831071Y-135871904D01*
X149783452Y-135776666D01*
X149783452Y-135538571D01*
X149878690Y-135395714D01*
X150021547Y-135300476D01*
X150212023Y-135252857D01*
X150402500Y-135300476D01*
X150545357Y-135395714D01*
X150640595Y-135538571D01*
X150688214Y-135729047D01*
X150640595Y-135919523D01*
X150545357Y-136062380D01*
X150402500Y-136157619D01*
X150212023Y-136205238D01*
X150021547Y-136157619D01*
X149878690Y-136062380D01*
X149450119Y-135395714D02*
X149212023Y-136062380D01*
X148973928Y-135395714D02*
X149212023Y-136062380D01*
X149307261Y-136300476D01*
X149354880Y-136348095D01*
X149450119Y-136395714D01*
X148212023Y-136014761D02*
X148307261Y-136062380D01*
X148497738Y-136062380D01*
X148592976Y-136014761D01*
X148640595Y-135919523D01*
X148640595Y-135538571D01*
X148592976Y-135443333D01*
X148497738Y-135395714D01*
X148307261Y-135395714D01*
X148212023Y-135443333D01*
X148164404Y-135538571D01*
X148164404Y-135633809D01*
X148640595Y-135729047D01*
X147307261Y-136062380D02*
X147307261Y-135538571D01*
X147354880Y-135443333D01*
X147450119Y-135395714D01*
X147640595Y-135395714D01*
X147735833Y-135443333D01*
X147307261Y-136014761D02*
X147402500Y-136062380D01*
X147640595Y-136062380D01*
X147735833Y-136014761D01*
X147783452Y-135919523D01*
X147783452Y-135824285D01*
X147735833Y-135729047D01*
X147640595Y-135681428D01*
X147402500Y-135681428D01*
X147307261Y-135633809D01*
X146831071Y-136062380D02*
X146831071Y-135062380D01*
X146402500Y-136062380D02*
X146402500Y-135538571D01*
X146450119Y-135443333D01*
X146545357Y-135395714D01*
X146688214Y-135395714D01*
X146783452Y-135443333D01*
X146831071Y-135490952D01*
X145926309Y-135967142D02*
X145878690Y-136014761D01*
X145926309Y-136062380D01*
X145973928Y-136014761D01*
X145926309Y-135967142D01*
X145926309Y-136062380D01*
X145450119Y-135395714D02*
X145450119Y-136062380D01*
X145450119Y-135490952D02*
X145402500Y-135443333D01*
X145307261Y-135395714D01*
X145164404Y-135395714D01*
X145069166Y-135443333D01*
X145021547Y-135538571D01*
X145021547Y-136062380D01*
X144164404Y-136014761D02*
X144259642Y-136062380D01*
X144450119Y-136062380D01*
X144545357Y-136014761D01*
X144592976Y-135919523D01*
X144592976Y-135538571D01*
X144545357Y-135443333D01*
X144450119Y-135395714D01*
X144259642Y-135395714D01*
X144164404Y-135443333D01*
X144116785Y-135538571D01*
X144116785Y-135633809D01*
X144592976Y-135729047D01*
X143831071Y-135395714D02*
X143450119Y-135395714D01*
X143688214Y-135062380D02*
X143688214Y-135919523D01*
X143640595Y-136014761D01*
X143545357Y-136062380D01*
X143450119Y-136062380D01*
X165688214Y-136958095D02*
X165688214Y-137672380D01*
X166164404Y-137005714D02*
X166307261Y-137053333D01*
X165688214Y-136529523D02*
X166116785Y-136958095D01*
X165688214Y-136529523D02*
X165307261Y-136958095D01*
X165069166Y-137053333D01*
X164212023Y-136624761D02*
X164259642Y-137148571D01*
X164450119Y-137434285D01*
X164640595Y-137577142D01*
X164831071Y-137672380D01*
X164259642Y-137148571D02*
X163973928Y-137386666D01*
X163735833Y-137577142D01*
X163545357Y-137672380D01*
X162402500Y-137672380D02*
X162116785Y-137672380D01*
X163354880Y-136624761D02*
X163354880Y-137672380D01*
X163354880Y-136624761D02*
X162116785Y-136624761D01*
X162116785Y-137672380D01*
X163164404Y-136910476D02*
X162783452Y-137291428D01*
X162735833Y-136862857D02*
X162307261Y-137291428D01*
X162973928Y-137100952D02*
X163164404Y-137529523D01*
X162497738Y-137100952D02*
X162735833Y-137529523D01*
X162926309Y-136624761D02*
X163021547Y-137339047D01*
X162450119Y-136624761D02*
X162592976Y-137386666D01*
X161878690Y-136815238D02*
X161354880Y-136815238D01*
X161021547Y-136862857D02*
X160640595Y-136862857D01*
X161259642Y-137624761D02*
X160688214Y-137624761D01*
X161592976Y-136577142D02*
X161592976Y-136815238D01*
X161259642Y-137196190D02*
X161259642Y-137672380D01*
X161021547Y-136529523D02*
X161021547Y-137196190D01*
X161259642Y-137196190D02*
X160688214Y-137196190D01*
X160688214Y-137672380D01*
X161450119Y-136910476D02*
X161545357Y-137434285D01*
X161354880Y-137386666D02*
X161878690Y-137481904D01*
X161783452Y-136910476D02*
X161735833Y-137339047D01*
X159973928Y-137339047D02*
X159926309Y-137386666D01*
X159973928Y-137434285D01*
X160021547Y-137386666D01*
X159973928Y-137339047D01*
X159973928Y-137434285D01*
X159973928Y-136815238D02*
X159926309Y-136862857D01*
X159973928Y-136910476D01*
X160021547Y-136862857D01*
X159973928Y-136815238D01*
X159973928Y-136910476D01*
X159307261Y-137005714D02*
X159116785Y-137672380D01*
X158926309Y-137196190D01*
X158735833Y-137672380D01*
X158545357Y-137005714D01*
X158259642Y-137005714D02*
X158069166Y-137672380D01*
X157878690Y-137196190D01*
X157688214Y-137672380D01*
X157497738Y-137005714D01*
X157212023Y-137005714D02*
X157021547Y-137672380D01*
X156831071Y-137196190D01*
X156640595Y-137672380D01*
X156450119Y-137005714D01*
X156069166Y-137577142D02*
X156021547Y-137624761D01*
X156069166Y-137672380D01*
X156116785Y-137624761D01*
X156069166Y-137577142D01*
X156069166Y-137672380D01*
X155688214Y-137672380D02*
X155164404Y-137005714D01*
X155688214Y-137005714D02*
X155164404Y-137672380D01*
X154783452Y-137672380D02*
X154783452Y-137005714D01*
X154783452Y-136672380D02*
X154831071Y-136720000D01*
X154783452Y-136767619D01*
X154735833Y-136720000D01*
X154783452Y-136672380D01*
X154783452Y-136767619D01*
X153878690Y-137672380D02*
X153878690Y-137148571D01*
X153926309Y-137053333D01*
X154021547Y-137005714D01*
X154212023Y-137005714D01*
X154307261Y-137053333D01*
X153878690Y-137624761D02*
X153973928Y-137672380D01*
X154212023Y-137672380D01*
X154307261Y-137624761D01*
X154354880Y-137529523D01*
X154354880Y-137434285D01*
X154307261Y-137339047D01*
X154212023Y-137291428D01*
X153973928Y-137291428D01*
X153878690Y-137243809D01*
X153259642Y-137672380D02*
X153354880Y-137624761D01*
X153402500Y-137577142D01*
X153450119Y-137481904D01*
X153450119Y-137196190D01*
X153402500Y-137100952D01*
X153354880Y-137053333D01*
X153259642Y-137005714D01*
X153116785Y-137005714D01*
X153021547Y-137053333D01*
X152973928Y-137100952D01*
X152926309Y-137196190D01*
X152926309Y-137481904D01*
X152973928Y-137577142D01*
X153021547Y-137624761D01*
X153116785Y-137672380D01*
X153259642Y-137672380D01*
X152592976Y-137672380D02*
X152069166Y-137005714D01*
X152592976Y-137005714D02*
X152069166Y-137672380D01*
X151688214Y-137672380D02*
X151688214Y-137005714D01*
X151688214Y-136672380D02*
X151735833Y-136720000D01*
X151688214Y-136767619D01*
X151640595Y-136720000D01*
X151688214Y-136672380D01*
X151688214Y-136767619D01*
X150783452Y-137672380D02*
X150783452Y-137148571D01*
X150831071Y-137053333D01*
X150926309Y-137005714D01*
X151116785Y-137005714D01*
X151212023Y-137053333D01*
X150783452Y-137624761D02*
X150878690Y-137672380D01*
X151116785Y-137672380D01*
X151212023Y-137624761D01*
X151259642Y-137529523D01*
X151259642Y-137434285D01*
X151212023Y-137339047D01*
X151116785Y-137291428D01*
X150878690Y-137291428D01*
X150783452Y-137243809D01*
X150164404Y-137672380D02*
X150259642Y-137624761D01*
X150307261Y-137577142D01*
X150354880Y-137481904D01*
X150354880Y-137196190D01*
X150307261Y-137100952D01*
X150259642Y-137053333D01*
X150164404Y-137005714D01*
X150021547Y-137005714D01*
X149926309Y-137053333D01*
X149878690Y-137100952D01*
X149831071Y-137196190D01*
X149831071Y-137481904D01*
X149878690Y-137577142D01*
X149926309Y-137624761D01*
X150021547Y-137672380D01*
X150164404Y-137672380D01*
X149450119Y-137624761D02*
X149354880Y-137672380D01*
X149164404Y-137672380D01*
X149069166Y-137624761D01*
X149021547Y-137529523D01*
X149021547Y-137481904D01*
X149069166Y-137386666D01*
X149164404Y-137339047D01*
X149307261Y-137339047D01*
X149402500Y-137291428D01*
X149450119Y-137196190D01*
X149450119Y-137148571D01*
X149402500Y-137053333D01*
X149307261Y-137005714D01*
X149164404Y-137005714D01*
X149069166Y-137053333D01*
X148592976Y-137672380D02*
X148592976Y-136672380D01*
X148497738Y-137291428D02*
X148212023Y-137672380D01*
X148212023Y-137005714D02*
X148592976Y-137386666D01*
X147878690Y-137005714D02*
X147640595Y-137672380D01*
X147402500Y-137005714D02*
X147640595Y-137672380D01*
X147735833Y-137910476D01*
X147783452Y-137958095D01*
X147878690Y-138005714D01*
X147021547Y-137577142D02*
X146973928Y-137624761D01*
X147021547Y-137672380D01*
X147069166Y-137624761D01*
X147021547Y-137577142D01*
X147021547Y-137672380D01*
X146688214Y-137005714D02*
X146307261Y-137005714D01*
X146545357Y-136672380D02*
X146545357Y-137529523D01*
X146497738Y-137624761D01*
X146402500Y-137672380D01*
X146307261Y-137672380D01*
X145831071Y-137672380D02*
X145926309Y-137624761D01*
X145973928Y-137577142D01*
X146021547Y-137481904D01*
X146021547Y-137196190D01*
X145973928Y-137100952D01*
X145926309Y-137053333D01*
X145831071Y-137005714D01*
X145688214Y-137005714D01*
X145592976Y-137053333D01*
X145545357Y-137100952D01*
X145497738Y-137196190D01*
X145497738Y-137481904D01*
X145545357Y-137577142D01*
X145592976Y-137624761D01*
X145688214Y-137672380D01*
X145831071Y-137672380D01*
X145069166Y-137005714D02*
X145069166Y-138005714D01*
X145069166Y-137053333D02*
X144973928Y-137005714D01*
X144783452Y-137005714D01*
X144688214Y-137053333D01*
X144640595Y-137100952D01*
X144592976Y-137196190D01*
X144592976Y-137481904D01*
X144640595Y-137577142D01*
X144688214Y-137624761D01*
X144783452Y-137672380D01*
X144973928Y-137672380D01*
X145069166Y-137624761D01*
X165640595Y-138330000D02*
X165735833Y-138282380D01*
X165878690Y-138282380D01*
X166021547Y-138330000D01*
X166116785Y-138425238D01*
X166164404Y-138520476D01*
X166212023Y-138710952D01*
X166212023Y-138853809D01*
X166164404Y-139044285D01*
X166116785Y-139139523D01*
X166021547Y-139234761D01*
X165878690Y-139282380D01*
X165783452Y-139282380D01*
X165640595Y-139234761D01*
X165592976Y-139187142D01*
X165592976Y-138853809D01*
X165783452Y-138853809D01*
X165164404Y-139282380D02*
X165164404Y-138615714D01*
X165164404Y-138282380D02*
X165212023Y-138330000D01*
X165164404Y-138377619D01*
X165116785Y-138330000D01*
X165164404Y-138282380D01*
X165164404Y-138377619D01*
X164831071Y-138615714D02*
X164450119Y-138615714D01*
X164688214Y-138282380D02*
X164688214Y-139139523D01*
X164640595Y-139234761D01*
X164545357Y-139282380D01*
X164450119Y-139282380D01*
X164116785Y-139282380D02*
X164116785Y-138282380D01*
X164116785Y-138758571D02*
X163545357Y-138758571D01*
X163545357Y-139282380D02*
X163545357Y-138282380D01*
X162640595Y-138615714D02*
X162640595Y-139282380D01*
X163069166Y-138615714D02*
X163069166Y-139139523D01*
X163021547Y-139234761D01*
X162926309Y-139282380D01*
X162783452Y-139282380D01*
X162688214Y-139234761D01*
X162640595Y-139187142D01*
X162164404Y-139282380D02*
X162164404Y-138282380D01*
X162164404Y-138663333D02*
X162069166Y-138615714D01*
X161878690Y-138615714D01*
X161783452Y-138663333D01*
X161735833Y-138710952D01*
X161688214Y-138806190D01*
X161688214Y-139091904D01*
X161735833Y-139187142D01*
X161783452Y-139234761D01*
X161878690Y-139282380D01*
X162069166Y-139282380D01*
X162164404Y-139234761D01*
X160973928Y-138949047D02*
X160926309Y-138996666D01*
X160973928Y-139044285D01*
X161021547Y-138996666D01*
X160973928Y-138949047D01*
X160973928Y-139044285D01*
X160973928Y-138425238D02*
X160926309Y-138472857D01*
X160973928Y-138520476D01*
X161021547Y-138472857D01*
X160973928Y-138425238D01*
X160973928Y-138520476D01*
X159783452Y-138615714D02*
X159783452Y-139425238D01*
X159831071Y-139520476D01*
X159878690Y-139568095D01*
X159973928Y-139615714D01*
X160116785Y-139615714D01*
X160212023Y-139568095D01*
X159783452Y-139234761D02*
X159878690Y-139282380D01*
X160069166Y-139282380D01*
X160164404Y-139234761D01*
X160212023Y-139187142D01*
X160259642Y-139091904D01*
X160259642Y-138806190D01*
X160212023Y-138710952D01*
X160164404Y-138663333D01*
X160069166Y-138615714D01*
X159878690Y-138615714D01*
X159783452Y-138663333D01*
X159307261Y-139282380D02*
X159307261Y-138615714D01*
X159307261Y-138282380D02*
X159354880Y-138330000D01*
X159307261Y-138377619D01*
X159259642Y-138330000D01*
X159307261Y-138282380D01*
X159307261Y-138377619D01*
X158973928Y-138615714D02*
X158592976Y-138615714D01*
X158831071Y-138282380D02*
X158831071Y-139139523D01*
X158783452Y-139234761D01*
X158688214Y-139282380D01*
X158592976Y-139282380D01*
X158259642Y-139282380D02*
X158259642Y-138282380D01*
X157831071Y-139282380D02*
X157831071Y-138758571D01*
X157878690Y-138663333D01*
X157973928Y-138615714D01*
X158116785Y-138615714D01*
X158212023Y-138663333D01*
X158259642Y-138710952D01*
X156926309Y-138615714D02*
X156926309Y-139282380D01*
X157354880Y-138615714D02*
X157354880Y-139139523D01*
X157307261Y-139234761D01*
X157212023Y-139282380D01*
X157069166Y-139282380D01*
X156973928Y-139234761D01*
X156926309Y-139187142D01*
X156450119Y-139282380D02*
X156450119Y-138282380D01*
X156450119Y-138663333D02*
X156354880Y-138615714D01*
X156164404Y-138615714D01*
X156069166Y-138663333D01*
X156021547Y-138710952D01*
X155973928Y-138806190D01*
X155973928Y-139091904D01*
X156021547Y-139187142D01*
X156069166Y-139234761D01*
X156164404Y-139282380D01*
X156354880Y-139282380D01*
X156450119Y-139234761D01*
X155545357Y-139187142D02*
X155497738Y-139234761D01*
X155545357Y-139282380D01*
X155592976Y-139234761D01*
X155545357Y-139187142D01*
X155545357Y-139282380D01*
X154640595Y-139234761D02*
X154735833Y-139282380D01*
X154926309Y-139282380D01*
X155021547Y-139234761D01*
X155069166Y-139187142D01*
X155116785Y-139091904D01*
X155116785Y-138806190D01*
X155069166Y-138710952D01*
X155021547Y-138663333D01*
X154926309Y-138615714D01*
X154735833Y-138615714D01*
X154640595Y-138663333D01*
X154069166Y-139282380D02*
X154164404Y-139234761D01*
X154212023Y-139187142D01*
X154259642Y-139091904D01*
X154259642Y-138806190D01*
X154212023Y-138710952D01*
X154164404Y-138663333D01*
X154069166Y-138615714D01*
X153926309Y-138615714D01*
X153831071Y-138663333D01*
X153783452Y-138710952D01*
X153735833Y-138806190D01*
X153735833Y-139091904D01*
X153783452Y-139187142D01*
X153831071Y-139234761D01*
X153926309Y-139282380D01*
X154069166Y-139282380D01*
X153307261Y-139282380D02*
X153307261Y-138615714D01*
X153307261Y-138710952D02*
X153259642Y-138663333D01*
X153164404Y-138615714D01*
X153021547Y-138615714D01*
X152926309Y-138663333D01*
X152878690Y-138758571D01*
X152878690Y-139282380D01*
X152878690Y-138758571D02*
X152831071Y-138663333D01*
X152735833Y-138615714D01*
X152592976Y-138615714D01*
X152497738Y-138663333D01*
X152450119Y-138758571D01*
X152450119Y-139282380D01*
X151259642Y-138234761D02*
X152116785Y-139520476D01*
X150973928Y-139234761D02*
X150878690Y-139282380D01*
X150688214Y-139282380D01*
X150592976Y-139234761D01*
X150545357Y-139139523D01*
X150545357Y-139091904D01*
X150592976Y-138996666D01*
X150688214Y-138949047D01*
X150831071Y-138949047D01*
X150926309Y-138901428D01*
X150973928Y-138806190D01*
X150973928Y-138758571D01*
X150926309Y-138663333D01*
X150831071Y-138615714D01*
X150688214Y-138615714D01*
X150592976Y-138663333D01*
X149973928Y-139282380D02*
X150069166Y-139234761D01*
X150116785Y-139187142D01*
X150164404Y-139091904D01*
X150164404Y-138806190D01*
X150116785Y-138710952D01*
X150069166Y-138663333D01*
X149973928Y-138615714D01*
X149831071Y-138615714D01*
X149735833Y-138663333D01*
X149688214Y-138710952D01*
X149640595Y-138806190D01*
X149640595Y-139091904D01*
X149688214Y-139187142D01*
X149735833Y-139234761D01*
X149831071Y-139282380D01*
X149973928Y-139282380D01*
X149212023Y-138615714D02*
X149212023Y-139282380D01*
X149212023Y-138710952D02*
X149164404Y-138663333D01*
X149069166Y-138615714D01*
X148926309Y-138615714D01*
X148831071Y-138663333D01*
X148783452Y-138758571D01*
X148783452Y-139282380D01*
X147878690Y-138615714D02*
X147878690Y-139425238D01*
X147926309Y-139520476D01*
X147973928Y-139568095D01*
X148069166Y-139615714D01*
X148212023Y-139615714D01*
X148307261Y-139568095D01*
X147878690Y-139234761D02*
X147973928Y-139282380D01*
X148164404Y-139282380D01*
X148259642Y-139234761D01*
X148307261Y-139187142D01*
X148354880Y-139091904D01*
X148354880Y-138806190D01*
X148307261Y-138710952D01*
X148259642Y-138663333D01*
X148164404Y-138615714D01*
X147973928Y-138615714D01*
X147878690Y-138663333D01*
X147497738Y-139282380D02*
X146973928Y-138615714D01*
X147497738Y-138615714D02*
X146973928Y-139282380D01*
X146592976Y-139282380D02*
X146592976Y-138615714D01*
X146592976Y-138282380D02*
X146640595Y-138330000D01*
X146592976Y-138377619D01*
X146545357Y-138330000D01*
X146592976Y-138282380D01*
X146592976Y-138377619D01*
X145688214Y-139282380D02*
X145688214Y-138758571D01*
X145735833Y-138663333D01*
X145831071Y-138615714D01*
X146021547Y-138615714D01*
X146116785Y-138663333D01*
X145688214Y-139234761D02*
X145783452Y-139282380D01*
X146021547Y-139282380D01*
X146116785Y-139234761D01*
X146164404Y-139139523D01*
X146164404Y-139044285D01*
X146116785Y-138949047D01*
X146021547Y-138901428D01*
X145783452Y-138901428D01*
X145688214Y-138853809D01*
X145069166Y-139282380D02*
X145164404Y-139234761D01*
X145212023Y-139187142D01*
X145259642Y-139091904D01*
X145259642Y-138806190D01*
X145212023Y-138710952D01*
X145164404Y-138663333D01*
X145069166Y-138615714D01*
X144926309Y-138615714D01*
X144831071Y-138663333D01*
X144783452Y-138710952D01*
X144735833Y-138806190D01*
X144735833Y-139091904D01*
X144783452Y-139187142D01*
X144831071Y-139234761D01*
X144926309Y-139282380D01*
X145069166Y-139282380D01*
X143783452Y-139282380D02*
X144354880Y-139282380D01*
X144069166Y-139282380D02*
X144069166Y-138282380D01*
X144164404Y-138425238D01*
X144259642Y-138520476D01*
X144354880Y-138568095D01*
X143164404Y-138282380D02*
X143069166Y-138282380D01*
X142973928Y-138330000D01*
X142926309Y-138377619D01*
X142878690Y-138472857D01*
X142831071Y-138663333D01*
X142831071Y-138901428D01*
X142878690Y-139091904D01*
X142926309Y-139187142D01*
X142973928Y-139234761D01*
X143069166Y-139282380D01*
X143164404Y-139282380D01*
X143259642Y-139234761D01*
X143307261Y-139187142D01*
X143354880Y-139091904D01*
X143402500Y-138901428D01*
X143402500Y-138663333D01*
X143354880Y-138472857D01*
X143307261Y-138377619D01*
X143259642Y-138330000D01*
X143164404Y-138282380D01*
X141878690Y-139282380D02*
X142450119Y-139282380D01*
X142164404Y-139282380D02*
X142164404Y-138282380D01*
X142259642Y-138425238D01*
X142354880Y-138520476D01*
X142450119Y-138568095D01*
X141307261Y-138710952D02*
X141402500Y-138663333D01*
X141450119Y-138615714D01*
X141497738Y-138520476D01*
X141497738Y-138472857D01*
X141450119Y-138377619D01*
X141402500Y-138330000D01*
X141307261Y-138282380D01*
X141116785Y-138282380D01*
X141021547Y-138330000D01*
X140973928Y-138377619D01*
X140926309Y-138472857D01*
X140926309Y-138520476D01*
X140973928Y-138615714D01*
X141021547Y-138663333D01*
X141116785Y-138710952D01*
X141307261Y-138710952D01*
X141402500Y-138758571D01*
X141450119Y-138806190D01*
X141497738Y-138901428D01*
X141497738Y-139091904D01*
X141450119Y-139187142D01*
X141402500Y-139234761D01*
X141307261Y-139282380D01*
X141116785Y-139282380D01*
X141021547Y-139234761D01*
X140973928Y-139187142D01*
X140926309Y-139091904D01*
X140926309Y-138901428D01*
X140973928Y-138806190D01*
X141021547Y-138758571D01*
X141116785Y-138710952D01*
D11*
%TO.C,D2*%
X145500000Y-42500000D03*
%TD*%
M02*
