%TF.GenerationSoftware,KiCad,Pcbnew,(6.0.9)*%
%TF.CreationDate,2023-01-10T14:41:21+08:00*%
%TF.ProjectId,keyboard-nano,6b657962-6f61-4726-942d-6e616e6f2e6b,rev?*%
%TF.SameCoordinates,Original*%
%TF.FileFunction,Soldermask,Top*%
%TF.FilePolarity,Negative*%
%FSLAX46Y46*%
G04 Gerber Fmt 4.6, Leading zero omitted, Abs format (unit mm)*
G04 Created by KiCad (PCBNEW (6.0.9)) date 2023-01-10 14:41:21*
%MOMM*%
%LPD*%
G01*
G04 APERTURE LIST*
G04 Aperture macros list*
%AMRoundRect*
0 Rectangle with rounded corners*
0 $1 Rounding radius*
0 $2 $3 $4 $5 $6 $7 $8 $9 X,Y pos of 4 corners*
0 Add a 4 corners polygon primitive as box body*
4,1,4,$2,$3,$4,$5,$6,$7,$8,$9,$2,$3,0*
0 Add four circle primitives for the rounded corners*
1,1,$1+$1,$2,$3*
1,1,$1+$1,$4,$5*
1,1,$1+$1,$6,$7*
1,1,$1+$1,$8,$9*
0 Add four rect primitives between the rounded corners*
20,1,$1+$1,$2,$3,$4,$5,0*
20,1,$1+$1,$4,$5,$6,$7,0*
20,1,$1+$1,$6,$7,$8,$9,0*
20,1,$1+$1,$8,$9,$2,$3,0*%
G04 Aperture macros list end*
%ADD10RoundRect,0.250000X-1.412500X-0.550000X1.412500X-0.550000X1.412500X0.550000X-1.412500X0.550000X0*%
%ADD11C,4.000000*%
%ADD12C,2.200000*%
%ADD13RoundRect,0.243750X0.243750X0.456250X-0.243750X0.456250X-0.243750X-0.456250X0.243750X-0.456250X0*%
%ADD14RoundRect,0.243750X-0.243750X-0.456250X0.243750X-0.456250X0.243750X0.456250X-0.243750X0.456250X0*%
%ADD15C,2.286000*%
%ADD16C,3.450000*%
%ADD17R,2.000000X2.000000*%
%ADD18C,2.000000*%
%ADD19RoundRect,0.243750X-0.456250X0.243750X-0.456250X-0.243750X0.456250X-0.243750X0.456250X0.243750X0*%
%ADD20R,1.700000X1.700000*%
%ADD21O,1.700000X1.700000*%
%ADD22R,1.500000X2.000000*%
%ADD23R,3.800000X2.000000*%
%ADD24RoundRect,0.243750X0.456250X-0.243750X0.456250X0.243750X-0.456250X0.243750X-0.456250X-0.243750X0*%
G04 APERTURE END LIST*
D10*
%TO.C,C1*%
X124462500Y-100500000D03*
X129537500Y-100500000D03*
%TD*%
D11*
%TO.C,CB6*%
X164500000Y-58000000D03*
D12*
X167040000Y-52920000D03*
X160690000Y-55460000D03*
%TD*%
D13*
%TO.C,R11*%
X114937500Y-105500000D03*
X113062500Y-105500000D03*
%TD*%
D14*
%TO.C,R6*%
X152062500Y-90000000D03*
X153937500Y-90000000D03*
%TD*%
D11*
%TO.C,CB4*%
X164500000Y-97000000D03*
D12*
X167040000Y-91920000D03*
X160690000Y-94460000D03*
%TD*%
D13*
%TO.C,R5*%
X153937500Y-122500000D03*
X152062500Y-122500000D03*
%TD*%
D11*
%TO.C,CB3*%
X141500000Y-96970000D03*
D12*
X144040000Y-91890000D03*
X137690000Y-94430000D03*
%TD*%
D14*
%TO.C,D6*%
X152062500Y-119000000D03*
X153937500Y-119000000D03*
%TD*%
%TO.C,D10*%
X152062500Y-66000000D03*
X153937500Y-66000000D03*
%TD*%
D15*
%TO.C,D2*%
X145500000Y-42500000D03*
X143000000Y-42500000D03*
%TD*%
D10*
%TO.C,C3*%
X124462500Y-92500000D03*
X129537500Y-92500000D03*
%TD*%
D15*
%TO.C,D3*%
X153000000Y-42500000D03*
X155540000Y-42500000D03*
X150460000Y-42500000D03*
%TD*%
D14*
%TO.C,D12*%
X117562500Y-105500000D03*
X119437500Y-105500000D03*
%TD*%
D13*
%TO.C,D1*%
X142437500Y-47000000D03*
X140562500Y-47000000D03*
%TD*%
D11*
%TO.C,CB2*%
X164500000Y-116500000D03*
D12*
X167040000Y-111420000D03*
X160690000Y-113960000D03*
%TD*%
D11*
%TO.C,CB5*%
X141500000Y-58000000D03*
D12*
X144040000Y-52920000D03*
X137690000Y-55460000D03*
%TD*%
D13*
%TO.C,R2*%
X146437500Y-47000000D03*
X144562500Y-47000000D03*
%TD*%
D16*
%TO.C,BT1*%
X158210000Y-142850000D03*
D17*
X119600000Y-134150000D03*
D18*
X119600000Y-146850000D03*
%TD*%
D14*
%TO.C,R9*%
X152062500Y-62000000D03*
X153937500Y-62000000D03*
%TD*%
D19*
%TO.C,R10*%
X164000000Y-76562500D03*
X164000000Y-78437500D03*
%TD*%
D13*
%TO.C,R7*%
X153937500Y-103500000D03*
X152062500Y-103500000D03*
%TD*%
D14*
%TO.C,D8*%
X152062500Y-99000000D03*
X153937500Y-99000000D03*
%TD*%
D13*
%TO.C,D7*%
X153937500Y-94000000D03*
X152062500Y-94000000D03*
%TD*%
D11*
%TO.C,CB1*%
X141500000Y-116500000D03*
D12*
X144040000Y-111420000D03*
X137690000Y-113960000D03*
%TD*%
D20*
%TO.C,J1*%
X113405000Y-49750000D03*
D21*
X113405000Y-52290000D03*
X113405000Y-54830000D03*
X113405000Y-57370000D03*
X113405000Y-59910000D03*
X113405000Y-62450000D03*
X113405000Y-64990000D03*
X113405000Y-67530000D03*
X113405000Y-70070000D03*
X113405000Y-72610000D03*
X113405000Y-75150000D03*
X113405000Y-77690000D03*
X113405000Y-80230000D03*
X113405000Y-82770000D03*
X113405000Y-85310000D03*
D20*
X128645000Y-49750000D03*
D21*
X128645000Y-52290000D03*
X128645000Y-54830000D03*
X128645000Y-57370000D03*
X128645000Y-59910000D03*
X128645000Y-62450000D03*
X128645000Y-64990000D03*
X128645000Y-67530000D03*
X128645000Y-70070000D03*
X128645000Y-72610000D03*
X128645000Y-75150000D03*
X128645000Y-77690000D03*
X128645000Y-80230000D03*
X128645000Y-82770000D03*
X128645000Y-85310000D03*
%TD*%
D14*
%TO.C,R8*%
X152062500Y-51000000D03*
X153937500Y-51000000D03*
%TD*%
D13*
%TO.C,D9*%
X153937500Y-55000000D03*
X152062500Y-55000000D03*
%TD*%
%TO.C,D4*%
X150937500Y-47000000D03*
X149062500Y-47000000D03*
%TD*%
D19*
%TO.C,R1*%
X113500000Y-129562500D03*
X113500000Y-131437500D03*
%TD*%
D11*
%TO.C,CB7*%
X153000000Y-77500000D03*
D12*
X155540000Y-72420000D03*
X149190000Y-74960000D03*
%TD*%
D14*
%TO.C,R4*%
X152062500Y-110000000D03*
X153937500Y-110000000D03*
%TD*%
D22*
%TO.C,U1*%
X112700000Y-100150000D03*
D23*
X115000000Y-93850000D03*
D22*
X115000000Y-100150000D03*
X117300000Y-100150000D03*
%TD*%
D11*
%TO.C,CB8*%
X121500000Y-116500000D03*
D12*
X124040000Y-111420000D03*
X117690000Y-113960000D03*
%TD*%
D14*
%TO.C,R3*%
X153062500Y-47000000D03*
X154937500Y-47000000D03*
%TD*%
D24*
%TO.C,C2*%
X121000000Y-101437500D03*
X121000000Y-99562500D03*
%TD*%
D14*
%TO.C,D5*%
X152062500Y-114000000D03*
X153937500Y-114000000D03*
%TD*%
D24*
%TO.C,C4*%
X121000000Y-91437500D03*
X121000000Y-89562500D03*
%TD*%
D19*
%TO.C,D11*%
X142000000Y-69562500D03*
X142000000Y-71437500D03*
%TD*%
M02*
