%TF.GenerationSoftware,KiCad,Pcbnew,(6.0.9)*%
%TF.CreationDate,2023-01-10T14:41:47+08:00*%
%TF.ProjectId,keyboard-nano,6b657962-6f61-4726-942d-6e616e6f2e6b,rev?*%
%TF.SameCoordinates,Original*%
%TF.FileFunction,Drillmap*%
%TF.FilePolarity,Positive*%
%FSLAX45Y45*%
G04 Gerber Fmt 4.5, Leading zero omitted, Abs format (unit mm)*
G04 Created by KiCad (PCBNEW (6.0.9)) date 2023-01-10 14:41:47*
%MOMM*%
%LPD*%
G01*
G04 APERTURE LIST*
%ADD10C,0.100000*%
%ADD11C,0.200000*%
%ADD12C,0.345000*%
%ADD13C,0.400000*%
G04 APERTURE END LIST*
D10*
X10829000Y-15215000D02*
G75*
G03*
X11129000Y-15515000I300000J0D01*
G01*
D11*
X17329000Y-15515000D02*
X11129000Y-15515000D01*
X17629000Y-4215000D02*
X17629000Y-15215000D01*
D10*
X11129000Y-3915000D02*
G75*
G03*
X10829000Y-4215000I0J-300000D01*
G01*
D11*
X10829000Y-15215000D02*
X10829000Y-4215000D01*
D10*
X17329000Y-15515000D02*
G75*
G03*
X17629000Y-15215000I0J300000D01*
G01*
D11*
X11129000Y-3915000D02*
X17329000Y-3915000D01*
D10*
X17629000Y-4215000D02*
G75*
G03*
X17329000Y-3915000I-300000J0D01*
G01*
D11*
D12*
X12651500Y-13642500D02*
X12996500Y-13987500D01*
X12996500Y-13642500D02*
X12651500Y-13987500D01*
X15648500Y-14112500D02*
X15993500Y-14457500D01*
X15993500Y-14112500D02*
X15648500Y-14457500D01*
D13*
X12350000Y-11650000D02*
G75*
G03*
X12350000Y-11650000I-200000J0D01*
G01*
X14350000Y-5800000D02*
G75*
G03*
X14350000Y-5800000I-200000J0D01*
G01*
X14350000Y-9697000D02*
G75*
G03*
X14350000Y-9697000I-200000J0D01*
G01*
X14350000Y-11650000D02*
G75*
G03*
X14350000Y-11650000I-200000J0D01*
G01*
X15500000Y-7750000D02*
G75*
G03*
X15500000Y-7750000I-200000J0D01*
G01*
X16650000Y-5800000D02*
G75*
G03*
X16650000Y-5800000I-200000J0D01*
G01*
X16650000Y-9700000D02*
G75*
G03*
X16650000Y-9700000I-200000J0D01*
G01*
X16650000Y-11650000D02*
G75*
G03*
X16650000Y-11650000I-200000J0D01*
G01*
D11*
X11076619Y-15835476D02*
X11076619Y-15635476D01*
X11124238Y-15635476D01*
X11152810Y-15645000D01*
X11171857Y-15664048D01*
X11181381Y-15683095D01*
X11190905Y-15721190D01*
X11190905Y-15749762D01*
X11181381Y-15787857D01*
X11171857Y-15806905D01*
X11152810Y-15825952D01*
X11124238Y-15835476D01*
X11076619Y-15835476D01*
X11276619Y-15835476D02*
X11276619Y-15702143D01*
X11276619Y-15740238D02*
X11286143Y-15721190D01*
X11295667Y-15711667D01*
X11314714Y-15702143D01*
X11333762Y-15702143D01*
X11400428Y-15835476D02*
X11400428Y-15702143D01*
X11400428Y-15635476D02*
X11390905Y-15645000D01*
X11400428Y-15654524D01*
X11409952Y-15645000D01*
X11400428Y-15635476D01*
X11400428Y-15654524D01*
X11524238Y-15835476D02*
X11505190Y-15825952D01*
X11495667Y-15806905D01*
X11495667Y-15635476D01*
X11629000Y-15835476D02*
X11609952Y-15825952D01*
X11600428Y-15806905D01*
X11600428Y-15635476D01*
X11857571Y-15835476D02*
X11857571Y-15635476D01*
X11924238Y-15778333D01*
X11990905Y-15635476D01*
X11990905Y-15835476D01*
X12171857Y-15835476D02*
X12171857Y-15730714D01*
X12162333Y-15711667D01*
X12143286Y-15702143D01*
X12105190Y-15702143D01*
X12086143Y-15711667D01*
X12171857Y-15825952D02*
X12152809Y-15835476D01*
X12105190Y-15835476D01*
X12086143Y-15825952D01*
X12076619Y-15806905D01*
X12076619Y-15787857D01*
X12086143Y-15768809D01*
X12105190Y-15759286D01*
X12152809Y-15759286D01*
X12171857Y-15749762D01*
X12267095Y-15702143D02*
X12267095Y-15902143D01*
X12267095Y-15711667D02*
X12286143Y-15702143D01*
X12324238Y-15702143D01*
X12343286Y-15711667D01*
X12352809Y-15721190D01*
X12362333Y-15740238D01*
X12362333Y-15797381D01*
X12352809Y-15816428D01*
X12343286Y-15825952D01*
X12324238Y-15835476D01*
X12286143Y-15835476D01*
X12267095Y-15825952D01*
X12448048Y-15816428D02*
X12457571Y-15825952D01*
X12448048Y-15835476D01*
X12438524Y-15825952D01*
X12448048Y-15816428D01*
X12448048Y-15835476D01*
X12448048Y-15711667D02*
X12457571Y-15721190D01*
X12448048Y-15730714D01*
X12438524Y-15721190D01*
X12448048Y-15711667D01*
X12448048Y-15730714D01*
X10619000Y-16065000D02*
X10819000Y-16265000D01*
X10819000Y-16065000D02*
X10619000Y-16265000D01*
X11057571Y-16055476D02*
X11181381Y-16055476D01*
X11114714Y-16131667D01*
X11143286Y-16131667D01*
X11162333Y-16141190D01*
X11171857Y-16150714D01*
X11181381Y-16169762D01*
X11181381Y-16217381D01*
X11171857Y-16236428D01*
X11162333Y-16245952D01*
X11143286Y-16255476D01*
X11086143Y-16255476D01*
X11067095Y-16245952D01*
X11057571Y-16236428D01*
X11267095Y-16236428D02*
X11276619Y-16245952D01*
X11267095Y-16255476D01*
X11257571Y-16245952D01*
X11267095Y-16236428D01*
X11267095Y-16255476D01*
X11448048Y-16122143D02*
X11448048Y-16255476D01*
X11400428Y-16045952D02*
X11352809Y-16188809D01*
X11476619Y-16188809D01*
X11648048Y-16055476D02*
X11552809Y-16055476D01*
X11543286Y-16150714D01*
X11552809Y-16141190D01*
X11571857Y-16131667D01*
X11619476Y-16131667D01*
X11638524Y-16141190D01*
X11648048Y-16150714D01*
X11657571Y-16169762D01*
X11657571Y-16217381D01*
X11648048Y-16236428D01*
X11638524Y-16245952D01*
X11619476Y-16255476D01*
X11571857Y-16255476D01*
X11552809Y-16245952D01*
X11543286Y-16236428D01*
X11781381Y-16055476D02*
X11800428Y-16055476D01*
X11819476Y-16065000D01*
X11829000Y-16074524D01*
X11838524Y-16093571D01*
X11848048Y-16131667D01*
X11848048Y-16179286D01*
X11838524Y-16217381D01*
X11829000Y-16236428D01*
X11819476Y-16245952D01*
X11800428Y-16255476D01*
X11781381Y-16255476D01*
X11762333Y-16245952D01*
X11752809Y-16236428D01*
X11743286Y-16217381D01*
X11733762Y-16179286D01*
X11733762Y-16131667D01*
X11743286Y-16093571D01*
X11752809Y-16074524D01*
X11762333Y-16065000D01*
X11781381Y-16055476D01*
X11933762Y-16255476D02*
X11933762Y-16122143D01*
X11933762Y-16141190D02*
X11943286Y-16131667D01*
X11962333Y-16122143D01*
X11990905Y-16122143D01*
X12009952Y-16131667D01*
X12019476Y-16150714D01*
X12019476Y-16255476D01*
X12019476Y-16150714D02*
X12029000Y-16131667D01*
X12048048Y-16122143D01*
X12076619Y-16122143D01*
X12095667Y-16131667D01*
X12105190Y-16150714D01*
X12105190Y-16255476D01*
X12200428Y-16255476D02*
X12200428Y-16122143D01*
X12200428Y-16141190D02*
X12209952Y-16131667D01*
X12229000Y-16122143D01*
X12257571Y-16122143D01*
X12276619Y-16131667D01*
X12286143Y-16150714D01*
X12286143Y-16255476D01*
X12286143Y-16150714D02*
X12295667Y-16131667D01*
X12314714Y-16122143D01*
X12343286Y-16122143D01*
X12362333Y-16131667D01*
X12371857Y-16150714D01*
X12371857Y-16255476D01*
X12762333Y-16045952D02*
X12590905Y-16303095D01*
X13019476Y-16055476D02*
X13038524Y-16055476D01*
X13057571Y-16065000D01*
X13067095Y-16074524D01*
X13076619Y-16093571D01*
X13086143Y-16131667D01*
X13086143Y-16179286D01*
X13076619Y-16217381D01*
X13067095Y-16236428D01*
X13057571Y-16245952D01*
X13038524Y-16255476D01*
X13019476Y-16255476D01*
X13000428Y-16245952D01*
X12990905Y-16236428D01*
X12981381Y-16217381D01*
X12971857Y-16179286D01*
X12971857Y-16131667D01*
X12981381Y-16093571D01*
X12990905Y-16074524D01*
X13000428Y-16065000D01*
X13019476Y-16055476D01*
X13171857Y-16236428D02*
X13181381Y-16245952D01*
X13171857Y-16255476D01*
X13162333Y-16245952D01*
X13171857Y-16236428D01*
X13171857Y-16255476D01*
X13371857Y-16255476D02*
X13257571Y-16255476D01*
X13314714Y-16255476D02*
X13314714Y-16055476D01*
X13295667Y-16084048D01*
X13276619Y-16103095D01*
X13257571Y-16112619D01*
X13438524Y-16055476D02*
X13562333Y-16055476D01*
X13495667Y-16131667D01*
X13524238Y-16131667D01*
X13543286Y-16141190D01*
X13552809Y-16150714D01*
X13562333Y-16169762D01*
X13562333Y-16217381D01*
X13552809Y-16236428D01*
X13543286Y-16245952D01*
X13524238Y-16255476D01*
X13467095Y-16255476D01*
X13448048Y-16245952D01*
X13438524Y-16236428D01*
X13743286Y-16055476D02*
X13648048Y-16055476D01*
X13638524Y-16150714D01*
X13648048Y-16141190D01*
X13667095Y-16131667D01*
X13714714Y-16131667D01*
X13733762Y-16141190D01*
X13743286Y-16150714D01*
X13752809Y-16169762D01*
X13752809Y-16217381D01*
X13743286Y-16236428D01*
X13733762Y-16245952D01*
X13714714Y-16255476D01*
X13667095Y-16255476D01*
X13648048Y-16245952D01*
X13638524Y-16236428D01*
X13867095Y-16141190D02*
X13848048Y-16131667D01*
X13838524Y-16122143D01*
X13829000Y-16103095D01*
X13829000Y-16093571D01*
X13838524Y-16074524D01*
X13848048Y-16065000D01*
X13867095Y-16055476D01*
X13905190Y-16055476D01*
X13924238Y-16065000D01*
X13933762Y-16074524D01*
X13943286Y-16093571D01*
X13943286Y-16103095D01*
X13933762Y-16122143D01*
X13924238Y-16131667D01*
X13905190Y-16141190D01*
X13867095Y-16141190D01*
X13848048Y-16150714D01*
X13838524Y-16160238D01*
X13829000Y-16179286D01*
X13829000Y-16217381D01*
X13838524Y-16236428D01*
X13848048Y-16245952D01*
X13867095Y-16255476D01*
X13905190Y-16255476D01*
X13924238Y-16245952D01*
X13933762Y-16236428D01*
X13943286Y-16217381D01*
X13943286Y-16179286D01*
X13933762Y-16160238D01*
X13924238Y-16150714D01*
X13905190Y-16141190D01*
X14019476Y-16055476D02*
X14019476Y-16093571D01*
X14095667Y-16055476D02*
X14095667Y-16093571D01*
X14390905Y-16331667D02*
X14381381Y-16322143D01*
X14362333Y-16293571D01*
X14352809Y-16274524D01*
X14343286Y-16245952D01*
X14333762Y-16198333D01*
X14333762Y-16160238D01*
X14343286Y-16112619D01*
X14352809Y-16084048D01*
X14362333Y-16065000D01*
X14381381Y-16036428D01*
X14390905Y-16026905D01*
X14457571Y-16074524D02*
X14467095Y-16065000D01*
X14486143Y-16055476D01*
X14533762Y-16055476D01*
X14552809Y-16065000D01*
X14562333Y-16074524D01*
X14571857Y-16093571D01*
X14571857Y-16112619D01*
X14562333Y-16141190D01*
X14448048Y-16255476D01*
X14571857Y-16255476D01*
X14809952Y-16255476D02*
X14809952Y-16055476D01*
X14895667Y-16255476D02*
X14895667Y-16150714D01*
X14886143Y-16131667D01*
X14867095Y-16122143D01*
X14838524Y-16122143D01*
X14819476Y-16131667D01*
X14809952Y-16141190D01*
X15019476Y-16255476D02*
X15000428Y-16245952D01*
X14990905Y-16236428D01*
X14981381Y-16217381D01*
X14981381Y-16160238D01*
X14990905Y-16141190D01*
X15000428Y-16131667D01*
X15019476Y-16122143D01*
X15048048Y-16122143D01*
X15067095Y-16131667D01*
X15076619Y-16141190D01*
X15086143Y-16160238D01*
X15086143Y-16217381D01*
X15076619Y-16236428D01*
X15067095Y-16245952D01*
X15048048Y-16255476D01*
X15019476Y-16255476D01*
X15200428Y-16255476D02*
X15181381Y-16245952D01*
X15171857Y-16226905D01*
X15171857Y-16055476D01*
X15352809Y-16245952D02*
X15333762Y-16255476D01*
X15295667Y-16255476D01*
X15276619Y-16245952D01*
X15267095Y-16226905D01*
X15267095Y-16150714D01*
X15276619Y-16131667D01*
X15295667Y-16122143D01*
X15333762Y-16122143D01*
X15352809Y-16131667D01*
X15362333Y-16150714D01*
X15362333Y-16169762D01*
X15267095Y-16188809D01*
X15438524Y-16245952D02*
X15457571Y-16255476D01*
X15495667Y-16255476D01*
X15514714Y-16245952D01*
X15524238Y-16226905D01*
X15524238Y-16217381D01*
X15514714Y-16198333D01*
X15495667Y-16188809D01*
X15467095Y-16188809D01*
X15448048Y-16179286D01*
X15438524Y-16160238D01*
X15438524Y-16150714D01*
X15448048Y-16131667D01*
X15467095Y-16122143D01*
X15495667Y-16122143D01*
X15514714Y-16131667D01*
X15590905Y-16331667D02*
X15600428Y-16322143D01*
X15619476Y-16293571D01*
X15629000Y-16274524D01*
X15638524Y-16245952D01*
X15648048Y-16198333D01*
X15648048Y-16160238D01*
X15638524Y-16112619D01*
X15629000Y-16084048D01*
X15619476Y-16065000D01*
X15600428Y-16036428D01*
X15590905Y-16026905D01*
X15952809Y-16331667D02*
X15943286Y-16322143D01*
X15924238Y-16293571D01*
X15914714Y-16274524D01*
X15905190Y-16245952D01*
X15895667Y-16198333D01*
X15895667Y-16160238D01*
X15905190Y-16112619D01*
X15914714Y-16084048D01*
X15924238Y-16065000D01*
X15943286Y-16036428D01*
X15952809Y-16026905D01*
X16029000Y-16122143D02*
X16029000Y-16255476D01*
X16029000Y-16141190D02*
X16038524Y-16131667D01*
X16057571Y-16122143D01*
X16086143Y-16122143D01*
X16105190Y-16131667D01*
X16114714Y-16150714D01*
X16114714Y-16255476D01*
X16238524Y-16255476D02*
X16219476Y-16245952D01*
X16209952Y-16236428D01*
X16200428Y-16217381D01*
X16200428Y-16160238D01*
X16209952Y-16141190D01*
X16219476Y-16131667D01*
X16238524Y-16122143D01*
X16267095Y-16122143D01*
X16286143Y-16131667D01*
X16295667Y-16141190D01*
X16305190Y-16160238D01*
X16305190Y-16217381D01*
X16295667Y-16236428D01*
X16286143Y-16245952D01*
X16267095Y-16255476D01*
X16238524Y-16255476D01*
X16362333Y-16122143D02*
X16438524Y-16122143D01*
X16390905Y-16055476D02*
X16390905Y-16226905D01*
X16400428Y-16245952D01*
X16419476Y-16255476D01*
X16438524Y-16255476D01*
X16657571Y-16122143D02*
X16657571Y-16322143D01*
X16657571Y-16131667D02*
X16676619Y-16122143D01*
X16714714Y-16122143D01*
X16733762Y-16131667D01*
X16743286Y-16141190D01*
X16752809Y-16160238D01*
X16752809Y-16217381D01*
X16743286Y-16236428D01*
X16733762Y-16245952D01*
X16714714Y-16255476D01*
X16676619Y-16255476D01*
X16657571Y-16245952D01*
X16867095Y-16255476D02*
X16848048Y-16245952D01*
X16838524Y-16226905D01*
X16838524Y-16055476D01*
X17029000Y-16255476D02*
X17029000Y-16150714D01*
X17019476Y-16131667D01*
X17000429Y-16122143D01*
X16962333Y-16122143D01*
X16943286Y-16131667D01*
X17029000Y-16245952D02*
X17009952Y-16255476D01*
X16962333Y-16255476D01*
X16943286Y-16245952D01*
X16933762Y-16226905D01*
X16933762Y-16207857D01*
X16943286Y-16188809D01*
X16962333Y-16179286D01*
X17009952Y-16179286D01*
X17029000Y-16169762D01*
X17095667Y-16122143D02*
X17171857Y-16122143D01*
X17124238Y-16055476D02*
X17124238Y-16226905D01*
X17133762Y-16245952D01*
X17152810Y-16255476D01*
X17171857Y-16255476D01*
X17314714Y-16245952D02*
X17295667Y-16255476D01*
X17257571Y-16255476D01*
X17238524Y-16245952D01*
X17229000Y-16226905D01*
X17229000Y-16150714D01*
X17238524Y-16131667D01*
X17257571Y-16122143D01*
X17295667Y-16122143D01*
X17314714Y-16131667D01*
X17324238Y-16150714D01*
X17324238Y-16169762D01*
X17229000Y-16188809D01*
X17495667Y-16255476D02*
X17495667Y-16055476D01*
X17495667Y-16245952D02*
X17476619Y-16255476D01*
X17438524Y-16255476D01*
X17419476Y-16245952D01*
X17409952Y-16236428D01*
X17400429Y-16217381D01*
X17400429Y-16160238D01*
X17409952Y-16141190D01*
X17419476Y-16131667D01*
X17438524Y-16122143D01*
X17476619Y-16122143D01*
X17495667Y-16131667D01*
X17571857Y-16331667D02*
X17581381Y-16322143D01*
X17600429Y-16293571D01*
X17609952Y-16274524D01*
X17619476Y-16245952D01*
X17629000Y-16198333D01*
X17629000Y-16160238D01*
X17619476Y-16112619D01*
X17609952Y-16084048D01*
X17600429Y-16065000D01*
X17581381Y-16036428D01*
X17571857Y-16026905D01*
X10819000Y-16485000D02*
G75*
G03*
X10819000Y-16485000I-100000J0D01*
G01*
X11162333Y-16442143D02*
X11162333Y-16575476D01*
X11114714Y-16365952D02*
X11067095Y-16508809D01*
X11190905Y-16508809D01*
X11267095Y-16556428D02*
X11276619Y-16565952D01*
X11267095Y-16575476D01*
X11257571Y-16565952D01*
X11267095Y-16556428D01*
X11267095Y-16575476D01*
X11400428Y-16375476D02*
X11419476Y-16375476D01*
X11438524Y-16385000D01*
X11448048Y-16394524D01*
X11457571Y-16413571D01*
X11467095Y-16451667D01*
X11467095Y-16499286D01*
X11457571Y-16537381D01*
X11448048Y-16556428D01*
X11438524Y-16565952D01*
X11419476Y-16575476D01*
X11400428Y-16575476D01*
X11381381Y-16565952D01*
X11371857Y-16556428D01*
X11362333Y-16537381D01*
X11352809Y-16499286D01*
X11352809Y-16451667D01*
X11362333Y-16413571D01*
X11371857Y-16394524D01*
X11381381Y-16385000D01*
X11400428Y-16375476D01*
X11590905Y-16375476D02*
X11609952Y-16375476D01*
X11629000Y-16385000D01*
X11638524Y-16394524D01*
X11648048Y-16413571D01*
X11657571Y-16451667D01*
X11657571Y-16499286D01*
X11648048Y-16537381D01*
X11638524Y-16556428D01*
X11629000Y-16565952D01*
X11609952Y-16575476D01*
X11590905Y-16575476D01*
X11571857Y-16565952D01*
X11562333Y-16556428D01*
X11552809Y-16537381D01*
X11543286Y-16499286D01*
X11543286Y-16451667D01*
X11552809Y-16413571D01*
X11562333Y-16394524D01*
X11571857Y-16385000D01*
X11590905Y-16375476D01*
X11781381Y-16375476D02*
X11800428Y-16375476D01*
X11819476Y-16385000D01*
X11829000Y-16394524D01*
X11838524Y-16413571D01*
X11848048Y-16451667D01*
X11848048Y-16499286D01*
X11838524Y-16537381D01*
X11829000Y-16556428D01*
X11819476Y-16565952D01*
X11800428Y-16575476D01*
X11781381Y-16575476D01*
X11762333Y-16565952D01*
X11752809Y-16556428D01*
X11743286Y-16537381D01*
X11733762Y-16499286D01*
X11733762Y-16451667D01*
X11743286Y-16413571D01*
X11752809Y-16394524D01*
X11762333Y-16385000D01*
X11781381Y-16375476D01*
X11933762Y-16575476D02*
X11933762Y-16442143D01*
X11933762Y-16461190D02*
X11943286Y-16451667D01*
X11962333Y-16442143D01*
X11990905Y-16442143D01*
X12009952Y-16451667D01*
X12019476Y-16470714D01*
X12019476Y-16575476D01*
X12019476Y-16470714D02*
X12029000Y-16451667D01*
X12048048Y-16442143D01*
X12076619Y-16442143D01*
X12095667Y-16451667D01*
X12105190Y-16470714D01*
X12105190Y-16575476D01*
X12200428Y-16575476D02*
X12200428Y-16442143D01*
X12200428Y-16461190D02*
X12209952Y-16451667D01*
X12229000Y-16442143D01*
X12257571Y-16442143D01*
X12276619Y-16451667D01*
X12286143Y-16470714D01*
X12286143Y-16575476D01*
X12286143Y-16470714D02*
X12295667Y-16451667D01*
X12314714Y-16442143D01*
X12343286Y-16442143D01*
X12362333Y-16451667D01*
X12371857Y-16470714D01*
X12371857Y-16575476D01*
X12762333Y-16365952D02*
X12590905Y-16623095D01*
X13019476Y-16375476D02*
X13038524Y-16375476D01*
X13057571Y-16385000D01*
X13067095Y-16394524D01*
X13076619Y-16413571D01*
X13086143Y-16451667D01*
X13086143Y-16499286D01*
X13076619Y-16537381D01*
X13067095Y-16556428D01*
X13057571Y-16565952D01*
X13038524Y-16575476D01*
X13019476Y-16575476D01*
X13000428Y-16565952D01*
X12990905Y-16556428D01*
X12981381Y-16537381D01*
X12971857Y-16499286D01*
X12971857Y-16451667D01*
X12981381Y-16413571D01*
X12990905Y-16394524D01*
X13000428Y-16385000D01*
X13019476Y-16375476D01*
X13171857Y-16556428D02*
X13181381Y-16565952D01*
X13171857Y-16575476D01*
X13162333Y-16565952D01*
X13171857Y-16556428D01*
X13171857Y-16575476D01*
X13371857Y-16575476D02*
X13257571Y-16575476D01*
X13314714Y-16575476D02*
X13314714Y-16375476D01*
X13295667Y-16404048D01*
X13276619Y-16423095D01*
X13257571Y-16432619D01*
X13552809Y-16375476D02*
X13457571Y-16375476D01*
X13448048Y-16470714D01*
X13457571Y-16461190D01*
X13476619Y-16451667D01*
X13524238Y-16451667D01*
X13543286Y-16461190D01*
X13552809Y-16470714D01*
X13562333Y-16489762D01*
X13562333Y-16537381D01*
X13552809Y-16556428D01*
X13543286Y-16565952D01*
X13524238Y-16575476D01*
X13476619Y-16575476D01*
X13457571Y-16565952D01*
X13448048Y-16556428D01*
X13629000Y-16375476D02*
X13762333Y-16375476D01*
X13676619Y-16575476D01*
X13933762Y-16375476D02*
X13838524Y-16375476D01*
X13829000Y-16470714D01*
X13838524Y-16461190D01*
X13857571Y-16451667D01*
X13905190Y-16451667D01*
X13924238Y-16461190D01*
X13933762Y-16470714D01*
X13943286Y-16489762D01*
X13943286Y-16537381D01*
X13933762Y-16556428D01*
X13924238Y-16565952D01*
X13905190Y-16575476D01*
X13857571Y-16575476D01*
X13838524Y-16565952D01*
X13829000Y-16556428D01*
X14019476Y-16375476D02*
X14019476Y-16413571D01*
X14095667Y-16375476D02*
X14095667Y-16413571D01*
X14390905Y-16651667D02*
X14381381Y-16642143D01*
X14362333Y-16613571D01*
X14352809Y-16594524D01*
X14343286Y-16565952D01*
X14333762Y-16518333D01*
X14333762Y-16480238D01*
X14343286Y-16432619D01*
X14352809Y-16404048D01*
X14362333Y-16385000D01*
X14381381Y-16356428D01*
X14390905Y-16346905D01*
X14495667Y-16461190D02*
X14476619Y-16451667D01*
X14467095Y-16442143D01*
X14457571Y-16423095D01*
X14457571Y-16413571D01*
X14467095Y-16394524D01*
X14476619Y-16385000D01*
X14495667Y-16375476D01*
X14533762Y-16375476D01*
X14552809Y-16385000D01*
X14562333Y-16394524D01*
X14571857Y-16413571D01*
X14571857Y-16423095D01*
X14562333Y-16442143D01*
X14552809Y-16451667D01*
X14533762Y-16461190D01*
X14495667Y-16461190D01*
X14476619Y-16470714D01*
X14467095Y-16480238D01*
X14457571Y-16499286D01*
X14457571Y-16537381D01*
X14467095Y-16556428D01*
X14476619Y-16565952D01*
X14495667Y-16575476D01*
X14533762Y-16575476D01*
X14552809Y-16565952D01*
X14562333Y-16556428D01*
X14571857Y-16537381D01*
X14571857Y-16499286D01*
X14562333Y-16480238D01*
X14552809Y-16470714D01*
X14533762Y-16461190D01*
X14809952Y-16575476D02*
X14809952Y-16375476D01*
X14895667Y-16575476D02*
X14895667Y-16470714D01*
X14886143Y-16451667D01*
X14867095Y-16442143D01*
X14838524Y-16442143D01*
X14819476Y-16451667D01*
X14809952Y-16461190D01*
X15019476Y-16575476D02*
X15000428Y-16565952D01*
X14990905Y-16556428D01*
X14981381Y-16537381D01*
X14981381Y-16480238D01*
X14990905Y-16461190D01*
X15000428Y-16451667D01*
X15019476Y-16442143D01*
X15048048Y-16442143D01*
X15067095Y-16451667D01*
X15076619Y-16461190D01*
X15086143Y-16480238D01*
X15086143Y-16537381D01*
X15076619Y-16556428D01*
X15067095Y-16565952D01*
X15048048Y-16575476D01*
X15019476Y-16575476D01*
X15200428Y-16575476D02*
X15181381Y-16565952D01*
X15171857Y-16546905D01*
X15171857Y-16375476D01*
X15352809Y-16565952D02*
X15333762Y-16575476D01*
X15295667Y-16575476D01*
X15276619Y-16565952D01*
X15267095Y-16546905D01*
X15267095Y-16470714D01*
X15276619Y-16451667D01*
X15295667Y-16442143D01*
X15333762Y-16442143D01*
X15352809Y-16451667D01*
X15362333Y-16470714D01*
X15362333Y-16489762D01*
X15267095Y-16508809D01*
X15438524Y-16565952D02*
X15457571Y-16575476D01*
X15495667Y-16575476D01*
X15514714Y-16565952D01*
X15524238Y-16546905D01*
X15524238Y-16537381D01*
X15514714Y-16518333D01*
X15495667Y-16508809D01*
X15467095Y-16508809D01*
X15448048Y-16499286D01*
X15438524Y-16480238D01*
X15438524Y-16470714D01*
X15448048Y-16451667D01*
X15467095Y-16442143D01*
X15495667Y-16442143D01*
X15514714Y-16451667D01*
X15590905Y-16651667D02*
X15600428Y-16642143D01*
X15619476Y-16613571D01*
X15629000Y-16594524D01*
X15638524Y-16565952D01*
X15648048Y-16518333D01*
X15648048Y-16480238D01*
X15638524Y-16432619D01*
X15629000Y-16404048D01*
X15619476Y-16385000D01*
X15600428Y-16356428D01*
X15590905Y-16346905D01*
X15952809Y-16651667D02*
X15943286Y-16642143D01*
X15924238Y-16613571D01*
X15914714Y-16594524D01*
X15905190Y-16565952D01*
X15895667Y-16518333D01*
X15895667Y-16480238D01*
X15905190Y-16432619D01*
X15914714Y-16404048D01*
X15924238Y-16385000D01*
X15943286Y-16356428D01*
X15952809Y-16346905D01*
X16029000Y-16442143D02*
X16029000Y-16575476D01*
X16029000Y-16461190D02*
X16038524Y-16451667D01*
X16057571Y-16442143D01*
X16086143Y-16442143D01*
X16105190Y-16451667D01*
X16114714Y-16470714D01*
X16114714Y-16575476D01*
X16238524Y-16575476D02*
X16219476Y-16565952D01*
X16209952Y-16556428D01*
X16200428Y-16537381D01*
X16200428Y-16480238D01*
X16209952Y-16461190D01*
X16219476Y-16451667D01*
X16238524Y-16442143D01*
X16267095Y-16442143D01*
X16286143Y-16451667D01*
X16295667Y-16461190D01*
X16305190Y-16480238D01*
X16305190Y-16537381D01*
X16295667Y-16556428D01*
X16286143Y-16565952D01*
X16267095Y-16575476D01*
X16238524Y-16575476D01*
X16362333Y-16442143D02*
X16438524Y-16442143D01*
X16390905Y-16375476D02*
X16390905Y-16546905D01*
X16400428Y-16565952D01*
X16419476Y-16575476D01*
X16438524Y-16575476D01*
X16657571Y-16442143D02*
X16657571Y-16642143D01*
X16657571Y-16451667D02*
X16676619Y-16442143D01*
X16714714Y-16442143D01*
X16733762Y-16451667D01*
X16743286Y-16461190D01*
X16752809Y-16480238D01*
X16752809Y-16537381D01*
X16743286Y-16556428D01*
X16733762Y-16565952D01*
X16714714Y-16575476D01*
X16676619Y-16575476D01*
X16657571Y-16565952D01*
X16867095Y-16575476D02*
X16848048Y-16565952D01*
X16838524Y-16546905D01*
X16838524Y-16375476D01*
X17029000Y-16575476D02*
X17029000Y-16470714D01*
X17019476Y-16451667D01*
X17000429Y-16442143D01*
X16962333Y-16442143D01*
X16943286Y-16451667D01*
X17029000Y-16565952D02*
X17009952Y-16575476D01*
X16962333Y-16575476D01*
X16943286Y-16565952D01*
X16933762Y-16546905D01*
X16933762Y-16527857D01*
X16943286Y-16508809D01*
X16962333Y-16499286D01*
X17009952Y-16499286D01*
X17029000Y-16489762D01*
X17095667Y-16442143D02*
X17171857Y-16442143D01*
X17124238Y-16375476D02*
X17124238Y-16546905D01*
X17133762Y-16565952D01*
X17152810Y-16575476D01*
X17171857Y-16575476D01*
X17314714Y-16565952D02*
X17295667Y-16575476D01*
X17257571Y-16575476D01*
X17238524Y-16565952D01*
X17229000Y-16546905D01*
X17229000Y-16470714D01*
X17238524Y-16451667D01*
X17257571Y-16442143D01*
X17295667Y-16442143D01*
X17314714Y-16451667D01*
X17324238Y-16470714D01*
X17324238Y-16489762D01*
X17229000Y-16508809D01*
X17495667Y-16575476D02*
X17495667Y-16375476D01*
X17495667Y-16565952D02*
X17476619Y-16575476D01*
X17438524Y-16575476D01*
X17419476Y-16565952D01*
X17409952Y-16556428D01*
X17400429Y-16537381D01*
X17400429Y-16480238D01*
X17409952Y-16461190D01*
X17419476Y-16451667D01*
X17438524Y-16442143D01*
X17476619Y-16442143D01*
X17495667Y-16451667D01*
X17571857Y-16651667D02*
X17581381Y-16642143D01*
X17600429Y-16613571D01*
X17609952Y-16594524D01*
X17619476Y-16565952D01*
X17629000Y-16518333D01*
X17629000Y-16480238D01*
X17619476Y-16432619D01*
X17609952Y-16404048D01*
X17600429Y-16385000D01*
X17581381Y-16356428D01*
X17571857Y-16346905D01*
M02*
