M48
; DRILL file {KiCad (6.0.9)} date Tue Jan 10 14:41:46 2023
; FORMAT={-:-/ absolute / inch / decimal}
; #@! TF.CreationDate,2023-01-10T14:41:46+08:00
; #@! TF.GenerationSoftware,Kicad,Pcbnew,(6.0.9)
; #@! TF.FileFunction,Plated,1,2,PTH
FMAT,2
INCH
; #@! TA.AperFunction,Plated,PTH,ViaDrill
T1C0.0157
; #@! TA.AperFunction,Plated,PTH,ComponentDrill
T2C0.0300
; #@! TA.AperFunction,Plated,PTH,ComponentDrill
T3C0.0394
; #@! TA.AperFunction,Plated,PTH,ComponentDrill
T4C0.0402
; #@! TA.AperFunction,Plated,PTH,ComponentDrill
T5C0.0591
%
G90
G05
T1
X4.4488Y-4.252
X4.5276Y-3.8583
X4.6457Y-4.3307
X4.7835Y-4.1929
X4.8819Y-2.3425
X4.8819Y-3.4252
X4.9252Y-2.7519
X5.1772Y-2.2441
X5.3346Y-1.9685
X5.5906Y-2.126
X5.9055Y-2.4213
X6.0827Y-2.7165
X6.2795Y-2.3622
X6.3583Y-2.5984
X6.4173Y-1.7717
X6.6535Y-3.1457
X6.8307Y-3.937
X6.8307Y-4.7244
T2
X5.6299Y-1.6732
X5.7283Y-1.6732
X5.9236Y-1.6732
X6.0236Y-1.6732
X6.1236Y-1.6732
T3
X4.4648Y-1.9587
X4.4648Y-2.0587
X4.4648Y-2.1587
X4.4648Y-2.2587
X4.4648Y-2.3587
X4.4648Y-2.4587
X4.4648Y-2.5587
X4.4648Y-2.6587
X4.4648Y-2.7587
X4.4648Y-2.8587
X4.4648Y-2.9587
X4.4648Y-3.0587
X4.4648Y-3.1587
X4.4648Y-3.2587
X4.4648Y-3.3587
X5.0648Y-1.9587
X5.0648Y-2.0587
X5.0648Y-2.1587
X5.0648Y-2.2587
X5.0648Y-2.3587
X5.0648Y-2.4587
X5.0648Y-2.5587
X5.0648Y-2.6587
X5.0648Y-2.7587
X5.0648Y-2.8587
X5.0648Y-2.9587
X5.0648Y-3.0587
X5.0648Y-3.1587
X5.0648Y-3.2587
X5.0648Y-3.3587
T4
X4.7087Y-5.2815
X4.7087Y-5.7815
T5
X4.6335Y-4.4866
X4.8835Y-4.3866
X5.4209Y-2.1835
X5.4209Y-3.7177
X5.4209Y-4.4866
X5.6709Y-2.0835
X5.6709Y-3.6177
X5.6709Y-4.3866
X5.8736Y-2.9512
X6.1236Y-2.8512
X6.3264Y-2.1835
X6.3264Y-3.7189
X6.3264Y-4.4866
X6.5764Y-2.0835
X6.5764Y-3.6189
X6.5764Y-4.3866
T0
M30
