%TF.GenerationSoftware,KiCad,Pcbnew,(6.0.9)*%
%TF.CreationDate,2023-01-10T14:41:21+08:00*%
%TF.ProjectId,keyboard-nano,6b657962-6f61-4726-942d-6e616e6f2e6b,rev?*%
%TF.SameCoordinates,Original*%
%TF.FileFunction,Legend,Top*%
%TF.FilePolarity,Positive*%
%FSLAX46Y46*%
G04 Gerber Fmt 4.6, Leading zero omitted, Abs format (unit mm)*
G04 Created by KiCad (PCBNEW (6.0.9)) date 2023-01-10 14:41:21*
%MOMM*%
%LPD*%
G01*
G04 APERTURE LIST*
%ADD10C,0.200000*%
%ADD11C,0.150000*%
%ADD12C,0.120000*%
G04 APERTURE END LIST*
D10*
X112214285Y-42857142D02*
X115928571Y-42857142D01*
X113642857Y-42857142D02*
X113500000Y-44285714D01*
X113071428Y-45142857D01*
X112500000Y-45857142D01*
X113642857Y-44000000D02*
X115500000Y-43857142D01*
X115500000Y-44857142D01*
X115214285Y-45857142D01*
X114214285Y-45857142D01*
X118785714Y-44000000D02*
X120214285Y-44000000D01*
X116928571Y-44428571D02*
X118214285Y-44428571D01*
X116928571Y-45000000D02*
X118214285Y-45000000D01*
X118785714Y-45857142D02*
X120214285Y-45857142D01*
X117642857Y-45857142D02*
X118214285Y-45857142D01*
X116928571Y-43857142D02*
X116928571Y-45857142D01*
X116928571Y-43857142D02*
X118214285Y-43857142D01*
X118214285Y-45857142D01*
X118928571Y-42428571D02*
X118928571Y-44000000D01*
X118928571Y-44285714D02*
X118928571Y-45857142D01*
X116642857Y-43428571D02*
X118214285Y-43142857D01*
X118357142Y-43428571D01*
X117928571Y-42857142D02*
X118357142Y-43142857D01*
X120214285Y-43571428D02*
X120214285Y-44000000D01*
X120357142Y-45285714D02*
X120214285Y-45857142D01*
X117357142Y-42428571D02*
X116928571Y-43285714D01*
X120071428Y-42857142D02*
X118785714Y-43142857D01*
X120071428Y-44571428D02*
X118785714Y-45000000D01*
X122214285Y-43571428D02*
X124642857Y-43571428D01*
X122071428Y-44285714D02*
X124785714Y-44285714D01*
X122500000Y-45428571D02*
X124500000Y-45428571D01*
X123214285Y-45857142D02*
X124785714Y-45857142D01*
X122500000Y-44714285D02*
X122500000Y-45428571D01*
X123357142Y-43571428D02*
X123357142Y-45428571D01*
X124500000Y-44714285D02*
X124500000Y-45428571D01*
X121214285Y-42571428D02*
X121785714Y-43142857D01*
X122500000Y-43000000D02*
X122642857Y-43428571D01*
X122357142Y-42714285D02*
X123357142Y-42857142D01*
X123500000Y-43285714D01*
X121071428Y-44000000D02*
X121642857Y-44000000D01*
X121642857Y-45285714D01*
X121071428Y-45857142D01*
X124214285Y-43000000D02*
X123928571Y-43428571D01*
X121500000Y-45571428D02*
X123214285Y-45857142D01*
X124357142Y-42428571D02*
X123214285Y-42571428D01*
X125500000Y-43285714D02*
X126642857Y-43285714D01*
X127071428Y-44714285D02*
X129071428Y-44714285D01*
X126785714Y-45857142D02*
X129214285Y-45857142D01*
X125642857Y-45857142D02*
X126071428Y-45857142D01*
X126214285Y-42428571D02*
X126214285Y-45857142D01*
X126928571Y-43000000D02*
X126928571Y-43428571D01*
X127928571Y-42428571D02*
X127928571Y-43000000D01*
X127928571Y-44714285D02*
X127928571Y-45714285D01*
X126928571Y-43000000D02*
X129214285Y-43000000D01*
X129214285Y-43428571D01*
X127357142Y-44000000D02*
X126928571Y-44142857D01*
X128357142Y-43000000D02*
X128357142Y-44000000D01*
X129071428Y-44000000D01*
X129214285Y-43714285D01*
X127642857Y-43000000D02*
X127500000Y-43857142D01*
X126642857Y-44142857D02*
X125500000Y-44428571D01*
X130357142Y-43571428D02*
X131500000Y-43571428D01*
X132071428Y-43571428D02*
X133214285Y-43571428D01*
X129928571Y-44000000D02*
X133500000Y-44000000D01*
X130357142Y-45714285D02*
X131500000Y-45714285D01*
X130357142Y-42714285D02*
X130357142Y-43571428D01*
X130500000Y-44714285D02*
X130500000Y-45857142D01*
X130357142Y-42714285D02*
X131500000Y-42714285D01*
X131500000Y-43571428D01*
X130071428Y-44857142D02*
X131500000Y-44857142D01*
X131500000Y-45857142D01*
X132071428Y-42714285D02*
X132071428Y-43571428D01*
X132071428Y-42714285D02*
X133357142Y-42714285D01*
X133357142Y-43571428D01*
X131642857Y-44000000D02*
X133642857Y-44857142D01*
X131642857Y-43714285D02*
X131071428Y-44428571D01*
X129928571Y-44857142D01*
X132071428Y-44857142D02*
X133357142Y-44857142D01*
X133357142Y-45857142D01*
X132071428Y-44857142D02*
X132071428Y-45857142D01*
X132071428Y-45714285D02*
X133357142Y-45714285D01*
X159166666Y-46000000D02*
X159928571Y-46000000D01*
X158690476Y-46095238D02*
X159357142Y-46095238D01*
X157833333Y-46571428D02*
X158500000Y-46571428D01*
X158690476Y-47047619D02*
X160309523Y-47047619D01*
X157833333Y-47333333D02*
X158500000Y-47333333D01*
X159738095Y-47904761D02*
X160309523Y-47904761D01*
X157833333Y-45809523D02*
X157833333Y-47619047D01*
X157833333Y-45809523D02*
X158500000Y-45809523D01*
X158500000Y-47333333D01*
X159738095Y-47047619D02*
X159738095Y-47904761D01*
X160309523Y-47619047D02*
X160309523Y-47904761D01*
X159071428Y-47523809D02*
X158785714Y-47904761D01*
X160214285Y-46476190D02*
X160214285Y-46761904D01*
X159357142Y-46285714D02*
X159642857Y-46666666D01*
X160023809Y-46761904D01*
X159166666Y-45619047D02*
X159357142Y-46380952D01*
X159166666Y-47047619D02*
X159071428Y-47714285D01*
X160023809Y-46190476D02*
X159452380Y-46476190D01*
X158690476Y-46666666D01*
X160214285Y-45904761D02*
X159642857Y-46000000D01*
X162119047Y-46000000D02*
X162880952Y-46000000D01*
X161642857Y-46095238D02*
X162309523Y-46095238D01*
X160785714Y-46571428D02*
X161452380Y-46571428D01*
X161642857Y-47047619D02*
X163261904Y-47047619D01*
X160785714Y-47333333D02*
X161452380Y-47333333D01*
X162690476Y-47904761D02*
X163261904Y-47904761D01*
X160785714Y-45809523D02*
X160785714Y-47619047D01*
X160785714Y-45809523D02*
X161452380Y-45809523D01*
X161452380Y-47333333D01*
X162690476Y-47047619D02*
X162690476Y-47904761D01*
X163261904Y-47619047D02*
X163261904Y-47904761D01*
X162023809Y-47523809D02*
X161738095Y-47904761D01*
X163166666Y-46476190D02*
X163166666Y-46761904D01*
X162309523Y-46285714D02*
X162595238Y-46666666D01*
X162976190Y-46761904D01*
X162119047Y-45619047D02*
X162309523Y-46380952D01*
X162119047Y-47047619D02*
X162023809Y-47714285D01*
X162976190Y-46190476D02*
X162404761Y-46476190D01*
X161642857Y-46666666D01*
X163166666Y-45904761D02*
X162595238Y-46000000D01*
X164119047Y-46190476D02*
X165928571Y-46190476D01*
X164119047Y-46571428D02*
X165928571Y-46571428D01*
X164023809Y-47047619D02*
X166023809Y-47047619D01*
X164119047Y-47428571D02*
X165928571Y-47428571D01*
X163738095Y-47904761D02*
X166214285Y-47904761D01*
X164119047Y-45809523D02*
X164119047Y-46571428D01*
X164976190Y-46761904D02*
X164976190Y-47904761D01*
X164119047Y-45809523D02*
X165928571Y-45809523D01*
X165928571Y-46571428D01*
X164309523Y-46761904D02*
X163738095Y-47333333D01*
X166976190Y-47142857D02*
X168880952Y-47142857D01*
X166690476Y-47904761D02*
X169166666Y-47904761D01*
X167928571Y-45619047D02*
X167928571Y-46000000D01*
X167928571Y-47142857D02*
X167928571Y-47904761D01*
X166785714Y-46000000D02*
X169071428Y-46000000D01*
X169071428Y-46285714D01*
X167547619Y-46095238D02*
X167452380Y-46571428D01*
X167261904Y-46666666D01*
X166785714Y-46857142D01*
X168309523Y-46000000D02*
X168309523Y-46761904D01*
X168976190Y-46761904D01*
X168976190Y-46571428D01*
X166785714Y-46000000D02*
X166785714Y-46380952D01*
X169928571Y-45809523D02*
X172119047Y-45809523D01*
X170309523Y-46666666D02*
X171833333Y-46666666D01*
X170309523Y-47047619D02*
X171833333Y-47047619D01*
X170595238Y-47904761D02*
X171071428Y-47904761D01*
X170309523Y-46190476D02*
X170309523Y-47047619D01*
X171071428Y-47047619D02*
X171071428Y-47904761D01*
X170309523Y-46190476D02*
X171833333Y-46190476D01*
X171833333Y-47047619D01*
X171642857Y-47333333D02*
X172119047Y-47809523D01*
X170500000Y-47333333D02*
X170023809Y-47809523D01*
X171071428Y-45809523D02*
X170880952Y-46190476D01*
X169928571Y-45809523D02*
X169928571Y-46952380D01*
X169738095Y-47809523D01*
X173357142Y-47333333D02*
X173738095Y-47333333D01*
X172976190Y-47904761D02*
X173928571Y-47904761D01*
X174500000Y-47904761D02*
X175071428Y-47904761D01*
X172976190Y-46571428D02*
X172976190Y-47904761D01*
X174500000Y-46000000D02*
X174500000Y-47333333D01*
X175071428Y-45714285D02*
X175071428Y-47904761D01*
X173452380Y-45714285D02*
X174119047Y-46476190D01*
X174023809Y-47523809D02*
X174023809Y-47904761D01*
X173357142Y-45619047D02*
X173261904Y-46000000D01*
X172595238Y-46571428D01*
X172880952Y-46571428D02*
X173833333Y-46666666D01*
X173738095Y-47333333D01*
D11*
%TO.C,C1*%
X126833333Y-105357142D02*
X126785714Y-105404761D01*
X126642857Y-105452380D01*
X126547619Y-105452380D01*
X126404761Y-105404761D01*
X126309523Y-105309523D01*
X126261904Y-105214285D01*
X126214285Y-105023809D01*
X126214285Y-104880952D01*
X126261904Y-104690476D01*
X126309523Y-104595238D01*
X126404761Y-104500000D01*
X126547619Y-104452380D01*
X126642857Y-104452380D01*
X126785714Y-104500000D01*
X126833333Y-104547619D01*
X127785714Y-105452380D02*
X127214285Y-105452380D01*
X127500000Y-105452380D02*
X127500000Y-104452380D01*
X127404761Y-104595238D01*
X127309523Y-104690476D01*
X127214285Y-104738095D01*
%TO.C,CB6*%
X163833333Y-50483142D02*
X163785714Y-50530761D01*
X163642857Y-50578380D01*
X163547619Y-50578380D01*
X163404761Y-50530761D01*
X163309523Y-50435523D01*
X163261904Y-50340285D01*
X163214285Y-50149809D01*
X163214285Y-50006952D01*
X163261904Y-49816476D01*
X163309523Y-49721238D01*
X163404761Y-49626000D01*
X163547619Y-49578380D01*
X163642857Y-49578380D01*
X163785714Y-49626000D01*
X163833333Y-49673619D01*
X164595238Y-50054571D02*
X164738095Y-50102190D01*
X164785714Y-50149809D01*
X164833333Y-50245047D01*
X164833333Y-50387904D01*
X164785714Y-50483142D01*
X164738095Y-50530761D01*
X164642857Y-50578380D01*
X164261904Y-50578380D01*
X164261904Y-49578380D01*
X164595238Y-49578380D01*
X164690476Y-49626000D01*
X164738095Y-49673619D01*
X164785714Y-49768857D01*
X164785714Y-49864095D01*
X164738095Y-49959333D01*
X164690476Y-50006952D01*
X164595238Y-50054571D01*
X164261904Y-50054571D01*
X165690476Y-49578380D02*
X165500000Y-49578380D01*
X165404761Y-49626000D01*
X165357142Y-49673619D01*
X165261904Y-49816476D01*
X165214285Y-50006952D01*
X165214285Y-50387904D01*
X165261904Y-50483142D01*
X165309523Y-50530761D01*
X165404761Y-50578380D01*
X165595238Y-50578380D01*
X165690476Y-50530761D01*
X165738095Y-50483142D01*
X165785714Y-50387904D01*
X165785714Y-50149809D01*
X165738095Y-50054571D01*
X165690476Y-50006952D01*
X165595238Y-49959333D01*
X165404761Y-49959333D01*
X165309523Y-50006952D01*
X165261904Y-50054571D01*
X165214285Y-50149809D01*
%TO.C,R11*%
X113357142Y-107602380D02*
X113023809Y-107126190D01*
X112785714Y-107602380D02*
X112785714Y-106602380D01*
X113166666Y-106602380D01*
X113261904Y-106650000D01*
X113309523Y-106697619D01*
X113357142Y-106792857D01*
X113357142Y-106935714D01*
X113309523Y-107030952D01*
X113261904Y-107078571D01*
X113166666Y-107126190D01*
X112785714Y-107126190D01*
X114309523Y-107602380D02*
X113738095Y-107602380D01*
X114023809Y-107602380D02*
X114023809Y-106602380D01*
X113928571Y-106745238D01*
X113833333Y-106840476D01*
X113738095Y-106888095D01*
X115261904Y-107602380D02*
X114690476Y-107602380D01*
X114976190Y-107602380D02*
X114976190Y-106602380D01*
X114880952Y-106745238D01*
X114785714Y-106840476D01*
X114690476Y-106888095D01*
%TO.C,R6*%
X152833333Y-88802380D02*
X152500000Y-88326190D01*
X152261904Y-88802380D02*
X152261904Y-87802380D01*
X152642857Y-87802380D01*
X152738095Y-87850000D01*
X152785714Y-87897619D01*
X152833333Y-87992857D01*
X152833333Y-88135714D01*
X152785714Y-88230952D01*
X152738095Y-88278571D01*
X152642857Y-88326190D01*
X152261904Y-88326190D01*
X153690476Y-87802380D02*
X153500000Y-87802380D01*
X153404761Y-87850000D01*
X153357142Y-87897619D01*
X153261904Y-88040476D01*
X153214285Y-88230952D01*
X153214285Y-88611904D01*
X153261904Y-88707142D01*
X153309523Y-88754761D01*
X153404761Y-88802380D01*
X153595238Y-88802380D01*
X153690476Y-88754761D01*
X153738095Y-88707142D01*
X153785714Y-88611904D01*
X153785714Y-88373809D01*
X153738095Y-88278571D01*
X153690476Y-88230952D01*
X153595238Y-88183333D01*
X153404761Y-88183333D01*
X153309523Y-88230952D01*
X153261904Y-88278571D01*
X153214285Y-88373809D01*
%TO.C,CB4*%
X163833333Y-89483142D02*
X163785714Y-89530761D01*
X163642857Y-89578380D01*
X163547619Y-89578380D01*
X163404761Y-89530761D01*
X163309523Y-89435523D01*
X163261904Y-89340285D01*
X163214285Y-89149809D01*
X163214285Y-89006952D01*
X163261904Y-88816476D01*
X163309523Y-88721238D01*
X163404761Y-88626000D01*
X163547619Y-88578380D01*
X163642857Y-88578380D01*
X163785714Y-88626000D01*
X163833333Y-88673619D01*
X164595238Y-89054571D02*
X164738095Y-89102190D01*
X164785714Y-89149809D01*
X164833333Y-89245047D01*
X164833333Y-89387904D01*
X164785714Y-89483142D01*
X164738095Y-89530761D01*
X164642857Y-89578380D01*
X164261904Y-89578380D01*
X164261904Y-88578380D01*
X164595238Y-88578380D01*
X164690476Y-88626000D01*
X164738095Y-88673619D01*
X164785714Y-88768857D01*
X164785714Y-88864095D01*
X164738095Y-88959333D01*
X164690476Y-89006952D01*
X164595238Y-89054571D01*
X164261904Y-89054571D01*
X165690476Y-88911714D02*
X165690476Y-89578380D01*
X165452380Y-88530761D02*
X165214285Y-89245047D01*
X165833333Y-89245047D01*
%TO.C,R5*%
X152833333Y-124952380D02*
X152500000Y-124476190D01*
X152261904Y-124952380D02*
X152261904Y-123952380D01*
X152642857Y-123952380D01*
X152738095Y-124000000D01*
X152785714Y-124047619D01*
X152833333Y-124142857D01*
X152833333Y-124285714D01*
X152785714Y-124380952D01*
X152738095Y-124428571D01*
X152642857Y-124476190D01*
X152261904Y-124476190D01*
X153738095Y-123952380D02*
X153261904Y-123952380D01*
X153214285Y-124428571D01*
X153261904Y-124380952D01*
X153357142Y-124333333D01*
X153595238Y-124333333D01*
X153690476Y-124380952D01*
X153738095Y-124428571D01*
X153785714Y-124523809D01*
X153785714Y-124761904D01*
X153738095Y-124857142D01*
X153690476Y-124904761D01*
X153595238Y-124952380D01*
X153357142Y-124952380D01*
X153261904Y-124904761D01*
X153214285Y-124857142D01*
%TO.C,CB3*%
X140833333Y-89453142D02*
X140785714Y-89500761D01*
X140642857Y-89548380D01*
X140547619Y-89548380D01*
X140404761Y-89500761D01*
X140309523Y-89405523D01*
X140261904Y-89310285D01*
X140214285Y-89119809D01*
X140214285Y-88976952D01*
X140261904Y-88786476D01*
X140309523Y-88691238D01*
X140404761Y-88596000D01*
X140547619Y-88548380D01*
X140642857Y-88548380D01*
X140785714Y-88596000D01*
X140833333Y-88643619D01*
X141595238Y-89024571D02*
X141738095Y-89072190D01*
X141785714Y-89119809D01*
X141833333Y-89215047D01*
X141833333Y-89357904D01*
X141785714Y-89453142D01*
X141738095Y-89500761D01*
X141642857Y-89548380D01*
X141261904Y-89548380D01*
X141261904Y-88548380D01*
X141595238Y-88548380D01*
X141690476Y-88596000D01*
X141738095Y-88643619D01*
X141785714Y-88738857D01*
X141785714Y-88834095D01*
X141738095Y-88929333D01*
X141690476Y-88976952D01*
X141595238Y-89024571D01*
X141261904Y-89024571D01*
X142166666Y-88548380D02*
X142785714Y-88548380D01*
X142452380Y-88929333D01*
X142595238Y-88929333D01*
X142690476Y-88976952D01*
X142738095Y-89024571D01*
X142785714Y-89119809D01*
X142785714Y-89357904D01*
X142738095Y-89453142D01*
X142690476Y-89500761D01*
X142595238Y-89548380D01*
X142309523Y-89548380D01*
X142214285Y-89500761D01*
X142166666Y-89453142D01*
%TO.C,D6*%
X152261904Y-117802380D02*
X152261904Y-116802380D01*
X152500000Y-116802380D01*
X152642857Y-116850000D01*
X152738095Y-116945238D01*
X152785714Y-117040476D01*
X152833333Y-117230952D01*
X152833333Y-117373809D01*
X152785714Y-117564285D01*
X152738095Y-117659523D01*
X152642857Y-117754761D01*
X152500000Y-117802380D01*
X152261904Y-117802380D01*
X153690476Y-116802380D02*
X153500000Y-116802380D01*
X153404761Y-116850000D01*
X153357142Y-116897619D01*
X153261904Y-117040476D01*
X153214285Y-117230952D01*
X153214285Y-117611904D01*
X153261904Y-117707142D01*
X153309523Y-117754761D01*
X153404761Y-117802380D01*
X153595238Y-117802380D01*
X153690476Y-117754761D01*
X153738095Y-117707142D01*
X153785714Y-117611904D01*
X153785714Y-117373809D01*
X153738095Y-117278571D01*
X153690476Y-117230952D01*
X153595238Y-117183333D01*
X153404761Y-117183333D01*
X153309523Y-117230952D01*
X153261904Y-117278571D01*
X153214285Y-117373809D01*
%TO.C,D10*%
X151785714Y-64802380D02*
X151785714Y-63802380D01*
X152023809Y-63802380D01*
X152166666Y-63850000D01*
X152261904Y-63945238D01*
X152309523Y-64040476D01*
X152357142Y-64230952D01*
X152357142Y-64373809D01*
X152309523Y-64564285D01*
X152261904Y-64659523D01*
X152166666Y-64754761D01*
X152023809Y-64802380D01*
X151785714Y-64802380D01*
X153309523Y-64802380D02*
X152738095Y-64802380D01*
X153023809Y-64802380D02*
X153023809Y-63802380D01*
X152928571Y-63945238D01*
X152833333Y-64040476D01*
X152738095Y-64088095D01*
X153928571Y-63802380D02*
X154023809Y-63802380D01*
X154119047Y-63850000D01*
X154166666Y-63897619D01*
X154214285Y-63992857D01*
X154261904Y-64183333D01*
X154261904Y-64421428D01*
X154214285Y-64611904D01*
X154166666Y-64707142D01*
X154119047Y-64754761D01*
X154023809Y-64802380D01*
X153928571Y-64802380D01*
X153833333Y-64754761D01*
X153785714Y-64707142D01*
X153738095Y-64611904D01*
X153690476Y-64421428D01*
X153690476Y-64183333D01*
X153738095Y-63992857D01*
X153785714Y-63897619D01*
X153833333Y-63850000D01*
X153928571Y-63802380D01*
%TO.C,D2*%
X139761904Y-42952380D02*
X139761904Y-41952380D01*
X140000000Y-41952380D01*
X140142857Y-42000000D01*
X140238095Y-42095238D01*
X140285714Y-42190476D01*
X140333333Y-42380952D01*
X140333333Y-42523809D01*
X140285714Y-42714285D01*
X140238095Y-42809523D01*
X140142857Y-42904761D01*
X140000000Y-42952380D01*
X139761904Y-42952380D01*
X140714285Y-42047619D02*
X140761904Y-42000000D01*
X140857142Y-41952380D01*
X141095238Y-41952380D01*
X141190476Y-42000000D01*
X141238095Y-42047619D01*
X141285714Y-42142857D01*
X141285714Y-42238095D01*
X141238095Y-42380952D01*
X140666666Y-42952380D01*
X141285714Y-42952380D01*
%TO.C,C3*%
X126833333Y-88507142D02*
X126785714Y-88554761D01*
X126642857Y-88602380D01*
X126547619Y-88602380D01*
X126404761Y-88554761D01*
X126309523Y-88459523D01*
X126261904Y-88364285D01*
X126214285Y-88173809D01*
X126214285Y-88030952D01*
X126261904Y-87840476D01*
X126309523Y-87745238D01*
X126404761Y-87650000D01*
X126547619Y-87602380D01*
X126642857Y-87602380D01*
X126785714Y-87650000D01*
X126833333Y-87697619D01*
X127166666Y-87602380D02*
X127785714Y-87602380D01*
X127452380Y-87983333D01*
X127595238Y-87983333D01*
X127690476Y-88030952D01*
X127738095Y-88078571D01*
X127785714Y-88173809D01*
X127785714Y-88411904D01*
X127738095Y-88507142D01*
X127690476Y-88554761D01*
X127595238Y-88602380D01*
X127309523Y-88602380D01*
X127214285Y-88554761D01*
X127166666Y-88507142D01*
%TO.C,D3*%
X157261904Y-42952380D02*
X157261904Y-41952380D01*
X157500000Y-41952380D01*
X157642857Y-42000000D01*
X157738095Y-42095238D01*
X157785714Y-42190476D01*
X157833333Y-42380952D01*
X157833333Y-42523809D01*
X157785714Y-42714285D01*
X157738095Y-42809523D01*
X157642857Y-42904761D01*
X157500000Y-42952380D01*
X157261904Y-42952380D01*
X158166666Y-41952380D02*
X158785714Y-41952380D01*
X158452380Y-42333333D01*
X158595238Y-42333333D01*
X158690476Y-42380952D01*
X158738095Y-42428571D01*
X158785714Y-42523809D01*
X158785714Y-42761904D01*
X158738095Y-42857142D01*
X158690476Y-42904761D01*
X158595238Y-42952380D01*
X158309523Y-42952380D01*
X158214285Y-42904761D01*
X158166666Y-42857142D01*
%TO.C,D12*%
X117285714Y-104302380D02*
X117285714Y-103302380D01*
X117523809Y-103302380D01*
X117666666Y-103350000D01*
X117761904Y-103445238D01*
X117809523Y-103540476D01*
X117857142Y-103730952D01*
X117857142Y-103873809D01*
X117809523Y-104064285D01*
X117761904Y-104159523D01*
X117666666Y-104254761D01*
X117523809Y-104302380D01*
X117285714Y-104302380D01*
X118809523Y-104302380D02*
X118238095Y-104302380D01*
X118523809Y-104302380D02*
X118523809Y-103302380D01*
X118428571Y-103445238D01*
X118333333Y-103540476D01*
X118238095Y-103588095D01*
X119190476Y-103397619D02*
X119238095Y-103350000D01*
X119333333Y-103302380D01*
X119571428Y-103302380D01*
X119666666Y-103350000D01*
X119714285Y-103397619D01*
X119761904Y-103492857D01*
X119761904Y-103588095D01*
X119714285Y-103730952D01*
X119142857Y-104302380D01*
X119761904Y-104302380D01*
%TO.C,D1*%
X141104404Y-45452380D02*
X141104404Y-44452380D01*
X141342500Y-44452380D01*
X141485357Y-44500000D01*
X141580595Y-44595238D01*
X141628214Y-44690476D01*
X141675833Y-44880952D01*
X141675833Y-45023809D01*
X141628214Y-45214285D01*
X141580595Y-45309523D01*
X141485357Y-45404761D01*
X141342500Y-45452380D01*
X141104404Y-45452380D01*
X142628214Y-45452380D02*
X142056785Y-45452380D01*
X142342500Y-45452380D02*
X142342500Y-44452380D01*
X142247261Y-44595238D01*
X142152023Y-44690476D01*
X142056785Y-44738095D01*
%TO.C,CB2*%
X163833333Y-108983142D02*
X163785714Y-109030761D01*
X163642857Y-109078380D01*
X163547619Y-109078380D01*
X163404761Y-109030761D01*
X163309523Y-108935523D01*
X163261904Y-108840285D01*
X163214285Y-108649809D01*
X163214285Y-108506952D01*
X163261904Y-108316476D01*
X163309523Y-108221238D01*
X163404761Y-108126000D01*
X163547619Y-108078380D01*
X163642857Y-108078380D01*
X163785714Y-108126000D01*
X163833333Y-108173619D01*
X164595238Y-108554571D02*
X164738095Y-108602190D01*
X164785714Y-108649809D01*
X164833333Y-108745047D01*
X164833333Y-108887904D01*
X164785714Y-108983142D01*
X164738095Y-109030761D01*
X164642857Y-109078380D01*
X164261904Y-109078380D01*
X164261904Y-108078380D01*
X164595238Y-108078380D01*
X164690476Y-108126000D01*
X164738095Y-108173619D01*
X164785714Y-108268857D01*
X164785714Y-108364095D01*
X164738095Y-108459333D01*
X164690476Y-108506952D01*
X164595238Y-108554571D01*
X164261904Y-108554571D01*
X165214285Y-108173619D02*
X165261904Y-108126000D01*
X165357142Y-108078380D01*
X165595238Y-108078380D01*
X165690476Y-108126000D01*
X165738095Y-108173619D01*
X165785714Y-108268857D01*
X165785714Y-108364095D01*
X165738095Y-108506952D01*
X165166666Y-109078380D01*
X165785714Y-109078380D01*
%TO.C,CB5*%
X140833333Y-50483142D02*
X140785714Y-50530761D01*
X140642857Y-50578380D01*
X140547619Y-50578380D01*
X140404761Y-50530761D01*
X140309523Y-50435523D01*
X140261904Y-50340285D01*
X140214285Y-50149809D01*
X140214285Y-50006952D01*
X140261904Y-49816476D01*
X140309523Y-49721238D01*
X140404761Y-49626000D01*
X140547619Y-49578380D01*
X140642857Y-49578380D01*
X140785714Y-49626000D01*
X140833333Y-49673619D01*
X141595238Y-50054571D02*
X141738095Y-50102190D01*
X141785714Y-50149809D01*
X141833333Y-50245047D01*
X141833333Y-50387904D01*
X141785714Y-50483142D01*
X141738095Y-50530761D01*
X141642857Y-50578380D01*
X141261904Y-50578380D01*
X141261904Y-49578380D01*
X141595238Y-49578380D01*
X141690476Y-49626000D01*
X141738095Y-49673619D01*
X141785714Y-49768857D01*
X141785714Y-49864095D01*
X141738095Y-49959333D01*
X141690476Y-50006952D01*
X141595238Y-50054571D01*
X141261904Y-50054571D01*
X142738095Y-49578380D02*
X142261904Y-49578380D01*
X142214285Y-50054571D01*
X142261904Y-50006952D01*
X142357142Y-49959333D01*
X142595238Y-49959333D01*
X142690476Y-50006952D01*
X142738095Y-50054571D01*
X142785714Y-50149809D01*
X142785714Y-50387904D01*
X142738095Y-50483142D01*
X142690476Y-50530761D01*
X142595238Y-50578380D01*
X142357142Y-50578380D01*
X142261904Y-50530761D01*
X142214285Y-50483142D01*
%TO.C,R2*%
X145333333Y-45452380D02*
X145000000Y-44976190D01*
X144761904Y-45452380D02*
X144761904Y-44452380D01*
X145142857Y-44452380D01*
X145238095Y-44500000D01*
X145285714Y-44547619D01*
X145333333Y-44642857D01*
X145333333Y-44785714D01*
X145285714Y-44880952D01*
X145238095Y-44928571D01*
X145142857Y-44976190D01*
X144761904Y-44976190D01*
X145714285Y-44547619D02*
X145761904Y-44500000D01*
X145857142Y-44452380D01*
X146095238Y-44452380D01*
X146190476Y-44500000D01*
X146238095Y-44547619D01*
X146285714Y-44642857D01*
X146285714Y-44738095D01*
X146238095Y-44880952D01*
X145666666Y-45452380D01*
X146285714Y-45452380D01*
%TO.C,BT1*%
X118814285Y-127078571D02*
X118957142Y-127126190D01*
X119004761Y-127173809D01*
X119052380Y-127269047D01*
X119052380Y-127411904D01*
X119004761Y-127507142D01*
X118957142Y-127554761D01*
X118861904Y-127602380D01*
X118480952Y-127602380D01*
X118480952Y-126602380D01*
X118814285Y-126602380D01*
X118909523Y-126650000D01*
X118957142Y-126697619D01*
X119004761Y-126792857D01*
X119004761Y-126888095D01*
X118957142Y-126983333D01*
X118909523Y-127030952D01*
X118814285Y-127078571D01*
X118480952Y-127078571D01*
X119338095Y-126602380D02*
X119909523Y-126602380D01*
X119623809Y-127602380D02*
X119623809Y-126602380D01*
X120766666Y-127602380D02*
X120195238Y-127602380D01*
X120480952Y-127602380D02*
X120480952Y-126602380D01*
X120385714Y-126745238D01*
X120290476Y-126840476D01*
X120195238Y-126888095D01*
X115218571Y-146957142D02*
X116361428Y-146957142D01*
X131728571Y-134257142D02*
X132871428Y-134257142D01*
X132300000Y-134828571D02*
X132300000Y-133685714D01*
X154128571Y-134257142D02*
X155271428Y-134257142D01*
X115218571Y-134257142D02*
X116361428Y-134257142D01*
X115790000Y-134828571D02*
X115790000Y-133685714D01*
X131728571Y-146957142D02*
X132871428Y-146957142D01*
X154128571Y-146957142D02*
X155271428Y-146957142D01*
X154700000Y-147528571D02*
X154700000Y-146385714D01*
%TO.C,R9*%
X152833333Y-60802380D02*
X152500000Y-60326190D01*
X152261904Y-60802380D02*
X152261904Y-59802380D01*
X152642857Y-59802380D01*
X152738095Y-59850000D01*
X152785714Y-59897619D01*
X152833333Y-59992857D01*
X152833333Y-60135714D01*
X152785714Y-60230952D01*
X152738095Y-60278571D01*
X152642857Y-60326190D01*
X152261904Y-60326190D01*
X153309523Y-60802380D02*
X153500000Y-60802380D01*
X153595238Y-60754761D01*
X153642857Y-60707142D01*
X153738095Y-60564285D01*
X153785714Y-60373809D01*
X153785714Y-59992857D01*
X153738095Y-59897619D01*
X153690476Y-59850000D01*
X153595238Y-59802380D01*
X153404761Y-59802380D01*
X153309523Y-59850000D01*
X153261904Y-59897619D01*
X153214285Y-59992857D01*
X153214285Y-60230952D01*
X153261904Y-60326190D01*
X153309523Y-60373809D01*
X153404761Y-60421428D01*
X153595238Y-60421428D01*
X153690476Y-60373809D01*
X153738095Y-60326190D01*
X153785714Y-60230952D01*
%TO.C,R10*%
X166102380Y-78142857D02*
X165626190Y-78476190D01*
X166102380Y-78714285D02*
X165102380Y-78714285D01*
X165102380Y-78333333D01*
X165150000Y-78238095D01*
X165197619Y-78190476D01*
X165292857Y-78142857D01*
X165435714Y-78142857D01*
X165530952Y-78190476D01*
X165578571Y-78238095D01*
X165626190Y-78333333D01*
X165626190Y-78714285D01*
X166102380Y-77190476D02*
X166102380Y-77761904D01*
X166102380Y-77476190D02*
X165102380Y-77476190D01*
X165245238Y-77571428D01*
X165340476Y-77666666D01*
X165388095Y-77761904D01*
X165102380Y-76571428D02*
X165102380Y-76476190D01*
X165150000Y-76380952D01*
X165197619Y-76333333D01*
X165292857Y-76285714D01*
X165483333Y-76238095D01*
X165721428Y-76238095D01*
X165911904Y-76285714D01*
X166007142Y-76333333D01*
X166054761Y-76380952D01*
X166102380Y-76476190D01*
X166102380Y-76571428D01*
X166054761Y-76666666D01*
X166007142Y-76714285D01*
X165911904Y-76761904D01*
X165721428Y-76809523D01*
X165483333Y-76809523D01*
X165292857Y-76761904D01*
X165197619Y-76714285D01*
X165150000Y-76666666D01*
X165102380Y-76571428D01*
%TO.C,R7*%
X152833333Y-105952380D02*
X152500000Y-105476190D01*
X152261904Y-105952380D02*
X152261904Y-104952380D01*
X152642857Y-104952380D01*
X152738095Y-105000000D01*
X152785714Y-105047619D01*
X152833333Y-105142857D01*
X152833333Y-105285714D01*
X152785714Y-105380952D01*
X152738095Y-105428571D01*
X152642857Y-105476190D01*
X152261904Y-105476190D01*
X153166666Y-104952380D02*
X153833333Y-104952380D01*
X153404761Y-105952380D01*
%TO.C,D8*%
X152261904Y-97802380D02*
X152261904Y-96802380D01*
X152500000Y-96802380D01*
X152642857Y-96850000D01*
X152738095Y-96945238D01*
X152785714Y-97040476D01*
X152833333Y-97230952D01*
X152833333Y-97373809D01*
X152785714Y-97564285D01*
X152738095Y-97659523D01*
X152642857Y-97754761D01*
X152500000Y-97802380D01*
X152261904Y-97802380D01*
X153404761Y-97230952D02*
X153309523Y-97183333D01*
X153261904Y-97135714D01*
X153214285Y-97040476D01*
X153214285Y-96992857D01*
X153261904Y-96897619D01*
X153309523Y-96850000D01*
X153404761Y-96802380D01*
X153595238Y-96802380D01*
X153690476Y-96850000D01*
X153738095Y-96897619D01*
X153785714Y-96992857D01*
X153785714Y-97040476D01*
X153738095Y-97135714D01*
X153690476Y-97183333D01*
X153595238Y-97230952D01*
X153404761Y-97230952D01*
X153309523Y-97278571D01*
X153261904Y-97326190D01*
X153214285Y-97421428D01*
X153214285Y-97611904D01*
X153261904Y-97707142D01*
X153309523Y-97754761D01*
X153404761Y-97802380D01*
X153595238Y-97802380D01*
X153690476Y-97754761D01*
X153738095Y-97707142D01*
X153785714Y-97611904D01*
X153785714Y-97421428D01*
X153738095Y-97326190D01*
X153690476Y-97278571D01*
X153595238Y-97230952D01*
%TO.C,D7*%
X152261904Y-92452380D02*
X152261904Y-91452380D01*
X152500000Y-91452380D01*
X152642857Y-91500000D01*
X152738095Y-91595238D01*
X152785714Y-91690476D01*
X152833333Y-91880952D01*
X152833333Y-92023809D01*
X152785714Y-92214285D01*
X152738095Y-92309523D01*
X152642857Y-92404761D01*
X152500000Y-92452380D01*
X152261904Y-92452380D01*
X153166666Y-91452380D02*
X153833333Y-91452380D01*
X153404761Y-92452380D01*
%TO.C,CB1*%
X140833333Y-108983142D02*
X140785714Y-109030761D01*
X140642857Y-109078380D01*
X140547619Y-109078380D01*
X140404761Y-109030761D01*
X140309523Y-108935523D01*
X140261904Y-108840285D01*
X140214285Y-108649809D01*
X140214285Y-108506952D01*
X140261904Y-108316476D01*
X140309523Y-108221238D01*
X140404761Y-108126000D01*
X140547619Y-108078380D01*
X140642857Y-108078380D01*
X140785714Y-108126000D01*
X140833333Y-108173619D01*
X141595238Y-108554571D02*
X141738095Y-108602190D01*
X141785714Y-108649809D01*
X141833333Y-108745047D01*
X141833333Y-108887904D01*
X141785714Y-108983142D01*
X141738095Y-109030761D01*
X141642857Y-109078380D01*
X141261904Y-109078380D01*
X141261904Y-108078380D01*
X141595238Y-108078380D01*
X141690476Y-108126000D01*
X141738095Y-108173619D01*
X141785714Y-108268857D01*
X141785714Y-108364095D01*
X141738095Y-108459333D01*
X141690476Y-108506952D01*
X141595238Y-108554571D01*
X141261904Y-108554571D01*
X142785714Y-109078380D02*
X142214285Y-109078380D01*
X142500000Y-109078380D02*
X142500000Y-108078380D01*
X142404761Y-108221238D01*
X142309523Y-108316476D01*
X142214285Y-108364095D01*
%TO.C,J1*%
X120691666Y-49202380D02*
X120691666Y-49916666D01*
X120644047Y-50059523D01*
X120548809Y-50154761D01*
X120405952Y-50202380D01*
X120310714Y-50202380D01*
X121691666Y-50202380D02*
X121120238Y-50202380D01*
X121405952Y-50202380D02*
X121405952Y-49202380D01*
X121310714Y-49345238D01*
X121215476Y-49440476D01*
X121120238Y-49488095D01*
%TO.C,R8*%
X152833333Y-49802380D02*
X152500000Y-49326190D01*
X152261904Y-49802380D02*
X152261904Y-48802380D01*
X152642857Y-48802380D01*
X152738095Y-48850000D01*
X152785714Y-48897619D01*
X152833333Y-48992857D01*
X152833333Y-49135714D01*
X152785714Y-49230952D01*
X152738095Y-49278571D01*
X152642857Y-49326190D01*
X152261904Y-49326190D01*
X153404761Y-49230952D02*
X153309523Y-49183333D01*
X153261904Y-49135714D01*
X153214285Y-49040476D01*
X153214285Y-48992857D01*
X153261904Y-48897619D01*
X153309523Y-48850000D01*
X153404761Y-48802380D01*
X153595238Y-48802380D01*
X153690476Y-48850000D01*
X153738095Y-48897619D01*
X153785714Y-48992857D01*
X153785714Y-49040476D01*
X153738095Y-49135714D01*
X153690476Y-49183333D01*
X153595238Y-49230952D01*
X153404761Y-49230952D01*
X153309523Y-49278571D01*
X153261904Y-49326190D01*
X153214285Y-49421428D01*
X153214285Y-49611904D01*
X153261904Y-49707142D01*
X153309523Y-49754761D01*
X153404761Y-49802380D01*
X153595238Y-49802380D01*
X153690476Y-49754761D01*
X153738095Y-49707142D01*
X153785714Y-49611904D01*
X153785714Y-49421428D01*
X153738095Y-49326190D01*
X153690476Y-49278571D01*
X153595238Y-49230952D01*
%TO.C,D9*%
X152261904Y-53452380D02*
X152261904Y-52452380D01*
X152500000Y-52452380D01*
X152642857Y-52500000D01*
X152738095Y-52595238D01*
X152785714Y-52690476D01*
X152833333Y-52880952D01*
X152833333Y-53023809D01*
X152785714Y-53214285D01*
X152738095Y-53309523D01*
X152642857Y-53404761D01*
X152500000Y-53452380D01*
X152261904Y-53452380D01*
X153309523Y-53452380D02*
X153500000Y-53452380D01*
X153595238Y-53404761D01*
X153642857Y-53357142D01*
X153738095Y-53214285D01*
X153785714Y-53023809D01*
X153785714Y-52642857D01*
X153738095Y-52547619D01*
X153690476Y-52500000D01*
X153595238Y-52452380D01*
X153404761Y-52452380D01*
X153309523Y-52500000D01*
X153261904Y-52547619D01*
X153214285Y-52642857D01*
X153214285Y-52880952D01*
X153261904Y-52976190D01*
X153309523Y-53023809D01*
X153404761Y-53071428D01*
X153595238Y-53071428D01*
X153690476Y-53023809D01*
X153738095Y-52976190D01*
X153785714Y-52880952D01*
%TO.C,D4*%
X149261904Y-45452380D02*
X149261904Y-44452380D01*
X149500000Y-44452380D01*
X149642857Y-44500000D01*
X149738095Y-44595238D01*
X149785714Y-44690476D01*
X149833333Y-44880952D01*
X149833333Y-45023809D01*
X149785714Y-45214285D01*
X149738095Y-45309523D01*
X149642857Y-45404761D01*
X149500000Y-45452380D01*
X149261904Y-45452380D01*
X150690476Y-44785714D02*
X150690476Y-45452380D01*
X150452380Y-44404761D02*
X150214285Y-45119047D01*
X150833333Y-45119047D01*
%TO.C,R1*%
X115602380Y-130666666D02*
X115126190Y-131000000D01*
X115602380Y-131238095D02*
X114602380Y-131238095D01*
X114602380Y-130857142D01*
X114650000Y-130761904D01*
X114697619Y-130714285D01*
X114792857Y-130666666D01*
X114935714Y-130666666D01*
X115030952Y-130714285D01*
X115078571Y-130761904D01*
X115126190Y-130857142D01*
X115126190Y-131238095D01*
X115602380Y-129714285D02*
X115602380Y-130285714D01*
X115602380Y-130000000D02*
X114602380Y-130000000D01*
X114745238Y-130095238D01*
X114840476Y-130190476D01*
X114888095Y-130285714D01*
%TO.C,CB7*%
X152333333Y-69983142D02*
X152285714Y-70030761D01*
X152142857Y-70078380D01*
X152047619Y-70078380D01*
X151904761Y-70030761D01*
X151809523Y-69935523D01*
X151761904Y-69840285D01*
X151714285Y-69649809D01*
X151714285Y-69506952D01*
X151761904Y-69316476D01*
X151809523Y-69221238D01*
X151904761Y-69126000D01*
X152047619Y-69078380D01*
X152142857Y-69078380D01*
X152285714Y-69126000D01*
X152333333Y-69173619D01*
X153095238Y-69554571D02*
X153238095Y-69602190D01*
X153285714Y-69649809D01*
X153333333Y-69745047D01*
X153333333Y-69887904D01*
X153285714Y-69983142D01*
X153238095Y-70030761D01*
X153142857Y-70078380D01*
X152761904Y-70078380D01*
X152761904Y-69078380D01*
X153095238Y-69078380D01*
X153190476Y-69126000D01*
X153238095Y-69173619D01*
X153285714Y-69268857D01*
X153285714Y-69364095D01*
X153238095Y-69459333D01*
X153190476Y-69506952D01*
X153095238Y-69554571D01*
X152761904Y-69554571D01*
X153666666Y-69078380D02*
X154333333Y-69078380D01*
X153904761Y-70078380D01*
%TO.C,R4*%
X152833333Y-108802380D02*
X152500000Y-108326190D01*
X152261904Y-108802380D02*
X152261904Y-107802380D01*
X152642857Y-107802380D01*
X152738095Y-107850000D01*
X152785714Y-107897619D01*
X152833333Y-107992857D01*
X152833333Y-108135714D01*
X152785714Y-108230952D01*
X152738095Y-108278571D01*
X152642857Y-108326190D01*
X152261904Y-108326190D01*
X153690476Y-108135714D02*
X153690476Y-108802380D01*
X153452380Y-107754761D02*
X153214285Y-108469047D01*
X153833333Y-108469047D01*
%TO.C,U1*%
X109952380Y-97761904D02*
X110761904Y-97761904D01*
X110857142Y-97714285D01*
X110904761Y-97666666D01*
X110952380Y-97571428D01*
X110952380Y-97380952D01*
X110904761Y-97285714D01*
X110857142Y-97238095D01*
X110761904Y-97190476D01*
X109952380Y-97190476D01*
X110952380Y-96190476D02*
X110952380Y-96761904D01*
X110952380Y-96476190D02*
X109952380Y-96476190D01*
X110095238Y-96571428D01*
X110190476Y-96666666D01*
X110238095Y-96761904D01*
%TO.C,CB8*%
X120833333Y-108983142D02*
X120785714Y-109030761D01*
X120642857Y-109078380D01*
X120547619Y-109078380D01*
X120404761Y-109030761D01*
X120309523Y-108935523D01*
X120261904Y-108840285D01*
X120214285Y-108649809D01*
X120214285Y-108506952D01*
X120261904Y-108316476D01*
X120309523Y-108221238D01*
X120404761Y-108126000D01*
X120547619Y-108078380D01*
X120642857Y-108078380D01*
X120785714Y-108126000D01*
X120833333Y-108173619D01*
X121595238Y-108554571D02*
X121738095Y-108602190D01*
X121785714Y-108649809D01*
X121833333Y-108745047D01*
X121833333Y-108887904D01*
X121785714Y-108983142D01*
X121738095Y-109030761D01*
X121642857Y-109078380D01*
X121261904Y-109078380D01*
X121261904Y-108078380D01*
X121595238Y-108078380D01*
X121690476Y-108126000D01*
X121738095Y-108173619D01*
X121785714Y-108268857D01*
X121785714Y-108364095D01*
X121738095Y-108459333D01*
X121690476Y-108506952D01*
X121595238Y-108554571D01*
X121261904Y-108554571D01*
X122404761Y-108506952D02*
X122309523Y-108459333D01*
X122261904Y-108411714D01*
X122214285Y-108316476D01*
X122214285Y-108268857D01*
X122261904Y-108173619D01*
X122309523Y-108126000D01*
X122404761Y-108078380D01*
X122595238Y-108078380D01*
X122690476Y-108126000D01*
X122738095Y-108173619D01*
X122785714Y-108268857D01*
X122785714Y-108316476D01*
X122738095Y-108411714D01*
X122690476Y-108459333D01*
X122595238Y-108506952D01*
X122404761Y-108506952D01*
X122309523Y-108554571D01*
X122261904Y-108602190D01*
X122214285Y-108697428D01*
X122214285Y-108887904D01*
X122261904Y-108983142D01*
X122309523Y-109030761D01*
X122404761Y-109078380D01*
X122595238Y-109078380D01*
X122690476Y-109030761D01*
X122738095Y-108983142D01*
X122785714Y-108887904D01*
X122785714Y-108697428D01*
X122738095Y-108602190D01*
X122690476Y-108554571D01*
X122595238Y-108506952D01*
%TO.C,R3*%
X153833333Y-45452380D02*
X153500000Y-44976190D01*
X153261904Y-45452380D02*
X153261904Y-44452380D01*
X153642857Y-44452380D01*
X153738095Y-44500000D01*
X153785714Y-44547619D01*
X153833333Y-44642857D01*
X153833333Y-44785714D01*
X153785714Y-44880952D01*
X153738095Y-44928571D01*
X153642857Y-44976190D01*
X153261904Y-44976190D01*
X154166666Y-44452380D02*
X154785714Y-44452380D01*
X154452380Y-44833333D01*
X154595238Y-44833333D01*
X154690476Y-44880952D01*
X154738095Y-44928571D01*
X154785714Y-45023809D01*
X154785714Y-45261904D01*
X154738095Y-45357142D01*
X154690476Y-45404761D01*
X154595238Y-45452380D01*
X154309523Y-45452380D01*
X154214285Y-45404761D01*
X154166666Y-45357142D01*
%TO.C,C2*%
X119707142Y-100666666D02*
X119754761Y-100714285D01*
X119802380Y-100857142D01*
X119802380Y-100952380D01*
X119754761Y-101095238D01*
X119659523Y-101190476D01*
X119564285Y-101238095D01*
X119373809Y-101285714D01*
X119230952Y-101285714D01*
X119040476Y-101238095D01*
X118945238Y-101190476D01*
X118850000Y-101095238D01*
X118802380Y-100952380D01*
X118802380Y-100857142D01*
X118850000Y-100714285D01*
X118897619Y-100666666D01*
X118897619Y-100285714D02*
X118850000Y-100238095D01*
X118802380Y-100142857D01*
X118802380Y-99904761D01*
X118850000Y-99809523D01*
X118897619Y-99761904D01*
X118992857Y-99714285D01*
X119088095Y-99714285D01*
X119230952Y-99761904D01*
X119802380Y-100333333D01*
X119802380Y-99714285D01*
%TO.C,D5*%
X152261904Y-112802380D02*
X152261904Y-111802380D01*
X152500000Y-111802380D01*
X152642857Y-111850000D01*
X152738095Y-111945238D01*
X152785714Y-112040476D01*
X152833333Y-112230952D01*
X152833333Y-112373809D01*
X152785714Y-112564285D01*
X152738095Y-112659523D01*
X152642857Y-112754761D01*
X152500000Y-112802380D01*
X152261904Y-112802380D01*
X153738095Y-111802380D02*
X153261904Y-111802380D01*
X153214285Y-112278571D01*
X153261904Y-112230952D01*
X153357142Y-112183333D01*
X153595238Y-112183333D01*
X153690476Y-112230952D01*
X153738095Y-112278571D01*
X153785714Y-112373809D01*
X153785714Y-112611904D01*
X153738095Y-112707142D01*
X153690476Y-112754761D01*
X153595238Y-112802380D01*
X153357142Y-112802380D01*
X153261904Y-112754761D01*
X153214285Y-112707142D01*
%TO.C,C4*%
X119707142Y-90666666D02*
X119754761Y-90714285D01*
X119802380Y-90857142D01*
X119802380Y-90952380D01*
X119754761Y-91095238D01*
X119659523Y-91190476D01*
X119564285Y-91238095D01*
X119373809Y-91285714D01*
X119230952Y-91285714D01*
X119040476Y-91238095D01*
X118945238Y-91190476D01*
X118850000Y-91095238D01*
X118802380Y-90952380D01*
X118802380Y-90857142D01*
X118850000Y-90714285D01*
X118897619Y-90666666D01*
X119135714Y-89809523D02*
X119802380Y-89809523D01*
X118754761Y-90047619D02*
X119469047Y-90285714D01*
X119469047Y-89666666D01*
%TO.C,D11*%
X144102380Y-71714285D02*
X143102380Y-71714285D01*
X143102380Y-71476190D01*
X143150000Y-71333333D01*
X143245238Y-71238095D01*
X143340476Y-71190476D01*
X143530952Y-71142857D01*
X143673809Y-71142857D01*
X143864285Y-71190476D01*
X143959523Y-71238095D01*
X144054761Y-71333333D01*
X144102380Y-71476190D01*
X144102380Y-71714285D01*
X144102380Y-70190476D02*
X144102380Y-70761904D01*
X144102380Y-70476190D02*
X143102380Y-70476190D01*
X143245238Y-70571428D01*
X143340476Y-70666666D01*
X143388095Y-70761904D01*
X144102380Y-69238095D02*
X144102380Y-69809523D01*
X144102380Y-69523809D02*
X143102380Y-69523809D01*
X143245238Y-69619047D01*
X143340476Y-69714285D01*
X143388095Y-69809523D01*
D12*
%TO.C,C1*%
X123590000Y-102845563D02*
X123590000Y-101560000D01*
X123590000Y-98154437D02*
X123590000Y-99440000D01*
X130410000Y-103910000D02*
X130410000Y-101560000D01*
X130410000Y-97090000D02*
X130410000Y-99440000D01*
X123590000Y-102845563D02*
X124654437Y-103910000D01*
X124654437Y-97090000D02*
X130410000Y-97090000D01*
X123590000Y-98154437D02*
X124654437Y-97090000D01*
X124654437Y-103910000D02*
X130410000Y-103910000D01*
%TO.C,CB6*%
X171485000Y-64985000D02*
X157515000Y-64985000D01*
X157515000Y-51015000D02*
X171485000Y-51015000D01*
X157515000Y-64985000D02*
X157515000Y-51015000D01*
X171485000Y-51015000D02*
X171485000Y-64985000D01*
%TO.C,R11*%
X115685000Y-104540000D02*
X113000000Y-104540000D01*
X113000000Y-106460000D02*
X115685000Y-106460000D01*
X114254000Y-105754000D02*
X114254000Y-105246000D01*
X115685000Y-106460000D02*
X115685000Y-104540000D01*
X114274000Y-105503000D02*
X113766000Y-105757000D01*
X113760000Y-105744000D02*
X113760000Y-105236000D01*
X114278000Y-105504000D02*
X113770000Y-105250000D01*
%TO.C,R6*%
X153240000Y-89756000D02*
X153240000Y-90264000D01*
X152726000Y-89997000D02*
X153234000Y-89743000D01*
X152746000Y-89746000D02*
X152746000Y-90254000D01*
X152722000Y-89996000D02*
X153230000Y-90250000D01*
X154000000Y-89040000D02*
X151315000Y-89040000D01*
X151315000Y-89040000D02*
X151315000Y-90960000D01*
X151315000Y-90960000D02*
X154000000Y-90960000D01*
%TO.C,CB4*%
X157515000Y-103985000D02*
X157515000Y-90015000D01*
X171485000Y-90015000D02*
X171485000Y-103985000D01*
X171485000Y-103985000D02*
X157515000Y-103985000D01*
X157515000Y-90015000D02*
X171485000Y-90015000D01*
%TO.C,R5*%
X153274000Y-122503000D02*
X152766000Y-122757000D01*
X153278000Y-122504000D02*
X152770000Y-122250000D01*
X152760000Y-122744000D02*
X152760000Y-122236000D01*
X153254000Y-122754000D02*
X153254000Y-122246000D01*
X154685000Y-123460000D02*
X154685000Y-121540000D01*
X154685000Y-121540000D02*
X152000000Y-121540000D01*
X152000000Y-123460000D02*
X154685000Y-123460000D01*
%TO.C,CB3*%
X148485000Y-89985000D02*
X148485000Y-103955000D01*
X134515000Y-89985000D02*
X148485000Y-89985000D01*
X148485000Y-103955000D02*
X134515000Y-103955000D01*
X134515000Y-103955000D02*
X134515000Y-89985000D01*
%TO.C,D6*%
X152722000Y-118996000D02*
X153230000Y-119250000D01*
X153240000Y-118756000D02*
X153240000Y-119264000D01*
X151315000Y-119960000D02*
X154000000Y-119960000D01*
X151315000Y-118040000D02*
X151315000Y-119960000D01*
X154000000Y-118040000D02*
X151315000Y-118040000D01*
X152726000Y-118997000D02*
X153234000Y-118743000D01*
X152746000Y-118746000D02*
X152746000Y-119254000D01*
%TO.C,D10*%
X153240000Y-65756000D02*
X153240000Y-66264000D01*
X154000000Y-65040000D02*
X151315000Y-65040000D01*
X151315000Y-65040000D02*
X151315000Y-66960000D01*
X152746000Y-65746000D02*
X152746000Y-66254000D01*
X151315000Y-66960000D02*
X154000000Y-66960000D01*
X152722000Y-65996000D02*
X153230000Y-66250000D01*
X152726000Y-65997000D02*
X153234000Y-65743000D01*
%TO.C,C3*%
X130410000Y-89090000D02*
X130410000Y-91440000D01*
X123590000Y-94845563D02*
X124654437Y-95910000D01*
X123590000Y-90154437D02*
X123590000Y-91440000D01*
X130410000Y-95910000D02*
X130410000Y-93560000D01*
X124654437Y-95910000D02*
X130410000Y-95910000D01*
X124654437Y-89090000D02*
X130410000Y-89090000D01*
X123590000Y-94845563D02*
X123590000Y-93560000D01*
X123590000Y-90154437D02*
X124654437Y-89090000D01*
%TO.C,D12*%
X119500000Y-104540000D02*
X116815000Y-104540000D01*
X116815000Y-104540000D02*
X116815000Y-106460000D01*
X118246000Y-105246000D02*
X118246000Y-105754000D01*
X116815000Y-106460000D02*
X119500000Y-106460000D01*
X118222000Y-105496000D02*
X118730000Y-105750000D01*
X118740000Y-105256000D02*
X118740000Y-105764000D01*
X118226000Y-105497000D02*
X118734000Y-105243000D01*
%TO.C,D1*%
X141774000Y-47003000D02*
X141266000Y-47257000D01*
X141778000Y-47004000D02*
X141270000Y-46750000D01*
X143185000Y-47960000D02*
X143185000Y-46040000D01*
X143185000Y-46040000D02*
X140500000Y-46040000D01*
X141754000Y-47254000D02*
X141754000Y-46746000D01*
X141260000Y-47244000D02*
X141260000Y-46736000D01*
X140500000Y-47960000D02*
X143185000Y-47960000D01*
%TO.C,CB2*%
X157515000Y-109515000D02*
X171485000Y-109515000D01*
X171485000Y-109515000D02*
X171485000Y-123485000D01*
X157515000Y-123485000D02*
X157515000Y-109515000D01*
X171485000Y-123485000D02*
X157515000Y-123485000D01*
%TO.C,CB5*%
X134515000Y-64985000D02*
X134515000Y-51015000D01*
X148485000Y-64985000D02*
X134515000Y-64985000D01*
X134515000Y-51015000D02*
X148485000Y-51015000D01*
X148485000Y-51015000D02*
X148485000Y-64985000D01*
%TO.C,R2*%
X145754000Y-47254000D02*
X145754000Y-46746000D01*
X147185000Y-46040000D02*
X144500000Y-46040000D01*
X145260000Y-47244000D02*
X145260000Y-46736000D01*
X147185000Y-47960000D02*
X147185000Y-46040000D01*
X145778000Y-47004000D02*
X145270000Y-46750000D01*
X144500000Y-47960000D02*
X147185000Y-47960000D01*
X145774000Y-47003000D02*
X145266000Y-47257000D01*
%TO.C,BT1*%
X120870000Y-129070000D02*
X118330000Y-129070000D01*
X168670000Y-151930000D02*
X166130000Y-151930000D01*
X134840000Y-132880000D02*
X134840000Y-131610000D01*
X166130000Y-150660000D02*
X153430000Y-150660000D01*
X153430000Y-148120000D02*
X152160000Y-148120000D01*
X153430000Y-151930000D02*
X153430000Y-150660000D01*
X152160000Y-149390000D02*
X133570000Y-149390000D01*
X118330000Y-129070000D02*
X118330000Y-151930000D01*
X118330000Y-140150000D02*
X141190000Y-140150000D01*
X133570000Y-135420000D02*
X133570000Y-132880000D01*
X152160000Y-145580000D02*
X153430000Y-145580000D01*
X134840000Y-131610000D02*
X153430000Y-131610000D01*
X148350000Y-140850000D02*
X168670000Y-140850000D01*
X133570000Y-144310000D02*
X152160000Y-144310000D01*
X168670000Y-129070000D02*
X168670000Y-151930000D01*
X120870000Y-151930000D02*
X120870000Y-150660000D01*
X133570000Y-132880000D02*
X134840000Y-132880000D01*
X166130000Y-151930000D02*
X166130000Y-150660000D01*
X133570000Y-129070000D02*
X133570000Y-130340000D01*
X153430000Y-136690000D02*
X134840000Y-136690000D01*
X133570000Y-149390000D02*
X133570000Y-144310000D01*
X168670000Y-140150000D02*
X148350000Y-140150000D01*
X133570000Y-151930000D02*
X153430000Y-151930000D01*
X141190000Y-140150000D02*
X141190000Y-140850000D01*
X153430000Y-130340000D02*
X153430000Y-129070000D01*
X153430000Y-131610000D02*
X153430000Y-136690000D01*
X152160000Y-144310000D02*
X152160000Y-145580000D01*
X153430000Y-129070000D02*
X133570000Y-129070000D01*
X141190000Y-140850000D02*
X118330000Y-140850000D01*
X153430000Y-145580000D02*
X153430000Y-148120000D01*
X120870000Y-150660000D02*
X133570000Y-150660000D01*
X116900000Y-128100000D02*
X116900000Y-152900000D01*
X118330000Y-151930000D02*
X120870000Y-151930000D01*
X116900000Y-152905000D02*
X170100000Y-152905000D01*
X152160000Y-148120000D02*
X152160000Y-149390000D01*
X170100000Y-152900000D02*
X170100000Y-128100000D01*
X166130000Y-130340000D02*
X153430000Y-130340000D01*
X168670000Y-129070000D02*
X166130000Y-129070000D01*
X134840000Y-136690000D02*
X134840000Y-135420000D01*
X170100000Y-128095000D02*
X116900000Y-128095000D01*
X120870000Y-130340000D02*
X133570000Y-130340000D01*
X148350000Y-140150000D02*
X148350000Y-140850000D01*
X166130000Y-129070000D02*
X166130000Y-130340000D01*
X134840000Y-135420000D02*
X133570000Y-135420000D01*
X133570000Y-150660000D02*
X133570000Y-151930000D01*
X120870000Y-130340000D02*
X120870000Y-129070000D01*
%TO.C,R9*%
X152722000Y-61996000D02*
X153230000Y-62250000D01*
X151315000Y-62960000D02*
X154000000Y-62960000D01*
X151315000Y-61040000D02*
X151315000Y-62960000D01*
X153240000Y-61756000D02*
X153240000Y-62264000D01*
X154000000Y-61040000D02*
X151315000Y-61040000D01*
X152746000Y-61746000D02*
X152746000Y-62254000D01*
X152726000Y-61997000D02*
X153234000Y-61743000D01*
%TO.C,R10*%
X164960000Y-75815000D02*
X163040000Y-75815000D01*
X164003000Y-77226000D02*
X164257000Y-77734000D01*
X163040000Y-75815000D02*
X163040000Y-78500000D01*
X164960000Y-78500000D02*
X164960000Y-75815000D01*
X164244000Y-77740000D02*
X163736000Y-77740000D01*
X164254000Y-77246000D02*
X163746000Y-77246000D01*
X164004000Y-77222000D02*
X163750000Y-77730000D01*
%TO.C,R7*%
X152760000Y-103744000D02*
X152760000Y-103236000D01*
X154685000Y-102540000D02*
X152000000Y-102540000D01*
X152000000Y-104460000D02*
X154685000Y-104460000D01*
X153278000Y-103504000D02*
X152770000Y-103250000D01*
X153274000Y-103503000D02*
X152766000Y-103757000D01*
X154685000Y-104460000D02*
X154685000Y-102540000D01*
X153254000Y-103754000D02*
X153254000Y-103246000D01*
%TO.C,D8*%
X152722000Y-98996000D02*
X153230000Y-99250000D01*
X151315000Y-99960000D02*
X154000000Y-99960000D01*
X153240000Y-98756000D02*
X153240000Y-99264000D01*
X152746000Y-98746000D02*
X152746000Y-99254000D01*
X152726000Y-98997000D02*
X153234000Y-98743000D01*
X154000000Y-98040000D02*
X151315000Y-98040000D01*
X151315000Y-98040000D02*
X151315000Y-99960000D01*
%TO.C,D7*%
X154685000Y-93040000D02*
X152000000Y-93040000D01*
X153274000Y-94003000D02*
X152766000Y-94257000D01*
X152000000Y-94960000D02*
X154685000Y-94960000D01*
X153278000Y-94004000D02*
X152770000Y-93750000D01*
X153254000Y-94254000D02*
X153254000Y-93746000D01*
X152760000Y-94244000D02*
X152760000Y-93736000D01*
X154685000Y-94960000D02*
X154685000Y-93040000D01*
%TO.C,CB1*%
X148485000Y-109515000D02*
X148485000Y-123485000D01*
X134515000Y-109515000D02*
X148485000Y-109515000D01*
X148485000Y-123485000D02*
X134515000Y-123485000D01*
X134515000Y-123485000D02*
X134515000Y-109515000D01*
%TO.C,J1*%
X112075000Y-51020000D02*
X112075000Y-86640000D01*
X127315000Y-51020000D02*
X127315000Y-86640000D01*
X129975000Y-48420000D02*
X129975000Y-49750000D01*
X127315000Y-51020000D02*
X129975000Y-51020000D01*
X113405000Y-48420000D02*
X114735000Y-48420000D01*
X129975000Y-51020000D02*
X129975000Y-86640000D01*
X114735000Y-48420000D02*
X114735000Y-49750000D01*
X112075000Y-86640000D02*
X114735000Y-86640000D01*
X127315000Y-86640000D02*
X129975000Y-86640000D01*
X112075000Y-51020000D02*
X114735000Y-51020000D01*
X114735000Y-51020000D02*
X114735000Y-86640000D01*
X128645000Y-48420000D02*
X129975000Y-48420000D01*
%TO.C,R8*%
X151315000Y-50040000D02*
X151315000Y-51960000D01*
X154000000Y-50040000D02*
X151315000Y-50040000D01*
X151315000Y-51960000D02*
X154000000Y-51960000D01*
X152746000Y-50746000D02*
X152746000Y-51254000D01*
X152722000Y-50996000D02*
X153230000Y-51250000D01*
X152726000Y-50997000D02*
X153234000Y-50743000D01*
X153240000Y-50756000D02*
X153240000Y-51264000D01*
%TO.C,D9*%
X152000000Y-55960000D02*
X154685000Y-55960000D01*
X153278000Y-55004000D02*
X152770000Y-54750000D01*
X153274000Y-55003000D02*
X152766000Y-55257000D01*
X154685000Y-54040000D02*
X152000000Y-54040000D01*
X154685000Y-55960000D02*
X154685000Y-54040000D01*
X153254000Y-55254000D02*
X153254000Y-54746000D01*
X152760000Y-55244000D02*
X152760000Y-54736000D01*
%TO.C,D4*%
X149760000Y-47244000D02*
X149760000Y-46736000D01*
X150278000Y-47004000D02*
X149770000Y-46750000D01*
X150254000Y-47254000D02*
X150254000Y-46746000D01*
X150274000Y-47003000D02*
X149766000Y-47257000D01*
X151685000Y-46040000D02*
X149000000Y-46040000D01*
X149000000Y-47960000D02*
X151685000Y-47960000D01*
X151685000Y-47960000D02*
X151685000Y-46040000D01*
%TO.C,R1*%
X113504000Y-130222000D02*
X113250000Y-130730000D01*
X114460000Y-128815000D02*
X112540000Y-128815000D01*
X113503000Y-130226000D02*
X113757000Y-130734000D01*
X113744000Y-130740000D02*
X113236000Y-130740000D01*
X113754000Y-130246000D02*
X113246000Y-130246000D01*
X112540000Y-128815000D02*
X112540000Y-131500000D01*
X114460000Y-131500000D02*
X114460000Y-128815000D01*
%TO.C,CB7*%
X159985000Y-70515000D02*
X159985000Y-84485000D01*
X146015000Y-70515000D02*
X159985000Y-70515000D01*
X159985000Y-84485000D02*
X146015000Y-84485000D01*
X146015000Y-84485000D02*
X146015000Y-70515000D01*
%TO.C,R4*%
X151315000Y-110960000D02*
X154000000Y-110960000D01*
X152746000Y-109746000D02*
X152746000Y-110254000D01*
X152726000Y-109997000D02*
X153234000Y-109743000D01*
X152722000Y-109996000D02*
X153230000Y-110250000D01*
X153240000Y-109756000D02*
X153240000Y-110264000D01*
X151315000Y-109040000D02*
X151315000Y-110960000D01*
X154000000Y-109040000D02*
X151315000Y-109040000D01*
%TO.C,U1*%
X111590000Y-101100000D02*
X111590000Y-95090000D01*
X118410000Y-98850000D02*
X118410000Y-95090000D01*
X111590000Y-95090000D02*
X112850000Y-95090000D01*
X118410000Y-95090000D02*
X117150000Y-95090000D01*
%TO.C,CB8*%
X114515000Y-109515000D02*
X128485000Y-109515000D01*
X128485000Y-123485000D02*
X114515000Y-123485000D01*
X114515000Y-123485000D02*
X114515000Y-109515000D01*
X128485000Y-109515000D02*
X128485000Y-123485000D01*
%TO.C,R3*%
X154240000Y-46756000D02*
X154240000Y-47264000D01*
X153726000Y-46997000D02*
X154234000Y-46743000D01*
X153746000Y-46746000D02*
X153746000Y-47254000D01*
X153722000Y-46996000D02*
X154230000Y-47250000D01*
X152315000Y-46040000D02*
X152315000Y-47960000D01*
X155000000Y-46040000D02*
X152315000Y-46040000D01*
X152315000Y-47960000D02*
X155000000Y-47960000D01*
%TO.C,C2*%
X120756000Y-100260000D02*
X121264000Y-100260000D01*
X120040000Y-102185000D02*
X121960000Y-102185000D01*
X121960000Y-102185000D02*
X121960000Y-99500000D01*
X120746000Y-100754000D02*
X121254000Y-100754000D01*
X120040000Y-99500000D02*
X120040000Y-102185000D01*
X120997000Y-100774000D02*
X120743000Y-100266000D01*
X120996000Y-100778000D02*
X121250000Y-100270000D01*
%TO.C,D5*%
X152726000Y-113997000D02*
X153234000Y-113743000D01*
X153240000Y-113756000D02*
X153240000Y-114264000D01*
X151315000Y-114960000D02*
X154000000Y-114960000D01*
X152746000Y-113746000D02*
X152746000Y-114254000D01*
X154000000Y-113040000D02*
X151315000Y-113040000D01*
X151315000Y-113040000D02*
X151315000Y-114960000D01*
X152722000Y-113996000D02*
X153230000Y-114250000D01*
%TO.C,C4*%
X120040000Y-92185000D02*
X121960000Y-92185000D01*
X120996000Y-90778000D02*
X121250000Y-90270000D01*
X120997000Y-90774000D02*
X120743000Y-90266000D01*
X121960000Y-92185000D02*
X121960000Y-89500000D01*
X120746000Y-90754000D02*
X121254000Y-90754000D01*
X120040000Y-89500000D02*
X120040000Y-92185000D01*
X120756000Y-90260000D02*
X121264000Y-90260000D01*
%TO.C,D11*%
X142960000Y-68815000D02*
X141040000Y-68815000D01*
X142244000Y-70740000D02*
X141736000Y-70740000D01*
X142960000Y-71500000D02*
X142960000Y-68815000D01*
X142254000Y-70246000D02*
X141746000Y-70246000D01*
X141040000Y-68815000D02*
X141040000Y-71500000D01*
X142004000Y-70222000D02*
X141750000Y-70730000D01*
X142003000Y-70226000D02*
X142257000Y-70734000D01*
%TD*%
M02*
